{
DisplayStrings = (
"/alef-hb/bet-hb/gimel-hb/dalet-hb/he-hb/vav-hb/zayin-hb/yod-hb/bet-hb/vav-hb/bet-hb/bet-hb/lamed-hb/he-hb/yod-hb/vav-hb/tav-hb/lamed-hb/bet-hb/het-hb/tet-hb/he-hb/kaf-hb/yod-hb/yod-hb/finalkaf-hb/kaf-hb/lamed-hb/finalmem-hb/mem-hb/finalnun-hb/nun-hb/samekh-hb/ayin-hb/finalpe-hb/pe-hb/finaltsadi-hb/tsadi-hb/qof-hb/resh-hb/shin-hb/tav-hb/shinshindot-hb/shinsindot-hb/shindageshshindot-hb/shindageshsindot-hb/alefpatah-hb/alefqamats-hb/alefdagesh-hb/betdagesh-hb/gimeldagesh-hb/daletdagesh-hb/hedagesh-hb/vavdagesh-hb/zayindagesh-hb/tetdagesh-hb/yoddagesh-hb/finalkafdagesh-hb/kafdagesh-hb/lameddagesh-hb/memdagesh-hb/nundagesh-hb/samekhdagesh-hb/finalpedagesh-hb/pedagesh-hb/tsadidagesh-hb/qofdagesh-hb/reshdagesh-hb/shindagesh-hb/tavdagesh-hb/vavholam-hb/maqaf-hb/sheva-hb -=/hatafsegol-hb/hatafpatah-hb/hatafqamats-hb/hiriq-hb/tsere-hb/segol-hb/patah-hb/qamats-hb/holam-hb/holamhaser-hb/qubuts-hb/dagesh-hb/rafe-hb/shindot-hb/sindot-hb/qamatsqatan-hb"
);
copyright = "Digitized data Copyright (c) 2011-2013, vernon adams.";
customParameters = (
{
name = license;
value = "Copyright (c) 2013, vernon adams.\012\012This Font Software is licensed under the SIL Open Font License, Version 1.1.\012This license is copied below, and is also available with a FAQ at:\012http://scripts.sil.org/OFL\012";
},
{
name = licenseURL;
value = "http://scripts.sil.org/OFL";
},
{
name = vendorID;
value = NeWT;
}
);
date = "2014-02-10 20:51:42 +0000";
designer = "Vernon Adams";
designerURL = newtypography.co.uk;
familyName = "Amatic";
featurePrefixes = (
{
automatic = 1;
code = "languagesystem DFLT dflt;\012languagesystem latn dflt;\012languagesystem hebr dflt;\012languagesystem latn CAT;\012";
name = Languagesystems;
}
);
features = (
{
automatic = 1;
code = "feature locl;\012feature frac;\012feature ordn;\012";
name = aalt;
},
{
automatic = 1;
code = "script latn;\012language CAT;\012sub  l' periodcentered' l by ldot;\012sub  L' periodcentered' L by Ldot;\012";
name = locl;
},
{

glyphs = (
{
glyphname = A;
lastChange = "2015-11-01 09:31:29 +0000";
layers = (
{
layerId = "156B637B-193E-48A3-AAC8-7B4A3960F885";
name = "Bold Condensed";
paths = (
{
closed = 1;
nodes = (
"672 1 OFFCURVE",
"695 24 OFFCURVE",
"695 70 CURVE SMOOTH",
"695 143 OFFCURVE",
"688 253 OFFCURVE",
"674 400 CURVE SMOOTH",
"659 546 OFFCURVE",
"652 649 OFFCURVE",
"652 710 CURVE SMOOTH",
"652 775 OFFCURVE",
"639 915 OFFCURVE",
"612 1130 CURVE SMOOTH",
"585 1345 OFFCURVE",
"572 1476 OFFCURVE",
"572 1525 CURVE",
"557 1537 OFFCURVE",
"535 1543 OFFCURVE",
"506 1543 CURVE SMOOTH",
"477 1543 OFFCURVE",
"447 1496 OFFCURVE",
"416 1401 CURVE SMOOTH",
"353 1212 OFFCURVE",
"300 912 OFFCURVE",
"252 631 CURVE SMOOTH",
"228 490 OFFCURVE",
"206 365 OFFCURVE",
"185 256 CURVE SMOOTH",
"164 146 OFFCURVE",
"147 82 OFFCURVE",
"134 64 CURVE",
"141 37 OFFCURVE",
"171 23 OFFCURVE",
"224 23 CURVE",
"256 76 OFFCURVE",
"273 178 OFFCURVE",
"291 269 CURVE SMOOTH",
"300 314 OFFCURVE",
"311 349 OFFCURVE",
"325 373 CURVE",
"404 368 OFFCURVE",
"525 348 OFFCURVE",
"564 321 CURVE",
"564 54 LINE SMOOTH",
"564 15 OFFCURVE",
"584 1 OFFCURVE",
"627 1 CURVE SMOOTH"
);
},
{
closed = 1;
nodes = (
"455 441 OFFCURVE",
"395 449 OFFCURVE",
"338 464 CURVE",
"343 583 OFFCURVE",
"452 1210 OFFCURVE",
"495 1254 CURVE",
"494 1251 OFFCURVE",
"494 1245 OFFCURVE",
"494 1236 CURVE SMOOTH",
"494 1161 OFFCURVE",
"517 912 OFFCURVE",
"541 670 CURVE SMOOTH",
"553 549 OFFCURVE",
"560 474 OFFCURVE",
"562 447 CURVE",
"546 443 OFFCURVE",
"532 441 OFFCURVE",
"520 441 CURVE SMOOTH"
);
}
);
width = 846;
}
);
note = A;
unicode = 0041;
},
{
glyphname = Aacute;
lastChange = "2015-11-01 09:31:29 +0000";
layers = (
{
layerId = "156B637B-193E-48A3-AAC8-7B4A3960F885";
name = "Bold Condensed";
paths = (
{
closed = 1;
nodes = (
"545 1735 OFFCURVE",
"594 1778 OFFCURVE",
"661 1835 CURVE SMOOTH",
"728 1892 OFFCURVE",
"768 1927 OFFCURVE",
"782 1940 CURVE",
"790 1943 OFFCURVE",
"796 1944 OFFCURVE",
"799 1944 CURVE SMOOTH",
"832 1944 OFFCURVE",
"866 1902 OFFCURVE",
"866 1867 CURVE SMOOTH",
"866 1853 OFFCURVE",
"861 1842 OFFCURVE",
"851 1835 CURVE SMOOTH",
"799 1797 OFFCURVE",
"700 1739 OFFCURVE",
"553 1662 CURVE",
"548 1659 OFFCURVE",
"542 1658 OFFCURVE",
"536 1658 CURVE SMOOTH",
"519 1658 OFFCURVE",
"503 1670 OFFCURVE",
"503 1685 CURVE SMOOTH",
"503 1692 OFFCURVE",
"507 1699 OFFCURVE",
"514 1706 CURVE SMOOTH"
);
},
{
closed = 1;
nodes = (
"494 1245 OFFCURVE",
"494 1251 OFFCURVE",
"495 1254 CURVE",
"452 1210 OFFCURVE",
"343 583 OFFCURVE",
"338 464 CURVE",
"395 449 OFFCURVE",
"455 441 OFFCURVE",
"520 441 CURVE SMOOTH",
"532 441 OFFCURVE",
"546 443 OFFCURVE",
"562 447 CURVE",
"560 474 OFFCURVE",
"553 549 OFFCURVE",
"541 670 CURVE SMOOTH",
"517 912 OFFCURVE",
"494 1161 OFFCURVE",
"494 1236 CURVE SMOOTH"
);
},
{
closed = 1;
nodes = (
"572 1476 OFFCURVE",
"585 1345 OFFCURVE",
"612 1130 CURVE SMOOTH",
"639 915 OFFCURVE",
"652 775 OFFCURVE",
"652 710 CURVE SMOOTH",
"652 649 OFFCURVE",
"659 546 OFFCURVE",
"674 400 CURVE SMOOTH",
"688 253 OFFCURVE",
"695 143 OFFCURVE",
"695 70 CURVE SMOOTH",
"695 24 OFFCURVE",
"672 1 OFFCURVE",
"627 1 CURVE SMOOTH",
"584 1 OFFCURVE",
"564 15 OFFCURVE",
"564 54 CURVE SMOOTH",
"564 321 LINE",
"525 348 OFFCURVE",
"404 368 OFFCURVE",
"325 373 CURVE",
"311 349 OFFCURVE",
"300 314 OFFCURVE",
"291 269 CURVE SMOOTH",
"273 178 OFFCURVE",
"256 76 OFFCURVE",
"224 23 CURVE",
"171 23 OFFCURVE",
"141 37 OFFCURVE",
"134 64 CURVE",
"147 82 OFFCURVE",
"164 146 OFFCURVE",
"185 256 CURVE SMOOTH",
"206 365 OFFCURVE",
"228 490 OFFCURVE",
"252 631 CURVE SMOOTH",
"300 912 OFFCURVE",
"353 1212 OFFCURVE",
"416 1401 CURVE SMOOTH",
"447 1496 OFFCURVE",
"477 1543 OFFCURVE",
"506 1543 CURVE SMOOTH",
"535 1543 OFFCURVE",
"557 1537 OFFCURVE",
"572 1525 CURVE"
);
}
);
width = 846;
}
);
note = Aacute;
unicode = 00C1;
},
{
glyphname = Abreve;
lastChange = "2015-11-01 09:31:29 +0000";
layers = (
{
layerId = "156B637B-193E-48A3-AAC8-7B4A3960F885";
name = "Bold Condensed";
paths = (
{
closed = 1;
nodes = (
"680 1777 OFFCURVE",
"627 1704 OFFCURVE",
"528 1704 CURVE SMOOTH",
"464 1704 OFFCURVE",
"416 1736 OFFCURVE",
"391 1785 CURVE SMOOTH",
"366 1833 OFFCURVE",
"355 1887 OFFCURVE",
"355 1947 CURVE SMOOTH",
"355 1964 OFFCURVE",
"370 1979 OFFCURVE",
"393 1979 CURVE SMOOTH",
"425 1979 OFFCURVE",
"451 1934 OFFCURVE",
"464 1889 CURVE SMOOTH",
"476 1844 OFFCURVE",
"497 1799 OFFCURVE",
"522 1799 CURVE SMOOTH",
"571 1799 OFFCURVE",
"592 1856 OFFCURVE",
"592 1893 CURVE SMOOTH",
"592 1944 OFFCURVE",
"603 1970 OFFCURVE",
"650 1970 CURVE SMOOTH",
"678 1970 OFFCURVE",
"704 1946 OFFCURVE",
"704 1918 CURVE SMOOTH",
"704 1897 OFFCURVE",
"703 1880 OFFCURVE",
"700 1868 CURVE SMOOTH"
);
},
{
closed = 1;
nodes = (
"494 1245 OFFCURVE",
"494 1251 OFFCURVE",
"495 1254 CURVE",
"452 1210 OFFCURVE",
"343 583 OFFCURVE",
"338 464 CURVE",
"395 449 OFFCURVE",
"455 441 OFFCURVE",
"520 441 CURVE SMOOTH",
"532 441 OFFCURVE",
"546 443 OFFCURVE",
"562 447 CURVE",
"560 474 OFFCURVE",
"553 549 OFFCURVE",
"541 670 CURVE SMOOTH",
"517 912 OFFCURVE",
"494 1161 OFFCURVE",
"494 1236 CURVE SMOOTH"
);
},
{
closed = 1;
nodes = (
"572 1476 OFFCURVE",
"585 1345 OFFCURVE",
"612 1130 CURVE SMOOTH",
"639 915 OFFCURVE",
"652 775 OFFCURVE",
"652 710 CURVE SMOOTH",
"652 649 OFFCURVE",
"659 546 OFFCURVE",
"674 400 CURVE SMOOTH",
"688 253 OFFCURVE",
"695 143 OFFCURVE",
"695 70 CURVE SMOOTH",
"695 24 OFFCURVE",
"672 1 OFFCURVE",
"627 1 CURVE SMOOTH",
"584 1 OFFCURVE",
"564 15 OFFCURVE",
"564 54 CURVE SMOOTH",
"564 321 LINE",
"525 348 OFFCURVE",
"404 368 OFFCURVE",
"325 373 CURVE",
"311 349 OFFCURVE",
"300 314 OFFCURVE",
"291 269 CURVE SMOOTH",
"273 178 OFFCURVE",
"256 76 OFFCURVE",
"224 23 CURVE",
"171 23 OFFCURVE",
"141 37 OFFCURVE",
"134 64 CURVE",
"147 82 OFFCURVE",
"164 146 OFFCURVE",
"185 256 CURVE SMOOTH",
"206 365 OFFCURVE",
"228 490 OFFCURVE",
"252 631 CURVE SMOOTH",
"300 912 OFFCURVE",
"353 1212 OFFCURVE",
"416 1401 CURVE SMOOTH",
"447 1496 OFFCURVE",
"477 1543 OFFCURVE",
"506 1543 CURVE SMOOTH",
"535 1543 OFFCURVE",
"557 1537 OFFCURVE",
"572 1525 CURVE"
);
}
);
width = 846;
}
);
note = Abreve;
unicode = 0102;
},
{
glyphname = Acircumflex;
lastChange = "2015-11-01 09:31:29 +0000";
layers = (
{
layerId = "156B637B-193E-48A3-AAC8-7B4A3960F885";
name = "Bold Condensed";
paths = (
{
closed = 1;
nodes = (
"427 1724 LINE",
"423 1715 OFFCURVE",
"413 1710 OFFCURVE",
"398 1710 CURVE SMOOTH",
"371 1710 OFFCURVE",
"346 1725 OFFCURVE",
"346 1750 CURVE SMOOTH",
"346 1757 OFFCURVE",
"347 1763 OFFCURVE",
"350 1769 CURVE",
"375 1829 OFFCURVE",
"408 1913 OFFCURVE",
"423 1950 CURVE SMOOTH",
"438 1987 OFFCURVE",
"460 2038 OFFCURVE",
"472 2058 CURVE SMOOTH",
"484 2078 OFFCURVE",
"502 2100 OFFCURVE",
"519 2107 CURVE SMOOTH",
"527 2110 OFFCURVE",
"536 2112 OFFCURVE",
"547 2112 CURVE SMOOTH",
"557 2112 OFFCURVE",
"567 2105 OFFCURVE",
"576 2092 CURVE SMOOTH",
"595 2065 OFFCURVE",
"614 2005 OFFCURVE",
"628 1954 CURVE SMOOTH",
"635 1928 OFFCURVE",
"643 1895 OFFCURVE",
"654 1855 CURVE SMOOTH",
"664 1814 OFFCURVE",
"673 1782 OFFCURVE",
"680 1757 CURVE SMOOTH",
"682 1750 OFFCURVE",
"683 1744 OFFCURVE",
"683 1739 CURVE SMOOTH",
"683 1711 OFFCURVE",
"660 1696 OFFCURVE",
"636 1696 CURVE SMOOTH",
"622 1696 OFFCURVE",
"613 1701 OFFCURVE",
"610 1710 CURVE",
"530 1986 LINE"
);
},
{
closed = 1;
nodes = (
"494 1245 OFFCURVE",
"494 1251 OFFCURVE",
"495 1254 CURVE",
"452 1210 OFFCURVE",
"343 583 OFFCURVE",
"338 464 CURVE",
"395 449 OFFCURVE",
"455 441 OFFCURVE",
"520 441 CURVE SMOOTH",
"532 441 OFFCURVE",
"546 443 OFFCURVE",
"562 447 CURVE",
"560 474 OFFCURVE",
"553 549 OFFCURVE",
"541 670 CURVE SMOOTH",
"517 912 OFFCURVE",
"494 1161 OFFCURVE",
"494 1236 CURVE SMOOTH"
);
},
{
closed = 1;
nodes = (
"572 1476 OFFCURVE",
"585 1345 OFFCURVE",
"612 1130 CURVE SMOOTH",
"639 915 OFFCURVE",
"652 775 OFFCURVE",
"652 710 CURVE SMOOTH",
"652 649 OFFCURVE",
"659 546 OFFCURVE",
"674 400 CURVE SMOOTH",
"688 253 OFFCURVE",
"695 143 OFFCURVE",
"695 70 CURVE SMOOTH",
"695 24 OFFCURVE",
"672 1 OFFCURVE",
"627 1 CURVE SMOOTH",
"584 1 OFFCURVE",
"564 15 OFFCURVE",
"564 54 CURVE SMOOTH",
"564 321 LINE",
"525 348 OFFCURVE",
"404 368 OFFCURVE",
"325 373 CURVE",
"311 349 OFFCURVE",
"300 314 OFFCURVE",
"291 269 CURVE SMOOTH",
"273 178 OFFCURVE",
"256 76 OFFCURVE",
"224 23 CURVE",
"171 23 OFFCURVE",
"141 37 OFFCURVE",
"134 64 CURVE",
"147 82 OFFCURVE",
"164 146 OFFCURVE",
"185 256 CURVE SMOOTH",
"206 365 OFFCURVE",
"228 490 OFFCURVE",
"252 631 CURVE SMOOTH",
"300 912 OFFCURVE",
"353 1212 OFFCURVE",
"416 1401 CURVE SMOOTH",
"447 1496 OFFCURVE",
"477 1543 OFFCURVE",
"506 1543 CURVE SMOOTH",
"535 1543 OFFCURVE",
"557 1537 OFFCURVE",
"572 1525 CURVE"
);
}
);
width = 846;
}
);
note = Acircumflex;
unicode = 00C2;
},
{
glyphname = Adieresis;
lastChange = "2015-11-01 09:31:29 +0000";
layers = (
{
layerId = "156B637B-193E-48A3-AAC8-7B4A3960F885";
name = "Bold Condensed";
paths = (
{
closed = 1;
nodes = (
"591 1822 OFFCURVE",
"627 1860 OFFCURVE",
"668 1860 CURVE SMOOTH",
"707 1860 OFFCURVE",
"741 1822 OFFCURVE",
"741 1783 CURVE SMOOTH",
"741 1738 OFFCURVE",
"707 1708 OFFCURVE",
"660 1708 CURVE SMOOTH",
"623 1708 OFFCURVE",
"591 1744 OFFCURVE",
"591 1781 CURVE SMOOTH"
);
},
{
closed = 1;
nodes = (
"261 1832 OFFCURVE",
"297 1870 OFFCURVE",
"338 1870 CURVE SMOOTH",
"377 1870 OFFCURVE",
"411 1832 OFFCURVE",
"411 1793 CURVE SMOOTH",
"411 1748 OFFCURVE",
"377 1718 OFFCURVE",
"330 1718 CURVE SMOOTH",
"293 1718 OFFCURVE",
"261 1754 OFFCURVE",
"261 1791 CURVE SMOOTH"
);
},
{
closed = 1;
nodes = (
"494 1245 OFFCURVE",
"494 1251 OFFCURVE",
"495 1254 CURVE",
"452 1210 OFFCURVE",
"343 583 OFFCURVE",
"338 464 CURVE",
"395 449 OFFCURVE",
"455 441 OFFCURVE",
"520 441 CURVE SMOOTH",
"532 441 OFFCURVE",
"546 443 OFFCURVE",
"562 447 CURVE",
"560 474 OFFCURVE",
"553 549 OFFCURVE",
"541 670 CURVE SMOOTH",
"517 912 OFFCURVE",
"494 1161 OFFCURVE",
"494 1236 CURVE SMOOTH"
);
},
{
closed = 1;
nodes = (
"572 1476 OFFCURVE",
"585 1345 OFFCURVE",
"612 1130 CURVE SMOOTH",
"639 915 OFFCURVE",
"652 775 OFFCURVE",
"652 710 CURVE SMOOTH",
"652 649 OFFCURVE",
"659 546 OFFCURVE",
"674 400 CURVE SMOOTH",
"688 253 OFFCURVE",
"695 143 OFFCURVE",
"695 70 CURVE SMOOTH",
"695 24 OFFCURVE",
"672 1 OFFCURVE",
"627 1 CURVE SMOOTH",
"584 1 OFFCURVE",
"564 15 OFFCURVE",
"564 54 CURVE SMOOTH",
"564 321 LINE",
"525 348 OFFCURVE",
"404 368 OFFCURVE",
"325 373 CURVE",
"311 349 OFFCURVE",
"300 314 OFFCURVE",
"291 269 CURVE SMOOTH",
"273 178 OFFCURVE",
"256 76 OFFCURVE",
"224 23 CURVE",
"171 23 OFFCURVE",
"141 37 OFFCURVE",
"134 64 CURVE",
"147 82 OFFCURVE",
"164 146 OFFCURVE",
"185 256 CURVE SMOOTH",
"206 365 OFFCURVE",
"228 490 OFFCURVE",
"252 631 CURVE SMOOTH",
"300 912 OFFCURVE",
"353 1212 OFFCURVE",
"416 1401 CURVE SMOOTH",
"447 1496 OFFCURVE",
"477 1543 OFFCURVE",
"506 1543 CURVE SMOOTH",
"535 1543 OFFCURVE",
"557 1537 OFFCURVE",
"572 1525 CURVE"
);
}
);
width = 846;
}
);
note = Adieresis;
unicode = 00C4;
},
{
glyphname = Agrave;
lastChange = "2015-11-01 09:31:29 +0000";
layers = (
{
layerId = "156B637B-193E-48A3-AAC8-7B4A3960F885";
name = "Bold Condensed";
paths = (
{
closed = 1;
nodes = (
"282 1935 OFFCURVE",
"582 1776 OFFCURVE",
"582 1740 CURVE SMOOTH",
"582 1731 OFFCURVE",
"577 1726 OFFCURVE",
"567 1726 CURVE SMOOTH",
"522 1726 OFFCURVE",
"189 1831 OFFCURVE",
"189 1855 CURVE SMOOTH",
"189 1886 OFFCURVE",
"224 1935 OFFCURVE",
"257 1935 CURVE SMOOTH"
);
},
{
closed = 1;
nodes = (
"494 1245 OFFCURVE",
"494 1251 OFFCURVE",
"495 1254 CURVE",
"452 1210 OFFCURVE",
"343 583 OFFCURVE",
"338 464 CURVE",
"395 449 OFFCURVE",
"455 441 OFFCURVE",
"520 441 CURVE SMOOTH",
"532 441 OFFCURVE",
"546 443 OFFCURVE",
"562 447 CURVE",
"560 474 OFFCURVE",
"553 549 OFFCURVE",
"541 670 CURVE SMOOTH",
"517 912 OFFCURVE",
"494 1161 OFFCURVE",
"494 1236 CURVE SMOOTH"
);
},
{
closed = 1;
nodes = (
"572 1476 OFFCURVE",
"585 1345 OFFCURVE",
"612 1130 CURVE SMOOTH",
"639 915 OFFCURVE",
"652 775 OFFCURVE",
"652 710 CURVE SMOOTH",
"652 649 OFFCURVE",
"659 546 OFFCURVE",
"674 400 CURVE SMOOTH",
"688 253 OFFCURVE",
"695 143 OFFCURVE",
"695 70 CURVE SMOOTH",
"695 24 OFFCURVE",
"672 1 OFFCURVE",
"627 1 CURVE SMOOTH",
"584 1 OFFCURVE",
"564 15 OFFCURVE",
"564 54 CURVE SMOOTH",
"564 321 LINE",
"525 348 OFFCURVE",
"404 368 OFFCURVE",
"325 373 CURVE",
"311 349 OFFCURVE",
"300 314 OFFCURVE",
"291 269 CURVE SMOOTH",
"273 178 OFFCURVE",
"256 76 OFFCURVE",
"224 23 CURVE",
"171 23 OFFCURVE",
"141 37 OFFCURVE",
"134 64 CURVE",
"147 82 OFFCURVE",
"164 146 OFFCURVE",
"185 256 CURVE SMOOTH",
"206 365 OFFCURVE",
"228 490 OFFCURVE",
"252 631 CURVE SMOOTH",
"300 912 OFFCURVE",
"353 1212 OFFCURVE",
"416 1401 CURVE SMOOTH",
"447 1496 OFFCURVE",
"477 1543 OFFCURVE",
"506 1543 CURVE SMOOTH",
"535 1543 OFFCURVE",
"557 1537 OFFCURVE",
"572 1525 CURVE"
);
}
);
width = 846;
}
);
note = Agrave;
unicode = 00C0;
},
{
glyphname = Amacron;
lastChange = "2015-11-01 09:31:29 +0000";
layers = (
{
layerId = "156B637B-193E-48A3-AAC8-7B4A3960F885";
name = "Bold Condensed";
paths = (
{
closed = 1;
nodes = (
"727 1735 OFFCURVE",
"721 1725 OFFCURVE",
"709 1711 CURVE SMOOTH",
"697 1697 OFFCURVE",
"670 1687 OFFCURVE",
"637 1687 CURVE SMOOTH",
"399 1687 LINE SMOOTH",
"359 1687 OFFCURVE",
"328 1712 OFFCURVE",
"328 1739 CURVE SMOOTH",
"328 1760 OFFCURVE",
"350 1777 OFFCURVE",
"394 1777 CURVE SMOOTH",
"620 1777 LINE SMOOTH",
"671 1777 OFFCURVE",
"684 1777 OFFCURVE",
"705 1773 CURVE SMOOTH",
"725 1769 OFFCURVE",
"728 1760 OFFCURVE",
"728 1744 CURVE"
);
},
{
closed = 1;
nodes = (
"494 1245 OFFCURVE",
"494 1251 OFFCURVE",
"495 1254 CURVE",
"452 1210 OFFCURVE",
"343 583 OFFCURVE",
"338 464 CURVE",
"395 449 OFFCURVE",
"455 441 OFFCURVE",
"520 441 CURVE SMOOTH",
"532 441 OFFCURVE",
"546 443 OFFCURVE",
"562 447 CURVE",
"560 474 OFFCURVE",
"553 549 OFFCURVE",
"541 670 CURVE SMOOTH",
"517 912 OFFCURVE",
"494 1161 OFFCURVE",
"494 1236 CURVE SMOOTH"
);
},
{
closed = 1;
nodes = (
"572 1476 OFFCURVE",
"585 1345 OFFCURVE",
"612 1130 CURVE SMOOTH",
"639 915 OFFCURVE",
"652 775 OFFCURVE",
"652 710 CURVE SMOOTH",
"652 649 OFFCURVE",
"659 546 OFFCURVE",
"674 400 CURVE SMOOTH",
"688 253 OFFCURVE",
"695 143 OFFCURVE",
"695 70 CURVE SMOOTH",
"695 24 OFFCURVE",
"672 1 OFFCURVE",
"627 1 CURVE SMOOTH",
"584 1 OFFCURVE",
"564 15 OFFCURVE",
"564 54 CURVE SMOOTH",
"564 321 LINE",
"525 348 OFFCURVE",
"404 368 OFFCURVE",
"325 373 CURVE",
"311 349 OFFCURVE",
"300 314 OFFCURVE",
"291 269 CURVE SMOOTH",
"273 178 OFFCURVE",
"256 76 OFFCURVE",
"224 23 CURVE",
"171 23 OFFCURVE",
"141 37 OFFCURVE",
"134 64 CURVE",
"147 82 OFFCURVE",
"164 146 OFFCURVE",
"185 256 CURVE SMOOTH",
"206 365 OFFCURVE",
"228 490 OFFCURVE",
"252 631 CURVE SMOOTH",
"300 912 OFFCURVE",
"353 1212 OFFCURVE",
"416 1401 CURVE SMOOTH",
"447 1496 OFFCURVE",
"477 1543 OFFCURVE",
"506 1543 CURVE SMOOTH",
"535 1543 OFFCURVE",
"557 1537 OFFCURVE",
"572 1525 CURVE"
);
}
);
width = 846;
}
);
note = Amacron;
unicode = 0100;
},
{
glyphname = Aogonek;
lastChange = "2015-11-01 09:31:29 +0000";
layers = (
{
layerId = "156B637B-193E-48A3-AAC8-7B4A3960F885";
name = "Bold Condensed";
paths = (
{
closed = 1;
nodes = (
"669 12 LINE",
"550 -87 OFFCURVE",
"491 -174 OFFCURVE",
"491 -250 CURVE SMOOTH",
"491 -263 OFFCURVE",
"493 -278 OFFCURVE",
"502 -291 CURVE",
"506 -298 OFFCURVE",
"511 -301 OFFCURVE",
"518 -301 CURVE SMOOTH",
"545 -301 OFFCURVE",
"573 -290 OFFCURVE",
"604 -268 CURVE",
"618 -302 LINE",
"618 -338 OFFCURVE",
"552 -366 OFFCURVE",
"512 -366 CURVE SMOOTH",
"456 -366 OFFCURVE",
"421 -316 OFFCURVE",
"421 -259 CURVE SMOOTH",
"421 -151 OFFCURVE",
"505 -55 OFFCURVE",
"614 12 CURVE"
);
},
{
closed = 1;
nodes = (
"494 1245 OFFCURVE",
"494 1251 OFFCURVE",
"495 1254 CURVE",
"452 1210 OFFCURVE",
"343 583 OFFCURVE",
"338 464 CURVE",
"395 449 OFFCURVE",
"455 441 OFFCURVE",
"520 441 CURVE SMOOTH",
"532 441 OFFCURVE",
"546 443 OFFCURVE",
"562 447 CURVE",
"560 474 OFFCURVE",
"553 549 OFFCURVE",
"541 670 CURVE SMOOTH",
"517 912 OFFCURVE",
"494 1161 OFFCURVE",
"494 1236 CURVE SMOOTH"
);
},
{
closed = 1;
nodes = (
"572 1476 OFFCURVE",
"585 1345 OFFCURVE",
"612 1130 CURVE SMOOTH",
"639 915 OFFCURVE",
"652 775 OFFCURVE",
"652 710 CURVE SMOOTH",
"652 649 OFFCURVE",
"659 546 OFFCURVE",
"674 400 CURVE SMOOTH",
"688 253 OFFCURVE",
"695 143 OFFCURVE",
"695 70 CURVE SMOOTH",
"695 24 OFFCURVE",
"672 1 OFFCURVE",
"627 1 CURVE SMOOTH",
"584 1 OFFCURVE",
"564 15 OFFCURVE",
"564 54 CURVE SMOOTH",
"564 321 LINE",
"525 348 OFFCURVE",
"404 368 OFFCURVE",
"325 373 CURVE",
"311 349 OFFCURVE",
"300 314 OFFCURVE",
"291 269 CURVE SMOOTH",
"273 178 OFFCURVE",
"256 76 OFFCURVE",
"224 23 CURVE",
"171 23 OFFCURVE",
"141 37 OFFCURVE",
"134 64 CURVE",
"147 82 OFFCURVE",
"164 146 OFFCURVE",
"185 256 CURVE SMOOTH",
"206 365 OFFCURVE",
"228 490 OFFCURVE",
"252 631 CURVE SMOOTH",
"300 912 OFFCURVE",
"353 1212 OFFCURVE",
"416 1401 CURVE SMOOTH",
"447 1496 OFFCURVE",
"477 1543 OFFCURVE",
"506 1543 CURVE SMOOTH",
"535 1543 OFFCURVE",
"557 1537 OFFCURVE",
"572 1525 CURVE"
);
}
);
width = 846;
}
);
note = Aogonek;
unicode = 0104;
},
{
glyphname = Aring;
lastChange = "2015-11-01 09:31:29 +0000";
layers = (
{
layerId = "156B637B-193E-48A3-AAC8-7B4A3960F885";
name = "Bold Condensed";
paths = (
{
closed = 1;
nodes = (
"469 1966 OFFCURVE",
"442 1905 OFFCURVE",
"442 1832 CURVE SMOOTH",
"442 1796 OFFCURVE",
"487 1747 OFFCURVE",
"535 1747 CURVE SMOOTH",
"583 1747 OFFCURVE",
"620 1767 OFFCURVE",
"637 1795 CURVE SMOOTH",
"653 1823 OFFCURVE",
"659 1848 OFFCURVE",
"659 1869 CURVE SMOOTH",
"659 1916 OFFCURVE",
"624 1966 OFFCURVE",
"537 1966 CURVE SMOOTH"
);
},
{
closed = 1;
nodes = (
"364 1969 OFFCURVE",
"430 2040 OFFCURVE",
"526 2040 CURVE SMOOTH",
"590 2040 OFFCURVE",
"641 2023 OFFCURVE",
"671 2000 CURVE SMOOTH",
"701 1976 OFFCURVE",
"720 1943 OFFCURVE",
"727 1915 CURVE SMOOTH",
"730 1901 OFFCURVE",
"732 1887 OFFCURVE",
"732 1874 CURVE SMOOTH",
"732 1846 OFFCURVE",
"728 1816 OFFCURVE",
"709 1777 CURVE SMOOTH",
"690 1737 OFFCURVE",
"664 1705 OFFCURVE",
"613 1684 CURVE SMOOTH",
"588 1673 OFFCURVE",
"559 1668 OFFCURVE",
"526 1668 CURVE SMOOTH",
"463 1668 OFFCURVE",
"417 1697 OFFCURVE",
"395 1741 CURVE SMOOTH",
"373 1785 OFFCURVE",
"364 1828 OFFCURVE",
"364 1873 CURVE SMOOTH"
);
},
{
closed = 1;
nodes = (
"494 1245 OFFCURVE",
"494 1251 OFFCURVE",
"495 1254 CURVE",
"452 1210 OFFCURVE",
"343 583 OFFCURVE",
"338 464 CURVE",
"395 449 OFFCURVE",
"455 441 OFFCURVE",
"520 441 CURVE SMOOTH",
"532 441 OFFCURVE",
"546 443 OFFCURVE",
"562 447 CURVE",
"560 474 OFFCURVE",
"553 549 OFFCURVE",
"541 670 CURVE SMOOTH",
"517 912 OFFCURVE",
"494 1161 OFFCURVE",
"494 1236 CURVE SMOOTH"
);
},
{
closed = 1;
nodes = (
"572 1476 OFFCURVE",
"585 1345 OFFCURVE",
"612 1130 CURVE SMOOTH",
"639 915 OFFCURVE",
"652 775 OFFCURVE",
"652 710 CURVE SMOOTH",
"652 649 OFFCURVE",
"659 546 OFFCURVE",
"674 400 CURVE SMOOTH",
"688 253 OFFCURVE",
"695 143 OFFCURVE",
"695 70 CURVE SMOOTH",
"695 24 OFFCURVE",
"672 1 OFFCURVE",
"627 1 CURVE SMOOTH",
"584 1 OFFCURVE",
"564 15 OFFCURVE",
"564 54 CURVE SMOOTH",
"564 321 LINE",
"525 348 OFFCURVE",
"404 368 OFFCURVE",
"325 373 CURVE",
"311 349 OFFCURVE",
"300 314 OFFCURVE",
"291 269 CURVE SMOOTH",
"273 178 OFFCURVE",
"256 76 OFFCURVE",
"224 23 CURVE",
"171 23 OFFCURVE",
"141 37 OFFCURVE",
"134 64 CURVE",
"147 82 OFFCURVE",
"164 146 OFFCURVE",
"185 256 CURVE SMOOTH",
"206 365 OFFCURVE",
"228 490 OFFCURVE",
"252 631 CURVE SMOOTH",
"300 912 OFFCURVE",
"353 1212 OFFCURVE",
"416 1401 CURVE SMOOTH",
"447 1496 OFFCURVE",
"477 1543 OFFCURVE",
"506 1543 CURVE SMOOTH",
"535 1543 OFFCURVE",
"557 1537 OFFCURVE",
"572 1525 CURVE"
);
}
);
width = 846;
}
);
note = Aring;
unicode = 00C5;
},
{
glyphname = Aringacute;
lastChange = "2015-11-01 09:31:29 +0000";
layers = (
{
layerId = "156B637B-193E-48A3-AAC8-7B4A3960F885";
name = "Bold Condensed";
paths = (
{
closed = 1;
nodes = (
"520 2239 OFFCURVE",
"569 2282 OFFCURVE",
"636 2339 CURVE SMOOTH",
"703 2396 OFFCURVE",
"743 2431 OFFCURVE",
"757 2444 CURVE",
"765 2447 OFFCURVE",
"771 2448 OFFCURVE",
"774 2448 CURVE SMOOTH",
"807 2448 OFFCURVE",
"841 2406 OFFCURVE",
"841 2371 CURVE SMOOTH",
"841 2357 OFFCURVE",
"836 2346 OFFCURVE",
"826 2339 CURVE SMOOTH",
"774 2301 OFFCURVE",
"675 2243 OFFCURVE",
"528 2166 CURVE",
"523 2163 OFFCURVE",
"517 2162 OFFCURVE",
"511 2162 CURVE SMOOTH",
"494 2162 OFFCURVE",
"478 2174 OFFCURVE",
"478 2189 CURVE SMOOTH",
"478 2196 OFFCURVE",
"482 2203 OFFCURVE",
"489 2210 CURVE SMOOTH"
);
},
{
closed = 1;
nodes = (
"469 1966 OFFCURVE",
"442 1905 OFFCURVE",
"442 1832 CURVE SMOOTH",
"442 1796 OFFCURVE",
"487 1747 OFFCURVE",
"535 1747 CURVE SMOOTH",
"583 1747 OFFCURVE",
"620 1767 OFFCURVE",
"637 1795 CURVE SMOOTH",
"653 1823 OFFCURVE",
"659 1848 OFFCURVE",
"659 1869 CURVE SMOOTH",
"659 1916 OFFCURVE",
"624 1966 OFFCURVE",
"537 1966 CURVE SMOOTH"
);
},
{
closed = 1;
nodes = (
"364 1969 OFFCURVE",
"430 2040 OFFCURVE",
"526 2040 CURVE SMOOTH",
"590 2040 OFFCURVE",
"641 2023 OFFCURVE",
"671 2000 CURVE SMOOTH",
"701 1976 OFFCURVE",
"720 1943 OFFCURVE",
"727 1915 CURVE SMOOTH",
"730 1901 OFFCURVE",
"732 1887 OFFCURVE",
"732 1874 CURVE SMOOTH",
"732 1846 OFFCURVE",
"728 1816 OFFCURVE",
"709 1777 CURVE SMOOTH",
"690 1737 OFFCURVE",
"664 1705 OFFCURVE",
"613 1684 CURVE SMOOTH",
"588 1673 OFFCURVE",
"559 1668 OFFCURVE",
"526 1668 CURVE SMOOTH",
"463 1668 OFFCURVE",
"417 1697 OFFCURVE",
"395 1741 CURVE SMOOTH",
"373 1785 OFFCURVE",
"364 1828 OFFCURVE",
"364 1873 CURVE SMOOTH"
);
},
{
closed = 1;
nodes = (
"494 1245 OFFCURVE",
"494 1251 OFFCURVE",
"495 1254 CURVE",
"452 1210 OFFCURVE",
"343 583 OFFCURVE",
"338 464 CURVE",
"395 449 OFFCURVE",
"455 441 OFFCURVE",
"520 441 CURVE SMOOTH",
"532 441 OFFCURVE",
"546 443 OFFCURVE",
"562 447 CURVE",
"560 474 OFFCURVE",
"553 549 OFFCURVE",
"541 670 CURVE SMOOTH",
"517 912 OFFCURVE",
"494 1161 OFFCURVE",
"494 1236 CURVE SMOOTH"
);
},
{
closed = 1;
nodes = (
"572 1476 OFFCURVE",
"585 1345 OFFCURVE",
"612 1130 CURVE SMOOTH",
"639 915 OFFCURVE",
"652 775 OFFCURVE",
"652 710 CURVE SMOOTH",
"652 649 OFFCURVE",
"659 546 OFFCURVE",
"674 400 CURVE SMOOTH",
"688 253 OFFCURVE",
"695 143 OFFCURVE",
"695 70 CURVE SMOOTH",
"695 24 OFFCURVE",
"672 1 OFFCURVE",
"627 1 CURVE SMOOTH",
"584 1 OFFCURVE",
"564 15 OFFCURVE",
"564 54 CURVE SMOOTH",
"564 321 LINE",
"525 348 OFFCURVE",
"404 368 OFFCURVE",
"325 373 CURVE",
"311 349 OFFCURVE",
"300 314 OFFCURVE",
"291 269 CURVE SMOOTH",
"273 178 OFFCURVE",
"256 76 OFFCURVE",
"224 23 CURVE",
"171 23 OFFCURVE",
"141 37 OFFCURVE",
"134 64 CURVE",
"147 82 OFFCURVE",
"164 146 OFFCURVE",
"185 256 CURVE SMOOTH",
"206 365 OFFCURVE",
"228 490 OFFCURVE",
"252 631 CURVE SMOOTH",
"300 912 OFFCURVE",
"353 1212 OFFCURVE",
"416 1401 CURVE SMOOTH",
"447 1496 OFFCURVE",
"477 1543 OFFCURVE",
"506 1543 CURVE SMOOTH",
"535 1543 OFFCURVE",
"557 1537 OFFCURVE",
"572 1525 CURVE"
);
}
);
width = 846;
}
);
note = Aringacute;
unicode = 01FA;
},
{
glyphname = Atilde;
lastChange = "2015-11-01 09:31:29 +0000";
layers = (
{
layerId = "156B637B-193E-48A3-AAC8-7B4A3960F885";
name = "Bold Condensed";
paths = (
{
closed = 1;
nodes = (
"741 1900 OFFCURVE",
"764 1875 OFFCURVE",
"764 1847 CURVE SMOOTH",
"764 1776 OFFCURVE",
"703 1715 OFFCURVE",
"632 1715 CURVE SMOOTH",
"560 1715 OFFCURVE",
"512 1737 OFFCURVE",
"494 1759 CURVE SMOOTH",
"476 1781 OFFCURVE",
"449 1802 OFFCURVE",
"414 1802 CURVE",
"393 1794 OFFCURVE",
"387 1777 OFFCURVE",
"390 1763 CURVE SMOOTH",
"393 1749 OFFCURVE",
"385 1731 OFFCURVE",
"361 1723 CURVE",
"320 1723 OFFCURVE",
"287 1743 OFFCURVE",
"287 1782 CURVE SMOOTH",
"287 1847 OFFCURVE",
"344 1901 OFFCURVE",
"435 1901 CURVE SMOOTH",
"452 1901 OFFCURVE",
"481 1887 OFFCURVE",
"524 1860 CURVE SMOOTH",
"567 1832 OFFCURVE",
"595 1818 OFFCURVE",
"608 1818 CURVE SMOOTH",
"635 1818 OFFCURVE",
"648 1839 OFFCURVE",
"652 1859 CURVE SMOOTH",
"656 1879 OFFCURVE",
"670 1900 OFFCURVE",
"697 1900 CURVE SMOOTH"
);
},
{
closed = 1;
nodes = (
"494 1245 OFFCURVE",
"494 1251 OFFCURVE",
"495 1254 CURVE",
"452 1210 OFFCURVE",
"343 583 OFFCURVE",
"338 464 CURVE",
"395 449 OFFCURVE",
"455 441 OFFCURVE",
"520 441 CURVE SMOOTH",
"532 441 OFFCURVE",
"546 443 OFFCURVE",
"562 447 CURVE",
"560 474 OFFCURVE",
"553 549 OFFCURVE",
"541 670 CURVE SMOOTH",
"517 912 OFFCURVE",
"494 1161 OFFCURVE",
"494 1236 CURVE SMOOTH"
);
},
{
closed = 1;
nodes = (
"572 1476 OFFCURVE",
"585 1345 OFFCURVE",
"612 1130 CURVE SMOOTH",
"639 915 OFFCURVE",
"652 775 OFFCURVE",
"652 710 CURVE SMOOTH",
"652 649 OFFCURVE",
"659 546 OFFCURVE",
"674 400 CURVE SMOOTH",
"688 253 OFFCURVE",
"695 143 OFFCURVE",
"695 70 CURVE SMOOTH",
"695 24 OFFCURVE",
"672 1 OFFCURVE",
"627 1 CURVE SMOOTH",
"584 1 OFFCURVE",
"564 15 OFFCURVE",
"564 54 CURVE SMOOTH",
"564 321 LINE",
"525 348 OFFCURVE",
"404 368 OFFCURVE",
"325 373 CURVE",
"311 349 OFFCURVE",
"300 314 OFFCURVE",
"291 269 CURVE SMOOTH",
"273 178 OFFCURVE",
"256 76 OFFCURVE",
"224 23 CURVE",
"171 23 OFFCURVE",
"141 37 OFFCURVE",
"134 64 CURVE",
"147 82 OFFCURVE",
"164 146 OFFCURVE",
"185 256 CURVE SMOOTH",
"206 365 OFFCURVE",
"228 490 OFFCURVE",
"252 631 CURVE SMOOTH",
"300 912 OFFCURVE",
"353 1212 OFFCURVE",
"416 1401 CURVE SMOOTH",
"447 1496 OFFCURVE",
"477 1543 OFFCURVE",
"506 1543 CURVE SMOOTH",
"535 1543 OFFCURVE",
"557 1537 OFFCURVE",
"572 1525 CURVE"
);
}
);
width = 846;
}
);
note = Atilde;
unicode = 00C3;
},
{
glyphname = AE;
lastChange = "2015-11-01 09:31:29 +0000";
layers = (
{
layerId = "156B637B-193E-48A3-AAC8-7B4A3960F885";
name = "Bold Condensed";
paths = (
{
closed = 1;
nodes = (
"522 2 LINE",
"524 3 LINE",
"535 120 OFFCURVE",
"541 204 OFFCURVE",
"541 253 CURVE SMOOTH",
"541 295 OFFCURVE",
"539 358 OFFCURVE",
"536 443 CURVE SMOOTH",
"533 528 OFFCURVE",
"531 591 OFFCURVE",
"531 633 CURVE",
"521 632 OFFCURVE",
"507 632 OFFCURVE",
"488 631 CURVE SMOOTH",
"450 629 OFFCURVE",
"431 627 OFFCURVE",
"399 622 CURVE SMOOTH",
"382 619 OFFCURVE",
"367 616 OFFCURVE",
"354 611 CURVE",
"253 226 LINE",
"252 220 OFFCURVE",
"248 202 OFFCURVE",
"243 172 CURVE SMOOTH",
"231 112 OFFCURVE",
"224 71 OFFCURVE",
"200 31 CURVE",
"187 11 OFFCURVE",
"173 1 OFFCURVE",
"158 1 CURVE SMOOTH",
"137 1 OFFCURVE",
"118 25 OFFCURVE",
"118 48 CURVE SMOOTH",
"118 113 OFFCURVE",
"137 225 OFFCURVE",
"174 372 CURVE SMOOTH",
"210 519 OFFCURVE",
"243 639 OFFCURVE",
"297 819 CURVE SMOOTH",
"351 998 OFFCURVE",
"373 1074 OFFCURVE",
"424 1235 CURVE SMOOTH",
"449 1315 OFFCURVE",
"465 1363 OFFCURVE",
"470 1380 CURVE",
"470 1381 OFFCURVE",
"483 1429 OFFCURVE",
"487 1439 CURVE SMOOTH",
"489 1444 OFFCURVE",
"493 1453 OFFCURVE",
"498 1468 CURVE SMOOTH",
"503 1482 OFFCURVE",
"509 1492 OFFCURVE",
"514 1498 CURVE SMOOTH",
"519 1504 OFFCURVE",
"525 1512 OFFCURVE",
"532 1521 CURVE SMOOTH",
"547 1539 OFFCURVE",
"565 1544 OFFCURVE",
"586 1544 CURVE SMOOTH",
"603 1544 OFFCURVE",
"630 1546 OFFCURVE",
"665 1549 CURVE SMOOTH",
"700 1552 OFFCURVE",
"727 1554 OFFCURVE",
"744 1554 CURVE SMOOTH",
"802 1554 OFFCURVE",
"831 1535 OFFCURVE",
"831 1498 CURVE SMOOTH",
"831 1492 LINE",
"810 1450 LINE",
"741 1450 OFFCURVE",
"677 1447 OFFCURVE",
"616 1440 CURVE",
"617 1413 OFFCURVE",
"619 1369 OFFCURVE",
"624 1308 CURVE SMOOTH",
"628 1247 OFFCURVE",
"630 1199 OFFCURVE",
"630 1166 CURVE SMOOTH",
"630 1116 OFFCURVE",
"629 1041 OFFCURVE",
"627 941 CURVE SMOOTH",
"625 841 OFFCURVE",
"624 766 OFFCURVE",
"624 716 CURVE",
"637 717 OFFCURVE",
"661 721 OFFCURVE",
"694 727 CURVE SMOOTH",
"727 732 OFFCURVE",
"753 735 OFFCURVE",
"772 735 CURVE SMOOTH",
"782 735 LINE",
"824 687 LINE",
"824 643 OFFCURVE",
"786 621 OFFCURVE",
"711 621 CURVE SMOOTH",
"702 621 LINE",
"623 622 LINE",
"623 571 OFFCURVE",
"624 484 OFFCURVE",
"626 363 CURVE SMOOTH",
"628 241 OFFCURVE",
"629 147 OFFCURVE",
"629 82 CURVE",
"654 82 OFFCURVE",
"691 86 OFFCURVE",
"742 93 CURVE SMOOTH",
"792 100 OFFCURVE",
"830 103 OFFCURVE",
"856 103 CURVE SMOOTH",
"889 103 OFFCURVE",
"924 84 OFFCURVE",
"924 53 CURVE SMOOTH",
"924 10 OFFCURVE",
"843 -12 OFFCURVE",
"680 -12 CURVE SMOOTH",
"648 -12 LINE SMOOTH",
"637 -12 OFFCURVE",
"623 -17 OFFCURVE",
"606 -26 CURVE",
"589 -36 OFFCURVE",
"576 -42 OFFCURVE",
"567 -43 CURVE"
);
},
{
closed = 1;
nodes = (
"528 739 OFFCURVE",
"529 808 OFFCURVE",
"532 912 CURVE SMOOTH",
"534 1016 OFFCURVE",
"535 1096 OFFCURVE",
"535 1153 CURVE SMOOTH",
"535 1211 OFFCURVE",
"534 1254 OFFCURVE",
"533 1283 CURVE",
"458 1032 OFFCURVE",
"405 833 OFFCURVE",
"374 688 CURVE",
"439 692 OFFCURVE",
"490 698 OFFCURVE",
"527 706 CURVE"
);
}
);
width = 1026;
}
);
note = AE;
unicode = 00C6;
},
{
glyphname = AEacute;
lastChange = "2015-11-01 09:31:29 +0000";
layers = (
{
layerId = "156B637B-193E-48A3-AAC8-7B4A3960F885";
name = "Bold Condensed";
paths = (
{
closed = 1;
nodes = (
"737 1784 OFFCURVE",
"786 1827 OFFCURVE",
"853 1884 CURVE SMOOTH",
"920 1941 OFFCURVE",
"960 1976 OFFCURVE",
"974 1989 CURVE",
"982 1992 OFFCURVE",
"988 1993 OFFCURVE",
"991 1993 CURVE SMOOTH",
"1024 1993 OFFCURVE",
"1058 1951 OFFCURVE",
"1058 1916 CURVE SMOOTH",
"1058 1902 OFFCURVE",
"1053 1891 OFFCURVE",
"1043 1884 CURVE SMOOTH",
"991 1846 OFFCURVE",
"892 1788 OFFCURVE",
"745 1711 CURVE",
"740 1708 OFFCURVE",
"734 1707 OFFCURVE",
"728 1707 CURVE SMOOTH",
"711 1707 OFFCURVE",
"695 1719 OFFCURVE",
"695 1734 CURVE SMOOTH",
"695 1741 OFFCURVE",
"699 1748 OFFCURVE",
"706 1755 CURVE SMOOTH"
);
},
{
closed = 1;
nodes = (
"522 2 LINE",
"524 3 LINE",
"535 120 OFFCURVE",
"541 204 OFFCURVE",
"541 253 CURVE SMOOTH",
"541 295 OFFCURVE",
"539 358 OFFCURVE",
"536 443 CURVE SMOOTH",
"533 528 OFFCURVE",
"531 591 OFFCURVE",
"531 633 CURVE",
"521 632 OFFCURVE",
"507 632 OFFCURVE",
"488 631 CURVE SMOOTH",
"450 629 OFFCURVE",
"431 627 OFFCURVE",
"399 622 CURVE SMOOTH",
"382 619 OFFCURVE",
"367 616 OFFCURVE",
"354 611 CURVE",
"253 226 LINE",
"252 220 OFFCURVE",
"248 202 OFFCURVE",
"243 172 CURVE SMOOTH",
"231 112 OFFCURVE",
"224 71 OFFCURVE",
"200 31 CURVE",
"187 11 OFFCURVE",
"173 1 OFFCURVE",
"158 1 CURVE SMOOTH",
"137 1 OFFCURVE",
"118 25 OFFCURVE",
"118 48 CURVE SMOOTH",
"118 113 OFFCURVE",
"137 225 OFFCURVE",
"174 372 CURVE SMOOTH",
"210 519 OFFCURVE",
"243 639 OFFCURVE",
"297 819 CURVE SMOOTH",
"351 998 OFFCURVE",
"373 1074 OFFCURVE",
"424 1235 CURVE SMOOTH",
"449 1315 OFFCURVE",
"465 1363 OFFCURVE",
"470 1380 CURVE",
"470 1381 OFFCURVE",
"483 1429 OFFCURVE",
"487 1439 CURVE SMOOTH",
"489 1444 OFFCURVE",
"493 1453 OFFCURVE",
"498 1468 CURVE SMOOTH",
"503 1482 OFFCURVE",
"509 1492 OFFCURVE",
"514 1498 CURVE SMOOTH",
"519 1504 OFFCURVE",
"525 1512 OFFCURVE",
"532 1521 CURVE SMOOTH",
"547 1539 OFFCURVE",
"565 1544 OFFCURVE",
"586 1544 CURVE SMOOTH",
"603 1544 OFFCURVE",
"630 1546 OFFCURVE",
"665 1549 CURVE SMOOTH",
"700 1552 OFFCURVE",
"727 1554 OFFCURVE",
"744 1554 CURVE SMOOTH",
"802 1554 OFFCURVE",
"831 1535 OFFCURVE",
"831 1498 CURVE SMOOTH",
"831 1492 LINE",
"810 1450 LINE",
"741 1450 OFFCURVE",
"677 1447 OFFCURVE",
"616 1440 CURVE",
"617 1413 OFFCURVE",
"619 1369 OFFCURVE",
"624 1308 CURVE SMOOTH",
"628 1247 OFFCURVE",
"630 1199 OFFCURVE",
"630 1166 CURVE SMOOTH",
"630 1116 OFFCURVE",
"629 1041 OFFCURVE",
"627 941 CURVE SMOOTH",
"625 841 OFFCURVE",
"624 766 OFFCURVE",
"624 716 CURVE",
"637 717 OFFCURVE",
"661 721 OFFCURVE",
"694 727 CURVE SMOOTH",
"727 732 OFFCURVE",
"753 735 OFFCURVE",
"772 735 CURVE SMOOTH",
"782 735 LINE",
"824 687 LINE",
"824 643 OFFCURVE",
"786 621 OFFCURVE",
"711 621 CURVE SMOOTH",
"702 621 LINE",
"623 622 LINE",
"623 571 OFFCURVE",
"624 484 OFFCURVE",
"626 363 CURVE SMOOTH",
"628 241 OFFCURVE",
"629 147 OFFCURVE",
"629 82 CURVE",
"654 82 OFFCURVE",
"691 86 OFFCURVE",
"742 93 CURVE SMOOTH",
"792 100 OFFCURVE",
"830 103 OFFCURVE",
"856 103 CURVE SMOOTH",
"889 103 OFFCURVE",
"924 84 OFFCURVE",
"924 53 CURVE SMOOTH",
"924 10 OFFCURVE",
"843 -12 OFFCURVE",
"680 -12 CURVE SMOOTH",
"648 -12 LINE SMOOTH",
"637 -12 OFFCURVE",
"623 -17 OFFCURVE",
"606 -26 CURVE",
"589 -36 OFFCURVE",
"576 -42 OFFCURVE",
"567 -43 CURVE"
);
},
{
closed = 1;
nodes = (
"528 739 OFFCURVE",
"529 808 OFFCURVE",
"532 912 CURVE SMOOTH",
"534 1016 OFFCURVE",
"535 1096 OFFCURVE",
"535 1153 CURVE SMOOTH",
"535 1211 OFFCURVE",
"534 1254 OFFCURVE",
"533 1283 CURVE",
"458 1032 OFFCURVE",
"405 833 OFFCURVE",
"374 688 CURVE",
"439 692 OFFCURVE",
"490 698 OFFCURVE",
"527 706 CURVE"
);
}
);
width = 1026;
}
);
note = AEacute;
unicode = 01FC;
},
{
glyphname = B;
lastChange = "2015-11-01 09:31:29 +0000";
layers = (
{
layerId = "156B637B-193E-48A3-AAC8-7B4A3960F885";
name = "Bold Condensed";
paths = (
{
closed = 1;
nodes = (
"635 333 OFFCURVE",
"622 272 OFFCURVE",
"587 197 CURVE SMOOTH",
"551 122 OFFCURVE",
"505 58 OFFCURVE",
"424 15 CURVE SMOOTH",
"383 -6 OFFCURVE",
"339 -17 OFFCURVE",
"290 -17 CURVE SMOOTH",
"282 -17 LINE SMOOTH",
"218 -17 OFFCURVE",
"186 0 OFFCURVE",
"186 34 CURVE SMOOTH",
"186 90 OFFCURVE",
"188 174 OFFCURVE",
"191 286 CURVE SMOOTH",
"194 398 OFFCURVE",
"196 482 OFFCURVE",
"196 538 CURVE SMOOTH",
"196 630 OFFCURVE",
"194 769 OFFCURVE",
"189 954 CURVE SMOOTH",
"184 1139 OFFCURVE",
"182 1278 OFFCURVE",
"182 1370 CURVE SMOOTH",
"182 1382 LINE SMOOTH",
"182 1421 OFFCURVE",
"184 1444 OFFCURVE",
"193 1480 CURVE SMOOTH",
"201 1516 OFFCURVE",
"224 1537 OFFCURVE",
"259 1537 CURVE SMOOTH",
"454 1537 OFFCURVE",
"569 1398 OFFCURVE",
"569 1201 CURVE SMOOTH",
"569 1077 OFFCURVE",
"494 924 OFFCURVE",
"403 859 CURVE",
"570 747 OFFCURVE",
"635 563 OFFCURVE",
"635 374 CURVE SMOOTH"
);
},
{
closed = 1;
nodes = (
"529 498 OFFCURVE",
"505 608 OFFCURVE",
"474 661 CURVE SMOOTH",
"443 714 OFFCURVE",
"410 751 OFFCURVE",
"389 762 CURVE",
"373 769 LINE",
"300 769 LINE",
"307 580 OFFCURVE",
"310 354 OFFCURVE",
"310 90 CURVE",
"447 111 OFFCURVE",
"529 226 OFFCURVE",
"529 369 CURVE SMOOTH"
);
},
{
closed = 1;
nodes = (
"303 1421 OFFCURVE",
"293 1400 OFFCURVE",
"293 1357 CURVE SMOOTH",
"293 1302 OFFCURVE",
"294 1222 OFFCURVE",
"297 1117 CURVE SMOOTH",
"300 1012 OFFCURVE",
"301 935 OFFCURVE",
"301 888 CURVE",
"336 896 OFFCURVE",
"368 928 OFFCURVE",
"392 977 CURVE SMOOTH",
"416 1025 OFFCURVE",
"430 1061 OFFCURVE",
"449 1117 CURVE SMOOTH",
"458 1145 OFFCURVE",
"465 1164 OFFCURVE",
"469 1173 CURVE",
"469 1246 LINE SMOOTH",
"469 1326 OFFCURVE",
"399 1421 OFFCURVE",
"322 1421 CURVE SMOOTH"
);
}
);
width = 774;
}
);
note = B;
unicode = 0042;
},
{
glyphname = C;
lastChange = "2015-11-01 09:31:29 +0000";
layers = (
{
layerId = "156B637B-193E-48A3-AAC8-7B4A3960F885";
name = "Bold Condensed";
paths = (
{
closed = 1;
nodes = (
"699 166 OFFCURVE",
"719 156 OFFCURVE",
"740 135 CURVE",
"740 84 OFFCURVE",
"717 43 OFFCURVE",
"683 19 CURVE SMOOTH",
"649 -5 OFFCURVE",
"600 -22 OFFCURVE",
"556 -28 CURVE SMOOTH",
"534 -31 OFFCURVE",
"512 -33 OFFCURVE",
"489 -33 CURVE SMOOTH",
"409 -33 OFFCURVE",
"344 8 OFFCURVE",
"301 66 CURVE SMOOTH",
"258 124 OFFCURVE",
"226 223 OFFCURVE",
"208 313 CURVE SMOOTH",
"190 403 OFFCURVE",
"180 533 OFFCURVE",
"177 630 CURVE SMOOTH",
"175 678 OFFCURVE",
"174 732 OFFCURVE",
"174 792 CURVE SMOOTH",
"174 823 OFFCURVE",
"174 867 OFFCURVE",
"175 922 CURVE SMOOTH",
"176 977 OFFCURVE",
"176 1015 OFFCURVE",
"176 1037 CURVE SMOOTH",
"176 1115 OFFCURVE",
"181 1178 OFFCURVE",
"190 1226 CURVE",
"186 1248 OFFCURVE",
"184 1269 OFFCURVE",
"184 1290 CURVE SMOOTH",
"184 1458 OFFCURVE",
"326 1565 OFFCURVE",
"510 1565 CURVE SMOOTH",
"575 1565 OFFCURVE",
"653 1525 OFFCURVE",
"653 1465 CURVE SMOOTH",
"653 1436 OFFCURVE",
"627 1419 OFFCURVE",
"596 1419 CURVE SMOOTH",
"571 1419 OFFCURVE",
"532 1428 OFFCURVE",
"523 1444 CURVE",
"523 1443 LINE",
"495 1443 LINE",
"495 1448 LINE",
"440 1448 OFFCURVE",
"397 1434 OFFCURVE",
"369 1415 CURVE SMOOTH",
"341 1395 OFFCURVE",
"321 1357 OFFCURVE",
"311 1327 CURVE SMOOTH",
"301 1297 OFFCURVE",
"295 1239 OFFCURVE",
"294 1206 CURVE SMOOTH",
"293 1189 OFFCURVE",
"293 1167 OFFCURVE",
"293 1140 CURVE SMOOTH",
"293 1124 OFFCURVE",
"294 1100 OFFCURVE",
"296 1069 CURVE SMOOTH",
"298 1038 OFFCURVE",
"299 1014 OFFCURVE",
"299 999 CURVE SMOOTH",
"299 983 OFFCURVE",
"296 959 OFFCURVE",
"290 928 CURVE SMOOTH",
"284 896 OFFCURVE",
"281 872 OFFCURVE",
"281 856 CURVE SMOOTH",
"281 807 LINE SMOOTH",
"281 726 OFFCURVE",
"282 680 OFFCURVE",
"286 588 CURVE SMOOTH",
"289 495 OFFCURVE",
"298 435 OFFCURVE",
"313 354 CURVE SMOOTH",
"328 273 OFFCURVE",
"351 220 OFFCURVE",
"383 169 CURVE SMOOTH",
"415 118 OFFCURVE",
"461 93 OFFCURVE",
"516 93 CURVE SMOOTH",
"539 93 OFFCURVE",
"568 105 OFFCURVE",
"603 130 CURVE SMOOTH",
"638 154 OFFCURVE",
"663 166 OFFCURVE",
"680 166 CURVE SMOOTH"
);
}
);
width = 918;
}
);
note = C;
unicode = 0043;
},
{
glyphname = Cacute;
lastChange = "2015-11-01 09:31:29 +0000";
layers = (
{
layerId = "156B637B-193E-48A3-AAC8-7B4A3960F885";
name = "Bold Condensed";
paths = (
{
closed = 1;
nodes = (
"485 1735 OFFCURVE",
"534 1778 OFFCURVE",
"601 1835 CURVE SMOOTH",
"668 1892 OFFCURVE",
"708 1927 OFFCURVE",
"722 1940 CURVE",
"730 1943 OFFCURVE",
"736 1944 OFFCURVE",
"739 1944 CURVE SMOOTH",
"772 1944 OFFCURVE",
"806 1902 OFFCURVE",
"806 1867 CURVE SMOOTH",
"806 1853 OFFCURVE",
"801 1842 OFFCURVE",
"791 1835 CURVE SMOOTH",
"739 1797 OFFCURVE",
"640 1739 OFFCURVE",
"493 1662 CURVE",
"488 1659 OFFCURVE",
"482 1658 OFFCURVE",
"476 1658 CURVE SMOOTH",
"459 1658 OFFCURVE",
"443 1670 OFFCURVE",
"443 1685 CURVE SMOOTH",
"443 1692 OFFCURVE",
"447 1699 OFFCURVE",
"454 1706 CURVE SMOOTH"
);
},
{
closed = 1;
nodes = (
"699 166 OFFCURVE",
"719 156 OFFCURVE",
"740 135 CURVE",
"740 84 OFFCURVE",
"717 43 OFFCURVE",
"683 19 CURVE SMOOTH",
"649 -5 OFFCURVE",
"600 -22 OFFCURVE",
"556 -28 CURVE SMOOTH",
"534 -31 OFFCURVE",
"512 -33 OFFCURVE",
"489 -33 CURVE SMOOTH",
"409 -33 OFFCURVE",
"344 8 OFFCURVE",
"301 66 CURVE SMOOTH",
"258 124 OFFCURVE",
"226 223 OFFCURVE",
"208 313 CURVE SMOOTH",
"190 403 OFFCURVE",
"180 533 OFFCURVE",
"177 630 CURVE SMOOTH",
"175 678 OFFCURVE",
"174 732 OFFCURVE",
"174 792 CURVE SMOOTH",
"174 823 OFFCURVE",
"174 867 OFFCURVE",
"175 922 CURVE SMOOTH",
"176 977 OFFCURVE",
"176 1015 OFFCURVE",
"176 1037 CURVE SMOOTH",
"176 1115 OFFCURVE",
"181 1178 OFFCURVE",
"190 1226 CURVE",
"186 1248 OFFCURVE",
"184 1269 OFFCURVE",
"184 1290 CURVE SMOOTH",
"184 1458 OFFCURVE",
"326 1565 OFFCURVE",
"510 1565 CURVE SMOOTH",
"575 1565 OFFCURVE",
"653 1525 OFFCURVE",
"653 1465 CURVE SMOOTH",
"653 1436 OFFCURVE",
"627 1419 OFFCURVE",
"596 1419 CURVE SMOOTH",
"571 1419 OFFCURVE",
"532 1428 OFFCURVE",
"523 1444 CURVE",
"523 1443 LINE",
"495 1443 LINE",
"495 1448 LINE",
"440 1448 OFFCURVE",
"397 1434 OFFCURVE",
"369 1415 CURVE SMOOTH",
"341 1395 OFFCURVE",
"321 1357 OFFCURVE",
"311 1327 CURVE SMOOTH",
"301 1297 OFFCURVE",
"295 1239 OFFCURVE",
"294 1206 CURVE SMOOTH",
"293 1189 OFFCURVE",
"293 1167 OFFCURVE",
"293 1140 CURVE SMOOTH",
"293 1124 OFFCURVE",
"294 1100 OFFCURVE",
"296 1069 CURVE SMOOTH",
"298 1038 OFFCURVE",
"299 1014 OFFCURVE",
"299 999 CURVE SMOOTH",
"299 983 OFFCURVE",
"296 959 OFFCURVE",
"290 928 CURVE SMOOTH",
"284 896 OFFCURVE",
"281 872 OFFCURVE",
"281 856 CURVE SMOOTH",
"281 807 LINE SMOOTH",
"281 726 OFFCURVE",
"282 680 OFFCURVE",
"286 588 CURVE SMOOTH",
"289 495 OFFCURVE",
"298 435 OFFCURVE",
"313 354 CURVE SMOOTH",
"328 273 OFFCURVE",
"351 220 OFFCURVE",
"383 169 CURVE SMOOTH",
"415 118 OFFCURVE",
"461 93 OFFCURVE",
"516 93 CURVE SMOOTH",
"539 93 OFFCURVE",
"568 105 OFFCURVE",
"603 130 CURVE SMOOTH",
"638 154 OFFCURVE",
"663 166 OFFCURVE",
"680 166 CURVE SMOOTH"
);
}
);
width = 918;
}
);
note = Cacute;
unicode = 0106;
},
{
glyphname = Ccaron;
lastChange = "2015-11-01 09:31:29 +0000";
layers = (
{
layerId = "156B637B-193E-48A3-AAC8-7B4A3960F885";
name = "Bold Condensed";
paths = (
{
closed = 1;
nodes = (
"285 2074 OFFCURVE",
"309 2092 OFFCURVE",
"334 2092 CURVE SMOOTH",
"350 2092 OFFCURVE",
"367 2073 OFFCURVE",
"384 2034 CURVE SMOOTH",
"401 1995 OFFCURVE",
"418 1944 OFFCURVE",
"436 1881 CURVE SMOOTH",
"462 1787 LINE",
"465 1802 OFFCURVE",
"468 1825 OFFCURVE",
"471 1856 CURVE SMOOTH",
"478 1919 OFFCURVE",
"483 1964 OFFCURVE",
"495 2016 CURVE SMOOTH",
"506 2068 OFFCURVE",
"525 2099 OFFCURVE",
"552 2099 CURVE SMOOTH",
"576 2099 OFFCURVE",
"595 2083 OFFCURVE",
"595 2056 CURVE SMOOTH",
"595 2052 OFFCURVE",
"593 2047 OFFCURVE",
"588 2040 CURVE SMOOTH",
"583 2033 OFFCURVE",
"581 2028 OFFCURVE",
"580 2025 CURVE",
"580 1988 LINE",
"551 1876 LINE SMOOTH",
"532 1801 OFFCURVE",
"522 1753 OFFCURVE",
"522 1730 CURVE SMOOTH",
"522 1686 OFFCURVE",
"505 1664 OFFCURVE",
"470 1664 CURVE SMOOTH",
"417 1664 OFFCURVE",
"285 1977 OFFCURVE",
"285 2053 CURVE SMOOTH"
);
},
{
closed = 1;
nodes = (
"699 166 OFFCURVE",
"719 156 OFFCURVE",
"740 135 CURVE",
"740 84 OFFCURVE",
"717 43 OFFCURVE",
"683 19 CURVE SMOOTH",
"649 -5 OFFCURVE",
"600 -22 OFFCURVE",
"556 -28 CURVE SMOOTH",
"534 -31 OFFCURVE",
"512 -33 OFFCURVE",
"489 -33 CURVE SMOOTH",
"409 -33 OFFCURVE",
"344 8 OFFCURVE",
"301 66 CURVE SMOOTH",
"258 124 OFFCURVE",
"226 223 OFFCURVE",
"208 313 CURVE SMOOTH",
"190 403 OFFCURVE",
"180 533 OFFCURVE",
"177 630 CURVE SMOOTH",
"175 678 OFFCURVE",
"174 732 OFFCURVE",
"174 792 CURVE SMOOTH",
"174 823 OFFCURVE",
"174 867 OFFCURVE",
"175 922 CURVE SMOOTH",
"176 977 OFFCURVE",
"176 1015 OFFCURVE",
"176 1037 CURVE SMOOTH",
"176 1115 OFFCURVE",
"181 1178 OFFCURVE",
"190 1226 CURVE",
"186 1248 OFFCURVE",
"184 1269 OFFCURVE",
"184 1290 CURVE SMOOTH",
"184 1458 OFFCURVE",
"326 1565 OFFCURVE",
"510 1565 CURVE SMOOTH",
"575 1565 OFFCURVE",
"653 1525 OFFCURVE",
"653 1465 CURVE SMOOTH",
"653 1436 OFFCURVE",
"627 1419 OFFCURVE",
"596 1419 CURVE SMOOTH",
"571 1419 OFFCURVE",
"532 1428 OFFCURVE",
"523 1444 CURVE",
"523 1443 LINE",
"495 1443 LINE",
"495 1448 LINE",
"440 1448 OFFCURVE",
"397 1434 OFFCURVE",
"369 1415 CURVE SMOOTH",
"341 1395 OFFCURVE",
"321 1357 OFFCURVE",
"311 1327 CURVE SMOOTH",
"301 1297 OFFCURVE",
"295 1239 OFFCURVE",
"294 1206 CURVE SMOOTH",
"293 1189 OFFCURVE",
"293 1167 OFFCURVE",
"293 1140 CURVE SMOOTH",
"293 1124 OFFCURVE",
"294 1100 OFFCURVE",
"296 1069 CURVE SMOOTH",
"298 1038 OFFCURVE",
"299 1014 OFFCURVE",
"299 999 CURVE SMOOTH",
"299 983 OFFCURVE",
"296 959 OFFCURVE",
"290 928 CURVE SMOOTH",
"284 896 OFFCURVE",
"281 872 OFFCURVE",
"281 856 CURVE SMOOTH",
"281 807 LINE SMOOTH",
"281 726 OFFCURVE",
"282 680 OFFCURVE",
"286 588 CURVE SMOOTH",
"289 495 OFFCURVE",
"298 435 OFFCURVE",
"313 354 CURVE SMOOTH",
"328 273 OFFCURVE",
"351 220 OFFCURVE",
"383 169 CURVE SMOOTH",
"415 118 OFFCURVE",
"461 93 OFFCURVE",
"516 93 CURVE SMOOTH",
"539 93 OFFCURVE",
"568 105 OFFCURVE",
"603 130 CURVE SMOOTH",
"638 154 OFFCURVE",
"663 166 OFFCURVE",
"680 166 CURVE SMOOTH"
);
}
);
width = 918;
}
);
note = Ccaron;
unicode = 010C;
},
{
glyphname = Ccedilla;
lastChange = "2015-11-01 09:31:29 +0000";
layers = (
{
layerId = "156B637B-193E-48A3-AAC8-7B4A3960F885";
name = "Bold Condensed";
paths = (
{
closed = 1;
nodes = (
"547 -160 OFFCURVE",
"538 -161 OFFCURVE",
"526 -163 CURVE",
"513 -166 OFFCURVE",
"504 -167 OFFCURVE",
"498 -167 CURVE SMOOTH",
"477 -167 OFFCURVE",
"459 -153 OFFCURVE",
"442 -126 CURVE",
"453 -100 OFFCURVE",
"459 -61 OFFCURVE",
"459 -9 CURVE SMOOTH",
"459 14 LINE",
"518 22 LINE",
"513 -9 OFFCURVE",
"510 -44 OFFCURVE",
"510 -81 CURVE",
"609 -88 OFFCURVE",
"659 -156 OFFCURVE",
"659 -287 CURVE SMOOTH",
"659 -351 OFFCURVE",
"587 -449 OFFCURVE",
"504 -449 CURVE SMOOTH",
"465 -449 OFFCURVE",
"416 -429 OFFCURVE",
"416 -394 CURVE SMOOTH",
"416 -380 OFFCURVE",
"423 -373 OFFCURVE",
"438 -373 CURVE SMOOTH",
"446 -373 OFFCURVE",
"457 -376 OFFCURVE",
"471 -383 CURVE SMOOTH",
"485 -390 OFFCURVE",
"496 -394 OFFCURVE",
"504 -394 CURVE SMOOTH",
"552 -394 OFFCURVE",
"584 -324 OFFCURVE",
"584 -251 CURVE SMOOTH",
"584 -206 OFFCURVE",
"574 -176 OFFCURVE",
"553 -160 CURVE"
);
},
{
closed = 1;
nodes = (
"699 166 OFFCURVE",
"719 156 OFFCURVE",
"740 135 CURVE",
"740 84 OFFCURVE",
"717 43 OFFCURVE",
"683 19 CURVE SMOOTH",
"649 -5 OFFCURVE",
"600 -22 OFFCURVE",
"556 -28 CURVE SMOOTH",
"534 -31 OFFCURVE",
"512 -33 OFFCURVE",
"489 -33 CURVE SMOOTH",
"409 -33 OFFCURVE",
"344 8 OFFCURVE",
"301 66 CURVE SMOOTH",
"258 124 OFFCURVE",
"226 223 OFFCURVE",
"208 313 CURVE SMOOTH",
"190 403 OFFCURVE",
"180 533 OFFCURVE",
"177 630 CURVE SMOOTH",
"175 678 OFFCURVE",
"174 732 OFFCURVE",
"174 792 CURVE SMOOTH",
"174 823 OFFCURVE",
"174 867 OFFCURVE",
"175 922 CURVE SMOOTH",
"176 977 OFFCURVE",
"176 1015 OFFCURVE",
"176 1037 CURVE SMOOTH",
"176 1115 OFFCURVE",
"181 1178 OFFCURVE",
"190 1226 CURVE",
"186 1248 OFFCURVE",
"184 1269 OFFCURVE",
"184 1290 CURVE SMOOTH",
"184 1458 OFFCURVE",
"326 1565 OFFCURVE",
"510 1565 CURVE SMOOTH",
"575 1565 OFFCURVE",
"653 1525 OFFCURVE",
"653 1465 CURVE SMOOTH",
"653 1436 OFFCURVE",
"627 1419 OFFCURVE",
"596 1419 CURVE SMOOTH",
"571 1419 OFFCURVE",
"532 1428 OFFCURVE",
"523 1444 CURVE",
"523 1443 LINE",
"495 1443 LINE",
"495 1448 LINE",
"440 1448 OFFCURVE",
"397 1434 OFFCURVE",
"369 1415 CURVE SMOOTH",
"341 1395 OFFCURVE",
"321 1357 OFFCURVE",
"311 1327 CURVE SMOOTH",
"301 1297 OFFCURVE",
"295 1239 OFFCURVE",
"294 1206 CURVE SMOOTH",
"293 1189 OFFCURVE",
"293 1167 OFFCURVE",
"293 1140 CURVE SMOOTH",
"293 1124 OFFCURVE",
"294 1100 OFFCURVE",
"296 1069 CURVE SMOOTH",
"298 1038 OFFCURVE",
"299 1014 OFFCURVE",
"299 999 CURVE SMOOTH",
"299 983 OFFCURVE",
"296 959 OFFCURVE",
"290 928 CURVE SMOOTH",
"284 896 OFFCURVE",
"281 872 OFFCURVE",
"281 856 CURVE SMOOTH",
"281 807 LINE SMOOTH",
"281 726 OFFCURVE",
"282 680 OFFCURVE",
"286 588 CURVE SMOOTH",
"289 495 OFFCURVE",
"298 435 OFFCURVE",
"313 354 CURVE SMOOTH",
"328 273 OFFCURVE",
"351 220 OFFCURVE",
"383 169 CURVE SMOOTH",
"415 118 OFFCURVE",
"461 93 OFFCURVE",
"516 93 CURVE SMOOTH",
"539 93 OFFCURVE",
"568 105 OFFCURVE",
"603 130 CURVE SMOOTH",
"638 154 OFFCURVE",
"663 166 OFFCURVE",
"680 166 CURVE SMOOTH"
);
}
);
width = 918;
}
);
note = Ccedilla;
unicode = 00C7;
},
{
glyphname = Ccircumflex;
lastChange = "2015-11-01 09:31:29 +0000";
layers = (
{
layerId = "156B637B-193E-48A3-AAC8-7B4A3960F885";
name = "Bold Condensed";
paths = (
{
closed = 1;
nodes = (
"367 1724 LINE",
"363 1715 OFFCURVE",
"353 1710 OFFCURVE",
"338 1710 CURVE SMOOTH",
"311 1710 OFFCURVE",
"286 1725 OFFCURVE",
"286 1750 CURVE SMOOTH",
"286 1757 OFFCURVE",
"287 1763 OFFCURVE",
"290 1769 CURVE",
"315 1829 OFFCURVE",
"348 1913 OFFCURVE",
"363 1950 CURVE SMOOTH",
"378 1987 OFFCURVE",
"400 2038 OFFCURVE",
"412 2058 CURVE SMOOTH",
"424 2078 OFFCURVE",
"442 2100 OFFCURVE",
"459 2107 CURVE SMOOTH",
"467 2110 OFFCURVE",
"476 2112 OFFCURVE",
"487 2112 CURVE SMOOTH",
"497 2112 OFFCURVE",
"507 2105 OFFCURVE",
"516 2092 CURVE SMOOTH",
"535 2065 OFFCURVE",
"554 2005 OFFCURVE",
"568 1954 CURVE SMOOTH",
"575 1928 OFFCURVE",
"583 1895 OFFCURVE",
"594 1855 CURVE SMOOTH",
"604 1814 OFFCURVE",
"613 1782 OFFCURVE",
"620 1757 CURVE SMOOTH",
"622 1750 OFFCURVE",
"623 1744 OFFCURVE",
"623 1739 CURVE SMOOTH",
"623 1711 OFFCURVE",
"600 1696 OFFCURVE",
"576 1696 CURVE SMOOTH",
"562 1696 OFFCURVE",
"553 1701 OFFCURVE",
"550 1710 CURVE",
"470 1986 LINE"
);
},
{
closed = 1;
nodes = (
"699 166 OFFCURVE",
"719 156 OFFCURVE",
"740 135 CURVE",
"740 84 OFFCURVE",
"717 43 OFFCURVE",
"683 19 CURVE SMOOTH",
"649 -5 OFFCURVE",
"600 -22 OFFCURVE",
"556 -28 CURVE SMOOTH",
"534 -31 OFFCURVE",
"512 -33 OFFCURVE",
"489 -33 CURVE SMOOTH",
"409 -33 OFFCURVE",
"344 8 OFFCURVE",
"301 66 CURVE SMOOTH",
"258 124 OFFCURVE",
"226 223 OFFCURVE",
"208 313 CURVE SMOOTH",
"190 403 OFFCURVE",
"180 533 OFFCURVE",
"177 630 CURVE SMOOTH",
"175 678 OFFCURVE",
"174 732 OFFCURVE",
"174 792 CURVE SMOOTH",
"174 823 OFFCURVE",
"174 867 OFFCURVE",
"175 922 CURVE SMOOTH",
"176 977 OFFCURVE",
"176 1015 OFFCURVE",
"176 1037 CURVE SMOOTH",
"176 1115 OFFCURVE",
"181 1178 OFFCURVE",
"190 1226 CURVE",
"186 1248 OFFCURVE",
"184 1269 OFFCURVE",
"184 1290 CURVE SMOOTH",
"184 1458 OFFCURVE",
"326 1565 OFFCURVE",
"510 1565 CURVE SMOOTH",
"575 1565 OFFCURVE",
"653 1525 OFFCURVE",
"653 1465 CURVE SMOOTH",
"653 1436 OFFCURVE",
"627 1419 OFFCURVE",
"596 1419 CURVE SMOOTH",
"571 1419 OFFCURVE",
"532 1428 OFFCURVE",
"523 1444 CURVE",
"523 1443 LINE",
"495 1443 LINE",
"495 1448 LINE",
"440 1448 OFFCURVE",
"397 1434 OFFCURVE",
"369 1415 CURVE SMOOTH",
"341 1395 OFFCURVE",
"321 1357 OFFCURVE",
"311 1327 CURVE SMOOTH",
"301 1297 OFFCURVE",
"295 1239 OFFCURVE",
"294 1206 CURVE SMOOTH",
"293 1189 OFFCURVE",
"293 1167 OFFCURVE",
"293 1140 CURVE SMOOTH",
"293 1124 OFFCURVE",
"294 1100 OFFCURVE",
"296 1069 CURVE SMOOTH",
"298 1038 OFFCURVE",
"299 1014 OFFCURVE",
"299 999 CURVE SMOOTH",
"299 983 OFFCURVE",
"296 959 OFFCURVE",
"290 928 CURVE SMOOTH",
"284 896 OFFCURVE",
"281 872 OFFCURVE",
"281 856 CURVE SMOOTH",
"281 807 LINE SMOOTH",
"281 726 OFFCURVE",
"282 680 OFFCURVE",
"286 588 CURVE SMOOTH",
"289 495 OFFCURVE",
"298 435 OFFCURVE",
"313 354 CURVE SMOOTH",
"328 273 OFFCURVE",
"351 220 OFFCURVE",
"383 169 CURVE SMOOTH",
"415 118 OFFCURVE",
"461 93 OFFCURVE",
"516 93 CURVE SMOOTH",
"539 93 OFFCURVE",
"568 105 OFFCURVE",
"603 130 CURVE SMOOTH",
"638 154 OFFCURVE",
"663 166 OFFCURVE",
"680 166 CURVE SMOOTH"
);
}
);
width = 918;
}
);
note = Ccircumflex;
unicode = 0108;
},
{
glyphname = Cdotaccent;
lastChange = "2015-11-01 09:31:29 +0000";
layers = (
{
layerId = "156B637B-193E-48A3-AAC8-7B4A3960F885";
name = "Bold Condensed";
paths = (
{
closed = 1;
nodes = (
"392 1814 OFFCURVE",
"428 1852 OFFCURVE",
"469 1852 CURVE SMOOTH",
"508 1852 OFFCURVE",
"542 1814 OFFCURVE",
"542 1775 CURVE SMOOTH",
"542 1730 OFFCURVE",
"508 1700 OFFCURVE",
"461 1700 CURVE SMOOTH",
"424 1700 OFFCURVE",
"392 1736 OFFCURVE",
"392 1773 CURVE SMOOTH"
);
},
{
closed = 1;
nodes = (
"699 166 OFFCURVE",
"719 156 OFFCURVE",
"740 135 CURVE",
"740 84 OFFCURVE",
"717 43 OFFCURVE",
"683 19 CURVE SMOOTH",
"649 -5 OFFCURVE",
"600 -22 OFFCURVE",
"556 -28 CURVE SMOOTH",
"534 -31 OFFCURVE",
"512 -33 OFFCURVE",
"489 -33 CURVE SMOOTH",
"409 -33 OFFCURVE",
"344 8 OFFCURVE",
"301 66 CURVE SMOOTH",
"258 124 OFFCURVE",
"226 223 OFFCURVE",
"208 313 CURVE SMOOTH",
"190 403 OFFCURVE",
"180 533 OFFCURVE",
"177 630 CURVE SMOOTH",
"175 678 OFFCURVE",
"174 732 OFFCURVE",
"174 792 CURVE SMOOTH",
"174 823 OFFCURVE",
"174 867 OFFCURVE",
"175 922 CURVE SMOOTH",
"176 977 OFFCURVE",
"176 1015 OFFCURVE",
"176 1037 CURVE SMOOTH",
"176 1115 OFFCURVE",
"181 1178 OFFCURVE",
"190 1226 CURVE",
"186 1248 OFFCURVE",
"184 1269 OFFCURVE",
"184 1290 CURVE SMOOTH",
"184 1458 OFFCURVE",
"326 1565 OFFCURVE",
"510 1565 CURVE SMOOTH",
"575 1565 OFFCURVE",
"653 1525 OFFCURVE",
"653 1465 CURVE SMOOTH",
"653 1436 OFFCURVE",
"627 1419 OFFCURVE",
"596 1419 CURVE SMOOTH",
"571 1419 OFFCURVE",
"532 1428 OFFCURVE",
"523 1444 CURVE",
"523 1443 LINE",
"495 1443 LINE",
"495 1448 LINE",
"440 1448 OFFCURVE",
"397 1434 OFFCURVE",
"369 1415 CURVE SMOOTH",
"341 1395 OFFCURVE",
"321 1357 OFFCURVE",
"311 1327 CURVE SMOOTH",
"301 1297 OFFCURVE",
"295 1239 OFFCURVE",
"294 1206 CURVE SMOOTH",
"293 1189 OFFCURVE",
"293 1167 OFFCURVE",
"293 1140 CURVE SMOOTH",
"293 1124 OFFCURVE",
"294 1100 OFFCURVE",
"296 1069 CURVE SMOOTH",
"298 1038 OFFCURVE",
"299 1014 OFFCURVE",
"299 999 CURVE SMOOTH",
"299 983 OFFCURVE",
"296 959 OFFCURVE",
"290 928 CURVE SMOOTH",
"284 896 OFFCURVE",
"281 872 OFFCURVE",
"281 856 CURVE SMOOTH",
"281 807 LINE SMOOTH",
"281 726 OFFCURVE",
"282 680 OFFCURVE",
"286 588 CURVE SMOOTH",
"289 495 OFFCURVE",
"298 435 OFFCURVE",
"313 354 CURVE SMOOTH",
"328 273 OFFCURVE",
"351 220 OFFCURVE",
"383 169 CURVE SMOOTH",
"415 118 OFFCURVE",
"461 93 OFFCURVE",
"516 93 CURVE SMOOTH",
"539 93 OFFCURVE",
"568 105 OFFCURVE",
"603 130 CURVE SMOOTH",
"638 154 OFFCURVE",
"663 166 OFFCURVE",
"680 166 CURVE SMOOTH"
);
}
);
width = 918;
}
);
note = Cdotaccent;
unicode = 010A;
},
{
glyphname = D;
lastChange = "2015-11-01 09:31:29 +0000";
layers = (
{
layerId = "156B637B-193E-48A3-AAC8-7B4A3960F885";
name = "Bold Condensed";
paths = (
{
closed = 1;
nodes = (
"223 -5 OFFCURVE",
"174 18 OFFCURVE",
"174 65 CURVE",
"204 96 OFFCURVE",
"219 177 OFFCURVE",
"219 306 CURVE SMOOTH",
"219 382 OFFCURVE",
"213 495 OFFCURVE",
"200 645 CURVE SMOOTH",
"187 795 OFFCURVE",
"181 907 OFFCURVE",
"181 982 CURVE SMOOTH",
"181 1006 OFFCURVE",
"182 1043 OFFCURVE",
"184 1093 CURVE SMOOTH",
"186 1143 OFFCURVE",
"187 1181 OFFCURVE",
"187 1206 CURVE SMOOTH",
"187 1242 OFFCURVE",
"180 1291 OFFCURVE",
"165 1352 CURVE SMOOTH",
"150 1413 OFFCURVE",
"142 1456 OFFCURVE",
"142 1481 CURVE SMOOTH",
"142 1528 OFFCURVE",
"194 1552 OFFCURVE",
"299 1552 CURVE SMOOTH",
"330 1552 LINE SMOOTH",
"409 1552 OFFCURVE",
"476 1524 OFFCURVE",
"523 1484 CURVE SMOOTH",
"570 1444 OFFCURVE",
"609 1378 OFFCURVE",
"633 1319 CURVE SMOOTH",
"657 1259 OFFCURVE",
"676 1174 OFFCURVE",
"685 1115 CURVE SMOOTH",
"693 1056 OFFCURVE",
"698 972 OFFCURVE",
"699 933 CURVE SMOOTH",
"699 914 OFFCURVE",
"699 892 OFFCURVE",
"699 868 CURVE SMOOTH",
"699 773 LINE",
"696 768 OFFCURVE",
"694 762 OFFCURVE",
"694 755 CURVE SMOOTH",
"694 748 OFFCURVE",
"695 740 OFFCURVE",
"697 731 CURVE",
"698 722 OFFCURVE",
"699 716 OFFCURVE",
"699 711 CURVE SMOOTH",
"699 626 OFFCURVE",
"673 500 OFFCURVE",
"622 369 CURVE SMOOTH",
"570 238 OFFCURVE",
"506 122 OFFCURVE",
"415 50 CURVE SMOOTH",
"369 13 OFFCURVE",
"322 -5 OFFCURVE",
"274 -5 CURVE SMOOTH"
);
},
{
closed = 1;
nodes = (
"317 114 LINE",
"420 181 OFFCURVE",
"498 308 OFFCURVE",
"538 449 CURVE SMOOTH",
"577 590 OFFCURVE",
"594 723 OFFCURVE",
"594 854 CURVE SMOOTH",
"594 931 OFFCURVE",
"588 1003 OFFCURVE",
"573 1095 CURVE SMOOTH",
"557 1186 OFFCURVE",
"523 1261 OFFCURVE",
"478 1326 CURVE SMOOTH",
"433 1390 OFFCURVE",
"359 1429 OFFCURVE",
"268 1429 CURVE",
"268 1427 LINE SMOOTH",
"268 1304 OFFCURVE",
"276 1118 OFFCURVE",
"293 870 CURVE SMOOTH",
"309 622 OFFCURVE",
"317 435 OFFCURVE",
"317 310 CURVE SMOOTH"
);
}
);
width = 882;
}
);
note = D;
unicode = 0044;
},
{
glyphname = Eth;
lastChange = "2015-11-01 09:31:29 +0000";
layers = (
{
layerId = "156B637B-193E-48A3-AAC8-7B4A3960F885";
name = "Bold Condensed";
paths = (
{
closed = 1;
nodes = (
"455 804 OFFCURVE",
"439 790 OFFCURVE",
"407 778 CURVE SMOOTH",
"342 753 OFFCURVE",
"233 745 OFFCURVE",
"165 741 CURVE SMOOTH",
"131 739 OFFCURVE",
"103 738 OFFCURVE",
"80 738 CURVE SMOOTH",
"45 738 OFFCURVE",
"13 764 OFFCURVE",
"13 797 CURVE SMOOTH",
"13 814 OFFCURVE",
"29 828 OFFCURVE",
"62 840 CURVE SMOOTH",
"126 864 OFFCURVE",
"234 873 OFFCURVE",
"303 877 CURVE SMOOTH",
"337 879 OFFCURVE",
"365 880 OFFCURVE",
"387 880 CURVE SMOOTH",
"422 880 OFFCURVE",
"455 856 OFFCURVE",
"455 821 CURVE SMOOTH"
);
},
{
closed = 1;
nodes = (
"223 -5 OFFCURVE",
"174 18 OFFCURVE",
"174 65 CURVE",
"204 96 OFFCURVE",
"219 177 OFFCURVE",
"219 306 CURVE SMOOTH",
"219 382 OFFCURVE",
"213 495 OFFCURVE",
"200 645 CURVE SMOOTH",
"187 795 OFFCURVE",
"181 907 OFFCURVE",
"181 982 CURVE SMOOTH",
"181 1006 OFFCURVE",
"182 1043 OFFCURVE",
"184 1093 CURVE SMOOTH",
"186 1143 OFFCURVE",
"187 1181 OFFCURVE",
"187 1206 CURVE SMOOTH",
"187 1242 OFFCURVE",
"180 1291 OFFCURVE",
"165 1352 CURVE SMOOTH",
"150 1413 OFFCURVE",
"142 1456 OFFCURVE",
"142 1481 CURVE SMOOTH",
"142 1528 OFFCURVE",
"194 1552 OFFCURVE",
"299 1552 CURVE SMOOTH",
"330 1552 LINE SMOOTH",
"409 1552 OFFCURVE",
"476 1524 OFFCURVE",
"523 1484 CURVE SMOOTH",
"570 1444 OFFCURVE",
"609 1378 OFFCURVE",
"633 1319 CURVE SMOOTH",
"657 1259 OFFCURVE",
"676 1174 OFFCURVE",
"685 1115 CURVE SMOOTH",
"693 1056 OFFCURVE",
"698 972 OFFCURVE",
"699 933 CURVE SMOOTH",
"699 914 OFFCURVE",
"699 892 OFFCURVE",
"699 868 CURVE SMOOTH",
"699 773 LINE",
"696 768 OFFCURVE",
"694 762 OFFCURVE",
"694 755 CURVE SMOOTH",
"694 748 OFFCURVE",
"695 740 OFFCURVE",
"697 731 CURVE",
"698 722 OFFCURVE",
"699 716 OFFCURVE",
"699 711 CURVE SMOOTH",
"699 626 OFFCURVE",
"673 500 OFFCURVE",
"622 369 CURVE SMOOTH",
"570 238 OFFCURVE",
"506 122 OFFCURVE",
"415 50 CURVE SMOOTH",
"369 13 OFFCURVE",
"322 -5 OFFCURVE",
"274 -5 CURVE SMOOTH"
);
},
{
closed = 1;
nodes = (
"317 114 LINE",
"420 181 OFFCURVE",
"498 308 OFFCURVE",
"538 449 CURVE SMOOTH",
"577 590 OFFCURVE",
"594 723 OFFCURVE",
"594 854 CURVE SMOOTH",
"594 931 OFFCURVE",
"588 1003 OFFCURVE",
"573 1095 CURVE SMOOTH",
"557 1186 OFFCURVE",
"523 1261 OFFCURVE",
"478 1326 CURVE SMOOTH",
"433 1390 OFFCURVE",
"359 1429 OFFCURVE",
"268 1429 CURVE",
"268 1427 LINE SMOOTH",
"268 1304 OFFCURVE",
"276 1118 OFFCURVE",
"293 870 CURVE SMOOTH",
"309 622 OFFCURVE",
"317 435 OFFCURVE",
"317 310 CURVE SMOOTH"
);
}
);
width = 882;
}
);
note = Eth;
unicode = 00D0;
},
{
glyphname = Dcaron;
lastChange = "2015-11-01 09:31:29 +0000";
layers = (
{
layerId = "156B637B-193E-48A3-AAC8-7B4A3960F885";
name = "Bold Condensed";
paths = (
{
closed = 1;
nodes = (
"175 2074 OFFCURVE",
"199 2092 OFFCURVE",
"224 2092 CURVE SMOOTH",
"240 2092 OFFCURVE",
"257 2073 OFFCURVE",
"274 2034 CURVE SMOOTH",
"291 1995 OFFCURVE",
"308 1944 OFFCURVE",
"326 1881 CURVE SMOOTH",
"352 1787 LINE",
"355 1802 OFFCURVE",
"358 1825 OFFCURVE",
"361 1856 CURVE SMOOTH",
"368 1919 OFFCURVE",
"373 1964 OFFCURVE",
"385 2016 CURVE SMOOTH",
"396 2068 OFFCURVE",
"415 2099 OFFCURVE",
"442 2099 CURVE SMOOTH",
"466 2099 OFFCURVE",
"485 2083 OFFCURVE",
"485 2056 CURVE SMOOTH",
"485 2052 OFFCURVE",
"483 2047 OFFCURVE",
"478 2040 CURVE SMOOTH",
"473 2033 OFFCURVE",
"471 2028 OFFCURVE",
"470 2025 CURVE",
"470 1988 LINE",
"441 1876 LINE SMOOTH",
"422 1801 OFFCURVE",
"412 1753 OFFCURVE",
"412 1730 CURVE SMOOTH",
"412 1686 OFFCURVE",
"395 1664 OFFCURVE",
"360 1664 CURVE SMOOTH",
"307 1664 OFFCURVE",
"175 1977 OFFCURVE",
"175 2053 CURVE SMOOTH"
);
},
{
closed = 1;
nodes = (
"223 -5 OFFCURVE",
"174 18 OFFCURVE",
"174 65 CURVE",
"204 96 OFFCURVE",
"219 177 OFFCURVE",
"219 306 CURVE SMOOTH",
"219 382 OFFCURVE",
"213 495 OFFCURVE",
"200 645 CURVE SMOOTH",
"187 795 OFFCURVE",
"181 907 OFFCURVE",
"181 982 CURVE SMOOTH",
"181 1006 OFFCURVE",
"182 1043 OFFCURVE",
"184 1093 CURVE SMOOTH",
"186 1143 OFFCURVE",
"187 1181 OFFCURVE",
"187 1206 CURVE SMOOTH",
"187 1242 OFFCURVE",
"180 1291 OFFCURVE",
"165 1352 CURVE SMOOTH",
"150 1413 OFFCURVE",
"142 1456 OFFCURVE",
"142 1481 CURVE SMOOTH",
"142 1528 OFFCURVE",
"194 1552 OFFCURVE",
"299 1552 CURVE SMOOTH",
"330 1552 LINE SMOOTH",
"409 1552 OFFCURVE",
"476 1524 OFFCURVE",
"523 1484 CURVE SMOOTH",
"570 1444 OFFCURVE",
"609 1378 OFFCURVE",
"633 1319 CURVE SMOOTH",
"657 1259 OFFCURVE",
"676 1174 OFFCURVE",
"685 1115 CURVE SMOOTH",
"693 1056 OFFCURVE",
"698 972 OFFCURVE",
"699 933 CURVE SMOOTH",
"699 914 OFFCURVE",
"699 892 OFFCURVE",
"699 868 CURVE SMOOTH",
"699 773 LINE",
"696 768 OFFCURVE",
"694 762 OFFCURVE",
"694 755 CURVE SMOOTH",
"694 748 OFFCURVE",
"695 740 OFFCURVE",
"697 731 CURVE",
"698 722 OFFCURVE",
"699 716 OFFCURVE",
"699 711 CURVE SMOOTH",
"699 626 OFFCURVE",
"673 500 OFFCURVE",
"622 369 CURVE SMOOTH",
"570 238 OFFCURVE",
"506 122 OFFCURVE",
"415 50 CURVE SMOOTH",
"369 13 OFFCURVE",
"322 -5 OFFCURVE",
"274 -5 CURVE SMOOTH"
);
},
{
closed = 1;
nodes = (
"317 114 LINE",
"420 181 OFFCURVE",
"498 308 OFFCURVE",
"538 449 CURVE SMOOTH",
"577 590 OFFCURVE",
"594 723 OFFCURVE",
"594 854 CURVE SMOOTH",
"594 931 OFFCURVE",
"588 1003 OFFCURVE",
"573 1095 CURVE SMOOTH",
"557 1186 OFFCURVE",
"523 1261 OFFCURVE",
"478 1326 CURVE SMOOTH",
"433 1390 OFFCURVE",
"359 1429 OFFCURVE",
"268 1429 CURVE",
"268 1427 LINE SMOOTH",
"268 1304 OFFCURVE",
"276 1118 OFFCURVE",
"293 870 CURVE SMOOTH",
"309 622 OFFCURVE",
"317 435 OFFCURVE",
"317 310 CURVE SMOOTH"
);
}
);
width = 882;
}
);
note = Dcaron;
unicode = 010E;
},
{
glyphname = Dcroat;
lastChange = "2015-11-01 09:31:29 +0000";
layers = (
{
layerId = "156B637B-193E-48A3-AAC8-7B4A3960F885";
name = "Bold Condensed";
paths = (
{
closed = 1;
nodes = (
"455 804 OFFCURVE",
"439 790 OFFCURVE",
"407 778 CURVE SMOOTH",
"342 753 OFFCURVE",
"233 745 OFFCURVE",
"165 741 CURVE SMOOTH",
"131 739 OFFCURVE",
"103 738 OFFCURVE",
"80 738 CURVE SMOOTH",
"45 738 OFFCURVE",
"13 764 OFFCURVE",
"13 797 CURVE SMOOTH",
"13 814 OFFCURVE",
"29 828 OFFCURVE",
"62 840 CURVE SMOOTH",
"126 864 OFFCURVE",
"234 873 OFFCURVE",
"303 877 CURVE SMOOTH",
"337 879 OFFCURVE",
"365 880 OFFCURVE",
"387 880 CURVE SMOOTH",
"422 880 OFFCURVE",
"455 856 OFFCURVE",
"455 821 CURVE SMOOTH"
);
},
{
closed = 1;
nodes = (
"223 -5 OFFCURVE",
"174 18 OFFCURVE",
"174 65 CURVE",
"204 96 OFFCURVE",
"219 177 OFFCURVE",
"219 306 CURVE SMOOTH",
"219 382 OFFCURVE",
"213 495 OFFCURVE",
"200 645 CURVE SMOOTH",
"187 795 OFFCURVE",
"181 907 OFFCURVE",
"181 982 CURVE SMOOTH",
"181 1006 OFFCURVE",
"182 1043 OFFCURVE",
"184 1093 CURVE SMOOTH",
"186 1143 OFFCURVE",
"187 1181 OFFCURVE",
"187 1206 CURVE SMOOTH",
"187 1242 OFFCURVE",
"180 1291 OFFCURVE",
"165 1352 CURVE SMOOTH",
"150 1413 OFFCURVE",
"142 1456 OFFCURVE",
"142 1481 CURVE SMOOTH",
"142 1528 OFFCURVE",
"194 1552 OFFCURVE",
"299 1552 CURVE SMOOTH",
"330 1552 LINE SMOOTH",
"409 1552 OFFCURVE",
"476 1524 OFFCURVE",
"523 1484 CURVE SMOOTH",
"570 1444 OFFCURVE",
"609 1378 OFFCURVE",
"633 1319 CURVE SMOOTH",
"657 1259 OFFCURVE",
"676 1174 OFFCURVE",
"685 1115 CURVE SMOOTH",
"693 1056 OFFCURVE",
"698 972 OFFCURVE",
"699 933 CURVE SMOOTH",
"699 914 OFFCURVE",
"699 892 OFFCURVE",
"699 868 CURVE SMOOTH",
"699 773 LINE",
"696 768 OFFCURVE",
"694 762 OFFCURVE",
"694 755 CURVE SMOOTH",
"694 748 OFFCURVE",
"695 740 OFFCURVE",
"697 731 CURVE",
"698 722 OFFCURVE",
"699 716 OFFCURVE",
"699 711 CURVE SMOOTH",
"699 626 OFFCURVE",
"673 500 OFFCURVE",
"622 369 CURVE SMOOTH",
"570 238 OFFCURVE",
"506 122 OFFCURVE",
"415 50 CURVE SMOOTH",
"369 13 OFFCURVE",
"322 -5 OFFCURVE",
"274 -5 CURVE SMOOTH"
);
},
{
closed = 1;
nodes = (
"317 114 LINE",
"420 181 OFFCURVE",
"498 308 OFFCURVE",
"538 449 CURVE SMOOTH",
"577 590 OFFCURVE",
"594 723 OFFCURVE",
"594 854 CURVE SMOOTH",
"594 931 OFFCURVE",
"588 1003 OFFCURVE",
"573 1095 CURVE SMOOTH",
"557 1186 OFFCURVE",
"523 1261 OFFCURVE",
"478 1326 CURVE SMOOTH",
"433 1390 OFFCURVE",
"359 1429 OFFCURVE",
"268 1429 CURVE",
"268 1427 LINE SMOOTH",
"268 1304 OFFCURVE",
"276 1118 OFFCURVE",
"293 870 CURVE SMOOTH",
"309 622 OFFCURVE",
"317 435 OFFCURVE",
"317 310 CURVE SMOOTH"
);
}
);
width = 882;
}
);
note = Dcroat;
unicode = 0110;
},
{
glyphname = E;
lastChange = "2015-11-01 09:31:29 +0000";
layers = (
{
layerId = "156B637B-193E-48A3-AAC8-7B4A3960F885";
name = "Bold Condensed";
paths = (
{
closed = 1;
nodes = (
"551 50 LINE",
"532 13 OFFCURVE",
"478 -7 OFFCURVE",
"443 -10 CURVE SMOOTH",
"426 -11 OFFCURVE",
"403 -12 OFFCURVE",
"376 -12 CURVE SMOOTH",
"312 -12 LINE SMOOTH",
"281 -12 OFFCURVE",
"267 -11 OFFCURVE",
"244 -3 CURVE SMOOTH",
"221 5 OFFCURVE",
"210 24 OFFCURVE",
"210 55 CURVE SMOOTH",
"210 1245 LINE SMOOTH",
"210 1268 OFFCURVE",
"205 1303 OFFCURVE",
"196 1349 CURVE SMOOTH",
"187 1395 OFFCURVE",
"182 1430 OFFCURVE",
"182 1454 CURVE SMOOTH",
"182 1461 LINE",
"205 1498 OFFCURVE",
"222 1522 OFFCURVE",
"233 1533 CURVE",
"250 1533 OFFCURVE",
"275 1536 OFFCURVE",
"309 1542 CURVE SMOOTH",
"343 1548 OFFCURVE",
"368 1551 OFFCURVE",
"385 1551 CURVE SMOOTH",
"426 1551 OFFCURVE",
"479 1524 OFFCURVE",
"479 1484 CURVE SMOOTH",
"479 1443 OFFCURVE",
"448 1423 OFFCURVE",
"386 1423 CURVE SMOOTH",
"379 1423 OFFCURVE",
"370 1423 OFFCURVE",
"357 1424 CURVE SMOOTH",
"344 1425 OFFCURVE",
"334 1425 OFFCURVE",
"327 1425 CURVE SMOOTH",
"317 1425 OFFCURVE",
"310 1425 OFFCURVE",
"305 1424 CURVE",
"305 1387 OFFCURVE",
"308 1330 OFFCURVE",
"313 1255 CURVE SMOOTH",
"318 1180 OFFCURVE",
"321 1123 OFFCURVE",
"321 1086 CURVE SMOOTH",
"321 1059 OFFCURVE",
"319 1019 OFFCURVE",
"316 967 CURVE SMOOTH",
"313 914 OFFCURVE",
"311 876 OFFCURVE",
"311 852 CURVE",
"318 853 OFFCURVE",
"328 856 OFFCURVE",
"341 859 CURVE",
"366 866 OFFCURVE",
"387 870 OFFCURVE",
"407 870 CURVE SMOOTH",
"438 870 OFFCURVE",
"467 844 OFFCURVE",
"467 813 CURVE SMOOTH",
"467 780 OFFCURVE",
"445 750 OFFCURVE",
"413 750 CURVE SMOOTH",
"409 750 OFFCURVE",
"401 750 OFFCURVE",
"390 751 CURVE SMOOTH",
"378 752 OFFCURVE",
"369 752 OFFCURVE",
"362 752 CURVE SMOOTH",
"342 752 OFFCURVE",
"328 747 OFFCURVE",
"320 737 CURVE",
"320 105 LINE",
"390 109 OFFCURVE",
"428 111 OFFCURVE",
"434 111 CURVE SMOOTH",
"512 111 OFFCURVE",
"551 93 OFFCURVE",
"551 57 CURVE SMOOTH"
);
}
);
width = 738;
}
);
note = E;
unicode = 0045;
},
{
glyphname = Eacute;
lastChange = "2015-11-01 09:31:29 +0000";
layers = (
{
layerId = "156B637B-193E-48A3-AAC8-7B4A3960F885";
name = "Bold Condensed";
paths = (
{
closed = 1;
nodes = (
"365 1735 OFFCURVE",
"414 1778 OFFCURVE",
"481 1835 CURVE SMOOTH",
"548 1892 OFFCURVE",
"588 1927 OFFCURVE",
"602 1940 CURVE",
"610 1943 OFFCURVE",
"616 1944 OFFCURVE",
"619 1944 CURVE SMOOTH",
"652 1944 OFFCURVE",
"686 1902 OFFCURVE",
"686 1867 CURVE SMOOTH",
"686 1853 OFFCURVE",
"681 1842 OFFCURVE",
"671 1835 CURVE SMOOTH",
"619 1797 OFFCURVE",
"520 1739 OFFCURVE",
"373 1662 CURVE",
"368 1659 OFFCURVE",
"362 1658 OFFCURVE",
"356 1658 CURVE SMOOTH",
"339 1658 OFFCURVE",
"323 1670 OFFCURVE",
"323 1685 CURVE SMOOTH",
"323 1692 OFFCURVE",
"327 1699 OFFCURVE",
"334 1706 CURVE SMOOTH"
);
},
{
closed = 1;
nodes = (
"551 50 LINE",
"532 13 OFFCURVE",
"478 -7 OFFCURVE",
"443 -10 CURVE SMOOTH",
"426 -11 OFFCURVE",
"403 -12 OFFCURVE",
"376 -12 CURVE SMOOTH",
"312 -12 LINE SMOOTH",
"281 -12 OFFCURVE",
"267 -11 OFFCURVE",
"244 -3 CURVE SMOOTH",
"221 5 OFFCURVE",
"210 24 OFFCURVE",
"210 55 CURVE SMOOTH",
"210 1245 LINE SMOOTH",
"210 1268 OFFCURVE",
"205 1303 OFFCURVE",
"196 1349 CURVE SMOOTH",
"187 1395 OFFCURVE",
"182 1430 OFFCURVE",
"182 1454 CURVE SMOOTH",
"182 1461 LINE",
"205 1498 OFFCURVE",
"222 1522 OFFCURVE",
"233 1533 CURVE",
"250 1533 OFFCURVE",
"275 1536 OFFCURVE",
"309 1542 CURVE SMOOTH",
"343 1548 OFFCURVE",
"368 1551 OFFCURVE",
"385 1551 CURVE SMOOTH",
"426 1551 OFFCURVE",
"479 1524 OFFCURVE",
"479 1484 CURVE SMOOTH",
"479 1443 OFFCURVE",
"448 1423 OFFCURVE",
"386 1423 CURVE SMOOTH",
"379 1423 OFFCURVE",
"370 1423 OFFCURVE",
"357 1424 CURVE SMOOTH",
"344 1425 OFFCURVE",
"334 1425 OFFCURVE",
"327 1425 CURVE SMOOTH",
"317 1425 OFFCURVE",
"310 1425 OFFCURVE",
"305 1424 CURVE",
"305 1387 OFFCURVE",
"308 1330 OFFCURVE",
"313 1255 CURVE SMOOTH",
"318 1180 OFFCURVE",
"321 1123 OFFCURVE",
"321 1086 CURVE SMOOTH",
"321 1059 OFFCURVE",
"319 1019 OFFCURVE",
"316 967 CURVE SMOOTH",
"313 914 OFFCURVE",
"311 876 OFFCURVE",
"311 852 CURVE",
"318 853 OFFCURVE",
"328 856 OFFCURVE",
"341 859 CURVE",
"366 866 OFFCURVE",
"387 870 OFFCURVE",
"407 870 CURVE SMOOTH",
"438 870 OFFCURVE",
"467 844 OFFCURVE",
"467 813 CURVE SMOOTH",
"467 780 OFFCURVE",
"445 750 OFFCURVE",
"413 750 CURVE SMOOTH",
"409 750 OFFCURVE",
"401 750 OFFCURVE",
"390 751 CURVE SMOOTH",
"378 752 OFFCURVE",
"369 752 OFFCURVE",
"362 752 CURVE SMOOTH",
"342 752 OFFCURVE",
"328 747 OFFCURVE",
"320 737 CURVE",
"320 105 LINE",
"390 109 OFFCURVE",
"428 111 OFFCURVE",
"434 111 CURVE SMOOTH",
"512 111 OFFCURVE",
"551 93 OFFCURVE",
"551 57 CURVE SMOOTH"
);
}
);
width = 738;
}
);
note = Eacute;
unicode = 00C9;
},
{
glyphname = Ebreve;
lastChange = "2015-11-01 09:31:29 +0000";
layers = (
{
layerId = "156B637B-193E-48A3-AAC8-7B4A3960F885";
name = "Bold Condensed";
paths = (
{
closed = 1;
nodes = (
"500 1777 OFFCURVE",
"447 1704 OFFCURVE",
"348 1704 CURVE SMOOTH",
"284 1704 OFFCURVE",
"236 1736 OFFCURVE",
"211 1785 CURVE SMOOTH",
"186 1833 OFFCURVE",
"175 1887 OFFCURVE",
"175 1947 CURVE SMOOTH",
"175 1964 OFFCURVE",
"190 1979 OFFCURVE",
"213 1979 CURVE SMOOTH",
"245 1979 OFFCURVE",
"271 1934 OFFCURVE",
"284 1889 CURVE SMOOTH",
"296 1844 OFFCURVE",
"317 1799 OFFCURVE",
"342 1799 CURVE SMOOTH",
"391 1799 OFFCURVE",
"412 1856 OFFCURVE",
"412 1893 CURVE SMOOTH",
"412 1944 OFFCURVE",
"423 1970 OFFCURVE",
"470 1970 CURVE SMOOTH",
"498 1970 OFFCURVE",
"524 1946 OFFCURVE",
"524 1918 CURVE SMOOTH",
"524 1897 OFFCURVE",
"523 1880 OFFCURVE",
"520 1868 CURVE SMOOTH"
);
},
{
closed = 1;
nodes = (
"551 50 LINE",
"532 13 OFFCURVE",
"478 -7 OFFCURVE",
"443 -10 CURVE SMOOTH",
"426 -11 OFFCURVE",
"403 -12 OFFCURVE",
"376 -12 CURVE SMOOTH",
"312 -12 LINE SMOOTH",
"281 -12 OFFCURVE",
"267 -11 OFFCURVE",
"244 -3 CURVE SMOOTH",
"221 5 OFFCURVE",
"210 24 OFFCURVE",
"210 55 CURVE SMOOTH",
"210 1245 LINE SMOOTH",
"210 1268 OFFCURVE",
"205 1303 OFFCURVE",
"196 1349 CURVE SMOOTH",
"187 1395 OFFCURVE",
"182 1430 OFFCURVE",
"182 1454 CURVE SMOOTH",
"182 1461 LINE",
"205 1498 OFFCURVE",
"222 1522 OFFCURVE",
"233 1533 CURVE",
"250 1533 OFFCURVE",
"275 1536 OFFCURVE",
"309 1542 CURVE SMOOTH",
"343 1548 OFFCURVE",
"368 1551 OFFCURVE",
"385 1551 CURVE SMOOTH",
"426 1551 OFFCURVE",
"479 1524 OFFCURVE",
"479 1484 CURVE SMOOTH",
"479 1443 OFFCURVE",
"448 1423 OFFCURVE",
"386 1423 CURVE SMOOTH",
"379 1423 OFFCURVE",
"370 1423 OFFCURVE",
"357 1424 CURVE SMOOTH",
"344 1425 OFFCURVE",
"334 1425 OFFCURVE",
"327 1425 CURVE SMOOTH",
"317 1425 OFFCURVE",
"310 1425 OFFCURVE",
"305 1424 CURVE",
"305 1387 OFFCURVE",
"308 1330 OFFCURVE",
"313 1255 CURVE SMOOTH",
"318 1180 OFFCURVE",
"321 1123 OFFCURVE",
"321 1086 CURVE SMOOTH",
"321 1059 OFFCURVE",
"319 1019 OFFCURVE",
"316 967 CURVE SMOOTH",
"313 914 OFFCURVE",
"311 876 OFFCURVE",
"311 852 CURVE",
"318 853 OFFCURVE",
"328 856 OFFCURVE",
"341 859 CURVE",
"366 866 OFFCURVE",
"387 870 OFFCURVE",
"407 870 CURVE SMOOTH",
"438 870 OFFCURVE",
"467 844 OFFCURVE",
"467 813 CURVE SMOOTH",
"467 780 OFFCURVE",
"445 750 OFFCURVE",
"413 750 CURVE SMOOTH",
"409 750 OFFCURVE",
"401 750 OFFCURVE",
"390 751 CURVE SMOOTH",
"378 752 OFFCURVE",
"369 752 OFFCURVE",
"362 752 CURVE SMOOTH",
"342 752 OFFCURVE",
"328 747 OFFCURVE",
"320 737 CURVE",
"320 105 LINE",
"390 109 OFFCURVE",
"428 111 OFFCURVE",
"434 111 CURVE SMOOTH",
"512 111 OFFCURVE",
"551 93 OFFCURVE",
"551 57 CURVE SMOOTH"
);
}
);
width = 738;
}
);
note = Ebreve;
unicode = 0114;
},
{
glyphname = Ecaron;
lastChange = "2015-11-01 09:31:29 +0000";
layers = (
{
layerId = "156B637B-193E-48A3-AAC8-7B4A3960F885";
name = "Bold Condensed";
paths = (
{
closed = 1;
nodes = (
"165 2074 OFFCURVE",
"189 2092 OFFCURVE",
"214 2092 CURVE SMOOTH",
"230 2092 OFFCURVE",
"247 2073 OFFCURVE",
"264 2034 CURVE SMOOTH",
"281 1995 OFFCURVE",
"298 1944 OFFCURVE",
"316 1881 CURVE SMOOTH",
"342 1787 LINE",
"345 1802 OFFCURVE",
"348 1825 OFFCURVE",
"351 1856 CURVE SMOOTH",
"358 1919 OFFCURVE",
"363 1964 OFFCURVE",
"375 2016 CURVE SMOOTH",
"386 2068 OFFCURVE",
"405 2099 OFFCURVE",
"432 2099 CURVE SMOOTH",
"456 2099 OFFCURVE",
"475 2083 OFFCURVE",
"475 2056 CURVE SMOOTH",
"475 2052 OFFCURVE",
"473 2047 OFFCURVE",
"468 2040 CURVE SMOOTH",
"463 2033 OFFCURVE",
"461 2028 OFFCURVE",
"460 2025 CURVE",
"460 1988 LINE",
"431 1876 LINE SMOOTH",
"412 1801 OFFCURVE",
"402 1753 OFFCURVE",
"402 1730 CURVE SMOOTH",
"402 1686 OFFCURVE",
"385 1664 OFFCURVE",
"350 1664 CURVE SMOOTH",
"297 1664 OFFCURVE",
"165 1977 OFFCURVE",
"165 2053 CURVE SMOOTH"
);
},
{
closed = 1;
nodes = (
"551 50 LINE",
"532 13 OFFCURVE",
"478 -7 OFFCURVE",
"443 -10 CURVE SMOOTH",
"426 -11 OFFCURVE",
"403 -12 OFFCURVE",
"376 -12 CURVE SMOOTH",
"312 -12 LINE SMOOTH",
"281 -12 OFFCURVE",
"267 -11 OFFCURVE",
"244 -3 CURVE SMOOTH",
"221 5 OFFCURVE",
"210 24 OFFCURVE",
"210 55 CURVE SMOOTH",
"210 1245 LINE SMOOTH",
"210 1268 OFFCURVE",
"205 1303 OFFCURVE",
"196 1349 CURVE SMOOTH",
"187 1395 OFFCURVE",
"182 1430 OFFCURVE",
"182 1454 CURVE SMOOTH",
"182 1461 LINE",
"205 1498 OFFCURVE",
"222 1522 OFFCURVE",
"233 1533 CURVE",
"250 1533 OFFCURVE",
"275 1536 OFFCURVE",
"309 1542 CURVE SMOOTH",
"343 1548 OFFCURVE",
"368 1551 OFFCURVE",
"385 1551 CURVE SMOOTH",
"426 1551 OFFCURVE",
"479 1524 OFFCURVE",
"479 1484 CURVE SMOOTH",
"479 1443 OFFCURVE",
"448 1423 OFFCURVE",
"386 1423 CURVE SMOOTH",
"379 1423 OFFCURVE",
"370 1423 OFFCURVE",
"357 1424 CURVE SMOOTH",
"344 1425 OFFCURVE",
"334 1425 OFFCURVE",
"327 1425 CURVE SMOOTH",
"317 1425 OFFCURVE",
"310 1425 OFFCURVE",
"305 1424 CURVE",
"305 1387 OFFCURVE",
"308 1330 OFFCURVE",
"313 1255 CURVE SMOOTH",
"318 1180 OFFCURVE",
"321 1123 OFFCURVE",
"321 1086 CURVE SMOOTH",
"321 1059 OFFCURVE",
"319 1019 OFFCURVE",
"316 967 CURVE SMOOTH",
"313 914 OFFCURVE",
"311 876 OFFCURVE",
"311 852 CURVE",
"318 853 OFFCURVE",
"328 856 OFFCURVE",
"341 859 CURVE",
"366 866 OFFCURVE",
"387 870 OFFCURVE",
"407 870 CURVE SMOOTH",
"438 870 OFFCURVE",
"467 844 OFFCURVE",
"467 813 CURVE SMOOTH",
"467 780 OFFCURVE",
"445 750 OFFCURVE",
"413 750 CURVE SMOOTH",
"409 750 OFFCURVE",
"401 750 OFFCURVE",
"390 751 CURVE SMOOTH",
"378 752 OFFCURVE",
"369 752 OFFCURVE",
"362 752 CURVE SMOOTH",
"342 752 OFFCURVE",
"328 747 OFFCURVE",
"320 737 CURVE",
"320 105 LINE",
"390 109 OFFCURVE",
"428 111 OFFCURVE",
"434 111 CURVE SMOOTH",
"512 111 OFFCURVE",
"551 93 OFFCURVE",
"551 57 CURVE SMOOTH"
);
}
);
width = 738;
}
);
note = Ecaron;
unicode = 011A;
},
{
glyphname = Ecircumflex;
lastChange = "2015-11-01 09:31:29 +0000";
layers = (
{
layerId = "156B637B-193E-48A3-AAC8-7B4A3960F885";
name = "Bold Condensed";
paths = (
{
closed = 1;
nodes = (
"247 1724 LINE",
"243 1715 OFFCURVE",
"233 1710 OFFCURVE",
"218 1710 CURVE SMOOTH",
"191 1710 OFFCURVE",
"166 1725 OFFCURVE",
"166 1750 CURVE SMOOTH",
"166 1757 OFFCURVE",
"167 1763 OFFCURVE",
"170 1769 CURVE",
"195 1829 OFFCURVE",
"228 1913 OFFCURVE",
"243 1950 CURVE SMOOTH",
"258 1987 OFFCURVE",
"280 2038 OFFCURVE",
"292 2058 CURVE SMOOTH",
"304 2078 OFFCURVE",
"322 2100 OFFCURVE",
"339 2107 CURVE SMOOTH",
"347 2110 OFFCURVE",
"356 2112 OFFCURVE",
"367 2112 CURVE SMOOTH",
"377 2112 OFFCURVE",
"387 2105 OFFCURVE",
"396 2092 CURVE SMOOTH",
"415 2065 OFFCURVE",
"434 2005 OFFCURVE",
"448 1954 CURVE SMOOTH",
"455 1928 OFFCURVE",
"463 1895 OFFCURVE",
"474 1855 CURVE SMOOTH",
"484 1814 OFFCURVE",
"493 1782 OFFCURVE",
"500 1757 CURVE SMOOTH",
"502 1750 OFFCURVE",
"503 1744 OFFCURVE",
"503 1739 CURVE SMOOTH",
"503 1711 OFFCURVE",
"480 1696 OFFCURVE",
"456 1696 CURVE SMOOTH",
"442 1696 OFFCURVE",
"433 1701 OFFCURVE",
"430 1710 CURVE",
"350 1986 LINE"
);
},
{
closed = 1;
nodes = (
"551 50 LINE",
"532 13 OFFCURVE",
"478 -7 OFFCURVE",
"443 -10 CURVE SMOOTH",
"426 -11 OFFCURVE",
"403 -12 OFFCURVE",
"376 -12 CURVE SMOOTH",
"312 -12 LINE SMOOTH",
"281 -12 OFFCURVE",
"267 -11 OFFCURVE",
"244 -3 CURVE SMOOTH",
"221 5 OFFCURVE",
"210 24 OFFCURVE",
"210 55 CURVE SMOOTH",
"210 1245 LINE SMOOTH",
"210 1268 OFFCURVE",
"205 1303 OFFCURVE",
"196 1349 CURVE SMOOTH",
"187 1395 OFFCURVE",
"182 1430 OFFCURVE",
"182 1454 CURVE SMOOTH",
"182 1461 LINE",
"205 1498 OFFCURVE",
"222 1522 OFFCURVE",
"233 1533 CURVE",
"250 1533 OFFCURVE",
"275 1536 OFFCURVE",
"309 1542 CURVE SMOOTH",
"343 1548 OFFCURVE",
"368 1551 OFFCURVE",
"385 1551 CURVE SMOOTH",
"426 1551 OFFCURVE",
"479 1524 OFFCURVE",
"479 1484 CURVE SMOOTH",
"479 1443 OFFCURVE",
"448 1423 OFFCURVE",
"386 1423 CURVE SMOOTH",
"379 1423 OFFCURVE",
"370 1423 OFFCURVE",
"357 1424 CURVE SMOOTH",
"344 1425 OFFCURVE",
"334 1425 OFFCURVE",
"327 1425 CURVE SMOOTH",
"317 1425 OFFCURVE",
"310 1425 OFFCURVE",
"305 1424 CURVE",
"305 1387 OFFCURVE",
"308 1330 OFFCURVE",
"313 1255 CURVE SMOOTH",
"318 1180 OFFCURVE",
"321 1123 OFFCURVE",
"321 1086 CURVE SMOOTH",
"321 1059 OFFCURVE",
"319 1019 OFFCURVE",
"316 967 CURVE SMOOTH",
"313 914 OFFCURVE",
"311 876 OFFCURVE",
"311 852 CURVE",
"318 853 OFFCURVE",
"328 856 OFFCURVE",
"341 859 CURVE",
"366 866 OFFCURVE",
"387 870 OFFCURVE",
"407 870 CURVE SMOOTH",
"438 870 OFFCURVE",
"467 844 OFFCURVE",
"467 813 CURVE SMOOTH",
"467 780 OFFCURVE",
"445 750 OFFCURVE",
"413 750 CURVE SMOOTH",
"409 750 OFFCURVE",
"401 750 OFFCURVE",
"390 751 CURVE SMOOTH",
"378 752 OFFCURVE",
"369 752 OFFCURVE",
"362 752 CURVE SMOOTH",
"342 752 OFFCURVE",
"328 747 OFFCURVE",
"320 737 CURVE",
"320 105 LINE",
"390 109 OFFCURVE",
"428 111 OFFCURVE",
"434 111 CURVE SMOOTH",
"512 111 OFFCURVE",
"551 93 OFFCURVE",
"551 57 CURVE SMOOTH"
);
}
);
width = 738;
}
);
note = Ecircumflex;
unicode = 00CA;
},
{
glyphname = Edieresis;
lastChange = "2015-11-01 09:31:29 +0000";
layers = (
{
layerId = "156B637B-193E-48A3-AAC8-7B4A3960F885";
name = "Bold Condensed";
paths = (
{
closed = 1;
nodes = (
"411 1822 OFFCURVE",
"447 1860 OFFCURVE",
"488 1860 CURVE SMOOTH",
"527 1860 OFFCURVE",
"561 1822 OFFCURVE",
"561 1783 CURVE SMOOTH",
"561 1738 OFFCURVE",
"527 1708 OFFCURVE",
"480 1708 CURVE SMOOTH",
"443 1708 OFFCURVE",
"411 1744 OFFCURVE",
"411 1781 CURVE SMOOTH"
);
},
{
closed = 1;
nodes = (
"81 1832 OFFCURVE",
"117 1870 OFFCURVE",
"158 1870 CURVE SMOOTH",
"197 1870 OFFCURVE",
"231 1832 OFFCURVE",
"231 1793 CURVE SMOOTH",
"231 1748 OFFCURVE",
"197 1718 OFFCURVE",
"150 1718 CURVE SMOOTH",
"113 1718 OFFCURVE",
"81 1754 OFFCURVE",
"81 1791 CURVE SMOOTH"
);
},
{
closed = 1;
nodes = (
"551 50 LINE",
"532 13 OFFCURVE",
"478 -7 OFFCURVE",
"443 -10 CURVE SMOOTH",
"426 -11 OFFCURVE",
"403 -12 OFFCURVE",
"376 -12 CURVE SMOOTH",
"312 -12 LINE SMOOTH",
"281 -12 OFFCURVE",
"267 -11 OFFCURVE",
"244 -3 CURVE SMOOTH",
"221 5 OFFCURVE",
"210 24 OFFCURVE",
"210 55 CURVE SMOOTH",
"210 1245 LINE SMOOTH",
"210 1268 OFFCURVE",
"205 1303 OFFCURVE",
"196 1349 CURVE SMOOTH",
"187 1395 OFFCURVE",
"182 1430 OFFCURVE",
"182 1454 CURVE SMOOTH",
"182 1461 LINE",
"205 1498 OFFCURVE",
"222 1522 OFFCURVE",
"233 1533 CURVE",
"250 1533 OFFCURVE",
"275 1536 OFFCURVE",
"309 1542 CURVE SMOOTH",
"343 1548 OFFCURVE",
"368 1551 OFFCURVE",
"385 1551 CURVE SMOOTH",
"426 1551 OFFCURVE",
"479 1524 OFFCURVE",
"479 1484 CURVE SMOOTH",
"479 1443 OFFCURVE",
"448 1423 OFFCURVE",
"386 1423 CURVE SMOOTH",
"379 1423 OFFCURVE",
"370 1423 OFFCURVE",
"357 1424 CURVE SMOOTH",
"344 1425 OFFCURVE",
"334 1425 OFFCURVE",
"327 1425 CURVE SMOOTH",
"317 1425 OFFCURVE",
"310 1425 OFFCURVE",
"305 1424 CURVE",
"305 1387 OFFCURVE",
"308 1330 OFFCURVE",
"313 1255 CURVE SMOOTH",
"318 1180 OFFCURVE",
"321 1123 OFFCURVE",
"321 1086 CURVE SMOOTH",
"321 1059 OFFCURVE",
"319 1019 OFFCURVE",
"316 967 CURVE SMOOTH",
"313 914 OFFCURVE",
"311 876 OFFCURVE",
"311 852 CURVE",
"318 853 OFFCURVE",
"328 856 OFFCURVE",
"341 859 CURVE",
"366 866 OFFCURVE",
"387 870 OFFCURVE",
"407 870 CURVE SMOOTH",
"438 870 OFFCURVE",
"467 844 OFFCURVE",
"467 813 CURVE SMOOTH",
"467 780 OFFCURVE",
"445 750 OFFCURVE",
"413 750 CURVE SMOOTH",
"409 750 OFFCURVE",
"401 750 OFFCURVE",
"390 751 CURVE SMOOTH",
"378 752 OFFCURVE",
"369 752 OFFCURVE",
"362 752 CURVE SMOOTH",
"342 752 OFFCURVE",
"328 747 OFFCURVE",
"320 737 CURVE",
"320 105 LINE",
"390 109 OFFCURVE",
"428 111 OFFCURVE",
"434 111 CURVE SMOOTH",
"512 111 OFFCURVE",
"551 93 OFFCURVE",
"551 57 CURVE SMOOTH"
);
}
);
width = 738;
}
);
note = Edieresis;
unicode = 00CB;
},
{
glyphname = Edotaccent;
lastChange = "2015-11-01 09:31:29 +0000";
layers = (
{
layerId = "156B637B-193E-48A3-AAC8-7B4A3960F885";
name = "Bold Condensed";
paths = (
{
closed = 1;
nodes = (
"272 1556 OFFCURVE",
"308 1594 OFFCURVE",
"349 1594 CURVE SMOOTH",
"388 1594 OFFCURVE",
"422 1556 OFFCURVE",
"422 1517 CURVE SMOOTH",
"422 1472 OFFCURVE",
"388 1442 OFFCURVE",
"341 1442 CURVE SMOOTH",
"304 1442 OFFCURVE",
"272 1478 OFFCURVE",
"272 1515 CURVE SMOOTH"
);
},
{
closed = 1;
nodes = (
"551 50 LINE",
"532 13 OFFCURVE",
"478 -7 OFFCURVE",
"443 -10 CURVE SMOOTH",
"426 -11 OFFCURVE",
"403 -12 OFFCURVE",
"376 -12 CURVE SMOOTH",
"312 -12 LINE SMOOTH",
"281 -12 OFFCURVE",
"267 -11 OFFCURVE",
"244 -3 CURVE SMOOTH",
"221 5 OFFCURVE",
"210 24 OFFCURVE",
"210 55 CURVE SMOOTH",
"210 1245 LINE SMOOTH",
"210 1268 OFFCURVE",
"205 1303 OFFCURVE",
"196 1349 CURVE SMOOTH",
"187 1395 OFFCURVE",
"182 1430 OFFCURVE",
"182 1454 CURVE SMOOTH",
"182 1461 LINE",
"205 1498 OFFCURVE",
"222 1522 OFFCURVE",
"233 1533 CURVE",
"250 1533 OFFCURVE",
"275 1536 OFFCURVE",
"309 1542 CURVE SMOOTH",
"343 1548 OFFCURVE",
"368 1551 OFFCURVE",
"385 1551 CURVE SMOOTH",
"426 1551 OFFCURVE",
"479 1524 OFFCURVE",
"479 1484 CURVE SMOOTH",
"479 1443 OFFCURVE",
"448 1423 OFFCURVE",
"386 1423 CURVE SMOOTH",
"379 1423 OFFCURVE",
"370 1423 OFFCURVE",
"357 1424 CURVE SMOOTH",
"344 1425 OFFCURVE",
"334 1425 OFFCURVE",
"327 1425 CURVE SMOOTH",
"317 1425 OFFCURVE",
"310 1425 OFFCURVE",
"305 1424 CURVE",
"305 1387 OFFCURVE",
"308 1330 OFFCURVE",
"313 1255 CURVE SMOOTH",
"318 1180 OFFCURVE",
"321 1123 OFFCURVE",
"321 1086 CURVE SMOOTH",
"321 1059 OFFCURVE",
"319 1019 OFFCURVE",
"316 967 CURVE SMOOTH",
"313 914 OFFCURVE",
"311 876 OFFCURVE",
"311 852 CURVE",
"318 853 OFFCURVE",
"328 856 OFFCURVE",
"341 859 CURVE",
"366 866 OFFCURVE",
"387 870 OFFCURVE",
"407 870 CURVE SMOOTH",
"438 870 OFFCURVE",
"467 844 OFFCURVE",
"467 813 CURVE SMOOTH",
"467 780 OFFCURVE",
"445 750 OFFCURVE",
"413 750 CURVE SMOOTH",
"409 750 OFFCURVE",
"401 750 OFFCURVE",
"390 751 CURVE SMOOTH",
"378 752 OFFCURVE",
"369 752 OFFCURVE",
"362 752 CURVE SMOOTH",
"342 752 OFFCURVE",
"328 747 OFFCURVE",
"320 737 CURVE",
"320 105 LINE",
"390 109 OFFCURVE",
"428 111 OFFCURVE",
"434 111 CURVE SMOOTH",
"512 111 OFFCURVE",
"551 93 OFFCURVE",
"551 57 CURVE SMOOTH"
);
}
);
width = 738;
}
);
note = Edotaccent;
unicode = 0116;
},
{
glyphname = Egrave;
lastChange = "2015-11-01 09:31:29 +0000";
layers = (
{
layerId = "156B637B-193E-48A3-AAC8-7B4A3960F885";
name = "Bold Condensed";
paths = (
{
closed = 1;
nodes = (
"102 1935 OFFCURVE",
"402 1776 OFFCURVE",
"402 1740 CURVE SMOOTH",
"402 1731 OFFCURVE",
"397 1726 OFFCURVE",
"387 1726 CURVE SMOOTH",
"342 1726 OFFCURVE",
"9 1831 OFFCURVE",
"9 1855 CURVE SMOOTH",
"9 1886 OFFCURVE",
"44 1935 OFFCURVE",
"77 1935 CURVE SMOOTH"
);
},
{
closed = 1;
nodes = (
"551 50 LINE",
"532 13 OFFCURVE",
"478 -7 OFFCURVE",
"443 -10 CURVE SMOOTH",
"426 -11 OFFCURVE",
"403 -12 OFFCURVE",
"376 -12 CURVE SMOOTH",
"312 -12 LINE SMOOTH",
"281 -12 OFFCURVE",
"267 -11 OFFCURVE",
"244 -3 CURVE SMOOTH",
"221 5 OFFCURVE",
"210 24 OFFCURVE",
"210 55 CURVE SMOOTH",
"210 1245 LINE SMOOTH",
"210 1268 OFFCURVE",
"205 1303 OFFCURVE",
"196 1349 CURVE SMOOTH",
"187 1395 OFFCURVE",
"182 1430 OFFCURVE",
"182 1454 CURVE SMOOTH",
"182 1461 LINE",
"205 1498 OFFCURVE",
"222 1522 OFFCURVE",
"233 1533 CURVE",
"250 1533 OFFCURVE",
"275 1536 OFFCURVE",
"309 1542 CURVE SMOOTH",
"343 1548 OFFCURVE",
"368 1551 OFFCURVE",
"385 1551 CURVE SMOOTH",
"426 1551 OFFCURVE",
"479 1524 OFFCURVE",
"479 1484 CURVE SMOOTH",
"479 1443 OFFCURVE",
"448 1423 OFFCURVE",
"386 1423 CURVE SMOOTH",
"379 1423 OFFCURVE",
"370 1423 OFFCURVE",
"357 1424 CURVE SMOOTH",
"344 1425 OFFCURVE",
"334 1425 OFFCURVE",
"327 1425 CURVE SMOOTH",
"317 1425 OFFCURVE",
"310 1425 OFFCURVE",
"305 1424 CURVE",
"305 1387 OFFCURVE",
"308 1330 OFFCURVE",
"313 1255 CURVE SMOOTH",
"318 1180 OFFCURVE",
"321 1123 OFFCURVE",
"321 1086 CURVE SMOOTH",
"321 1059 OFFCURVE",
"319 1019 OFFCURVE",
"316 967 CURVE SMOOTH",
"313 914 OFFCURVE",
"311 876 OFFCURVE",
"311 852 CURVE",
"318 853 OFFCURVE",
"328 856 OFFCURVE",
"341 859 CURVE",
"366 866 OFFCURVE",
"387 870 OFFCURVE",
"407 870 CURVE SMOOTH",
"438 870 OFFCURVE",
"467 844 OFFCURVE",
"467 813 CURVE SMOOTH",
"467 780 OFFCURVE",
"445 750 OFFCURVE",
"413 750 CURVE SMOOTH",
"409 750 OFFCURVE",
"401 750 OFFCURVE",
"390 751 CURVE SMOOTH",
"378 752 OFFCURVE",
"369 752 OFFCURVE",
"362 752 CURVE SMOOTH",
"342 752 OFFCURVE",
"328 747 OFFCURVE",
"320 737 CURVE",
"320 105 LINE",
"390 109 OFFCURVE",
"428 111 OFFCURVE",
"434 111 CURVE SMOOTH",
"512 111 OFFCURVE",
"551 93 OFFCURVE",
"551 57 CURVE SMOOTH"
);
}
);
width = 738;
}
);
note = Egrave;
unicode = 00C8;
},
{
glyphname = Emacron;
lastChange = "2015-11-01 09:31:29 +0000";
layers = (
{
layerId = "156B637B-193E-48A3-AAC8-7B4A3960F885";
name = "Bold Condensed";
paths = (
{
closed = 1;
nodes = (
"547 1735 OFFCURVE",
"541 1725 OFFCURVE",
"529 1711 CURVE SMOOTH",
"517 1697 OFFCURVE",
"490 1687 OFFCURVE",
"457 1687 CURVE SMOOTH",
"219 1687 LINE SMOOTH",
"179 1687 OFFCURVE",
"148 1712 OFFCURVE",
"148 1739 CURVE SMOOTH",
"148 1760 OFFCURVE",
"170 1777 OFFCURVE",
"214 1777 CURVE SMOOTH",
"440 1777 LINE SMOOTH",
"491 1777 OFFCURVE",
"504 1777 OFFCURVE",
"525 1773 CURVE SMOOTH",
"545 1769 OFFCURVE",
"548 1760 OFFCURVE",
"548 1744 CURVE"
);
},
{
closed = 1;
nodes = (
"551 50 LINE",
"532 13 OFFCURVE",
"478 -7 OFFCURVE",
"443 -10 CURVE SMOOTH",
"426 -11 OFFCURVE",
"403 -12 OFFCURVE",
"376 -12 CURVE SMOOTH",
"312 -12 LINE SMOOTH",
"281 -12 OFFCURVE",
"267 -11 OFFCURVE",
"244 -3 CURVE SMOOTH",
"221 5 OFFCURVE",
"210 24 OFFCURVE",
"210 55 CURVE SMOOTH",
"210 1245 LINE SMOOTH",
"210 1268 OFFCURVE",
"205 1303 OFFCURVE",
"196 1349 CURVE SMOOTH",
"187 1395 OFFCURVE",
"182 1430 OFFCURVE",
"182 1454 CURVE SMOOTH",
"182 1461 LINE",
"205 1498 OFFCURVE",
"222 1522 OFFCURVE",
"233 1533 CURVE",
"250 1533 OFFCURVE",
"275 1536 OFFCURVE",
"309 1542 CURVE SMOOTH",
"343 1548 OFFCURVE",
"368 1551 OFFCURVE",
"385 1551 CURVE SMOOTH",
"426 1551 OFFCURVE",
"479 1524 OFFCURVE",
"479 1484 CURVE SMOOTH",
"479 1443 OFFCURVE",
"448 1423 OFFCURVE",
"386 1423 CURVE SMOOTH",
"379 1423 OFFCURVE",
"370 1423 OFFCURVE",
"357 1424 CURVE SMOOTH",
"344 1425 OFFCURVE",
"334 1425 OFFCURVE",
"327 1425 CURVE SMOOTH",
"317 1425 OFFCURVE",
"310 1425 OFFCURVE",
"305 1424 CURVE",
"305 1387 OFFCURVE",
"308 1330 OFFCURVE",
"313 1255 CURVE SMOOTH",
"318 1180 OFFCURVE",
"321 1123 OFFCURVE",
"321 1086 CURVE SMOOTH",
"321 1059 OFFCURVE",
"319 1019 OFFCURVE",
"316 967 CURVE SMOOTH",
"313 914 OFFCURVE",
"311 876 OFFCURVE",
"311 852 CURVE",
"318 853 OFFCURVE",
"328 856 OFFCURVE",
"341 859 CURVE",
"366 866 OFFCURVE",
"387 870 OFFCURVE",
"407 870 CURVE SMOOTH",
"438 870 OFFCURVE",
"467 844 OFFCURVE",
"467 813 CURVE SMOOTH",
"467 780 OFFCURVE",
"445 750 OFFCURVE",
"413 750 CURVE SMOOTH",
"409 750 OFFCURVE",
"401 750 OFFCURVE",
"390 751 CURVE SMOOTH",
"378 752 OFFCURVE",
"369 752 OFFCURVE",
"362 752 CURVE SMOOTH",
"342 752 OFFCURVE",
"328 747 OFFCURVE",
"320 737 CURVE",
"320 105 LINE",
"390 109 OFFCURVE",
"428 111 OFFCURVE",
"434 111 CURVE SMOOTH",
"512 111 OFFCURVE",
"551 93 OFFCURVE",
"551 57 CURVE SMOOTH"
);
}
);
width = 738;
}
);
note = Emacron;
unicode = 0112;
},
{
glyphname = Eogonek;
lastChange = "2015-11-01 09:31:29 +0000";
layers = (
{
layerId = "156B637B-193E-48A3-AAC8-7B4A3960F885";
name = "Bold Condensed";
paths = (
{
closed = 1;
nodes = (
"449 12 LINE",
"330 -87 OFFCURVE",
"271 -174 OFFCURVE",
"271 -250 CURVE SMOOTH",
"271 -263 OFFCURVE",
"273 -278 OFFCURVE",
"282 -291 CURVE",
"286 -298 OFFCURVE",
"291 -301 OFFCURVE",
"298 -301 CURVE SMOOTH",
"325 -301 OFFCURVE",
"353 -290 OFFCURVE",
"384 -268 CURVE",
"398 -302 LINE",
"398 -338 OFFCURVE",
"332 -366 OFFCURVE",
"292 -366 CURVE SMOOTH",
"236 -366 OFFCURVE",
"201 -316 OFFCURVE",
"201 -259 CURVE SMOOTH",
"201 -151 OFFCURVE",
"285 -55 OFFCURVE",
"394 12 CURVE"
);
},
{
closed = 1;
nodes = (
"551 50 LINE",
"532 13 OFFCURVE",
"478 -7 OFFCURVE",
"443 -10 CURVE SMOOTH",
"426 -11 OFFCURVE",
"403 -12 OFFCURVE",
"376 -12 CURVE SMOOTH",
"312 -12 LINE SMOOTH",
"281 -12 OFFCURVE",
"267 -11 OFFCURVE",
"244 -3 CURVE SMOOTH",
"221 5 OFFCURVE",
"210 24 OFFCURVE",
"210 55 CURVE SMOOTH",
"210 1245 LINE SMOOTH",
"210 1268 OFFCURVE",
"205 1303 OFFCURVE",
"196 1349 CURVE SMOOTH",
"187 1395 OFFCURVE",
"182 1430 OFFCURVE",
"182 1454 CURVE SMOOTH",
"182 1461 LINE",
"205 1498 OFFCURVE",
"222 1522 OFFCURVE",
"233 1533 CURVE",
"250 1533 OFFCURVE",
"275 1536 OFFCURVE",
"309 1542 CURVE SMOOTH",
"343 1548 OFFCURVE",
"368 1551 OFFCURVE",
"385 1551 CURVE SMOOTH",
"426 1551 OFFCURVE",
"479 1524 OFFCURVE",
"479 1484 CURVE SMOOTH",
"479 1443 OFFCURVE",
"448 1423 OFFCURVE",
"386 1423 CURVE SMOOTH",
"379 1423 OFFCURVE",
"370 1423 OFFCURVE",
"357 1424 CURVE SMOOTH",
"344 1425 OFFCURVE",
"334 1425 OFFCURVE",
"327 1425 CURVE SMOOTH",
"317 1425 OFFCURVE",
"310 1425 OFFCURVE",
"305 1424 CURVE",
"305 1387 OFFCURVE",
"308 1330 OFFCURVE",
"313 1255 CURVE SMOOTH",
"318 1180 OFFCURVE",
"321 1123 OFFCURVE",
"321 1086 CURVE SMOOTH",
"321 1059 OFFCURVE",
"319 1019 OFFCURVE",
"316 967 CURVE SMOOTH",
"313 914 OFFCURVE",
"311 876 OFFCURVE",
"311 852 CURVE",
"318 853 OFFCURVE",
"328 856 OFFCURVE",
"341 859 CURVE",
"366 866 OFFCURVE",
"387 870 OFFCURVE",
"407 870 CURVE SMOOTH",
"438 870 OFFCURVE",
"467 844 OFFCURVE",
"467 813 CURVE SMOOTH",
"467 780 OFFCURVE",
"445 750 OFFCURVE",
"413 750 CURVE SMOOTH",
"409 750 OFFCURVE",
"401 750 OFFCURVE",
"390 751 CURVE SMOOTH",
"378 752 OFFCURVE",
"369 752 OFFCURVE",
"362 752 CURVE SMOOTH",
"342 752 OFFCURVE",
"328 747 OFFCURVE",
"320 737 CURVE",
"320 105 LINE",
"390 109 OFFCURVE",
"428 111 OFFCURVE",
"434 111 CURVE SMOOTH",
"512 111 OFFCURVE",
"551 93 OFFCURVE",
"551 57 CURVE SMOOTH"
);
}
);
width = 738;
}
);
note = Eogonek;
unicode = 0118;
},
{
glyphname = F;
lastChange = "2015-11-01 09:31:29 +0000";
layers = (
{
layerId = "156B637B-193E-48A3-AAC8-7B4A3960F885";
name = "Bold Condensed";
paths = (
{
closed = 1;
nodes = (
"363 73 OFFCURVE",
"364 65 OFFCURVE",
"364 56 CURVE SMOOTH",
"364 21 OFFCURVE",
"336 -2 OFFCURVE",
"295 -2 CURVE SMOOTH",
"256 -2 OFFCURVE",
"236 42 OFFCURVE",
"236 129 CURVE SMOOTH",
"236 389 OFFCURVE",
"202 1397 OFFCURVE",
"174 1440 CURVE",
"174 1483 OFFCURVE",
"195 1512 OFFCURVE",
"219 1528 CURVE SMOOTH",
"243 1543 OFFCURVE",
"290 1552 OFFCURVE",
"319 1553 CURVE",
"333 1554 OFFCURVE",
"351 1554 OFFCURVE",
"372 1554 CURVE SMOOTH",
"431 1554 OFFCURVE",
"459 1540 OFFCURVE",
"459 1484 CURVE SMOOTH",
"459 1455 OFFCURVE",
"433 1440 OFFCURVE",
"402 1440 CURVE SMOOTH",
"400 1440 OFFCURVE",
"393 1440 OFFCURVE",
"382 1441 CURVE SMOOTH",
"370 1442 OFFCURVE",
"360 1442 OFFCURVE",
"352 1442 CURVE SMOOTH",
"314 1442 OFFCURVE",
"295 1434 OFFCURVE",
"295 1419 CURVE SMOOTH",
"295 1356 OFFCURVE",
"300 1263 OFFCURVE",
"310 1141 CURVE SMOOTH",
"320 1018 OFFCURVE",
"325 928 OFFCURVE",
"326 869 CURVE",
"331 870 OFFCURVE",
"409 891 OFFCURVE",
"440 891 CURVE SMOOTH",
"471 891 OFFCURVE",
"496 860 OFFCURVE",
"496 828 CURVE SMOOTH",
"496 809 OFFCURVE",
"488 795 OFFCURVE",
"470 787 CURVE",
"452 778 OFFCURVE",
"438 771 OFFCURVE",
"411 768 CURVE",
"384 764 OFFCURVE",
"376 763 OFFCURVE",
"349 762 CURVE",
"336 761 OFFCURVE",
"328 761 OFFCURVE",
"326 761 CURVE",
"326 687 OFFCURVE",
"333 576 OFFCURVE",
"346 428 CURVE SMOOTH",
"359 280 OFFCURVE",
"365 169 OFFCURVE",
"365 94 CURVE SMOOTH",
"365 93 OFFCURVE",
"364 90 OFFCURVE",
"363 87 CURVE",
"361 84 OFFCURVE",
"360 82 OFFCURVE",
"360 81 CURVE"
);
}
);
width = 702;
}
);
note = F;
unicode = 0046;
},
{
glyphname = G;
lastChange = "2015-11-01 09:31:29 +0000";
layers = (
{
layerId = "156B637B-193E-48A3-AAC8-7B4A3960F885";
name = "Bold Condensed";
paths = (
{
closed = 1;
nodes = (
"685 4 LINE",
"677 1 OFFCURVE",
"662 -7 OFFCURVE",
"640 -19 CURVE SMOOTH",
"596 -43 OFFCURVE",
"567 -54 OFFCURVE",
"534 -54 CURVE SMOOTH",
"458 -54 OFFCURVE",
"394 -26 OFFCURVE",
"348 14 CURVE SMOOTH",
"302 53 OFFCURVE",
"264 122 OFFCURVE",
"240 183 CURVE SMOOTH",
"216 244 OFFCURVE",
"199 337 OFFCURVE",
"191 402 CURVE SMOOTH",
"182 467 OFFCURVE",
"176 567 OFFCURVE",
"176 619 CURVE",
"175 645 OFFCURVE",
"175 676 OFFCURVE",
"175 711 CURVE SMOOTH",
"175 724 OFFCURVE",
"175 747 OFFCURVE",
"175 781 CURVE",
"174 815 OFFCURVE",
"174 842 OFFCURVE",
"174 862 CURVE SMOOTH",
"174 937 OFFCURVE",
"176 992 OFFCURVE",
"181 1073 CURVE SMOOTH",
"186 1153 OFFCURVE",
"196 1214 OFFCURVE",
"214 1287 CURVE SMOOTH",
"232 1360 OFFCURVE",
"254 1414 OFFCURVE",
"290 1467 CURVE SMOOTH",
"325 1520 OFFCURVE",
"368 1555 OFFCURVE",
"428 1576 CURVE SMOOTH",
"457 1586 OFFCURVE",
"490 1591 OFFCURVE",
"525 1591 CURVE SMOOTH",
"582 1591 OFFCURVE",
"610 1572 OFFCURVE",
"610 1533 CURVE SMOOTH",
"610 1504 OFFCURVE",
"585 1485 OFFCURVE",
"556 1485 CURVE SMOOTH",
"549 1485 OFFCURVE",
"540 1487 OFFCURVE",
"527 1490 CURVE SMOOTH",
"514 1493 OFFCURVE",
"504 1495 OFFCURVE",
"497 1495 CURVE SMOOTH",
"446 1495 OFFCURVE",
"404 1462 OFFCURVE",
"376 1403 CURVE SMOOTH",
"348 1343 OFFCURVE",
"325 1278 OFFCURVE",
"313 1187 CURVE SMOOTH",
"300 1096 OFFCURVE",
"291 1030 OFFCURVE",
"288 938 CURVE SMOOTH",
"284 845 OFFCURVE",
"284 807 OFFCURVE",
"284 744 CURVE SMOOTH",
"284 734 OFFCURVE",
"284 715 OFFCURVE",
"284 688 CURVE",
"283 660 OFFCURVE",
"283 636 OFFCURVE",
"283 617 CURVE SMOOTH",
"283 544 OFFCURVE",
"284 491 OFFCURVE",
"292 411 CURVE SMOOTH",
"300 330 OFFCURVE",
"312 271 OFFCURVE",
"337 206 CURVE SMOOTH",
"361 141 OFFCURVE",
"393 99 OFFCURVE",
"445 72 CURVE SMOOTH",
"470 58 OFFCURVE",
"499 51 OFFCURVE",
"530 51 CURVE SMOOTH",
"591 51 OFFCURVE",
"641 80 OFFCURVE",
"681 137 CURVE",
"680 217 OFFCURVE",
"669 334 OFFCURVE",
"648 371 CURVE",
"647 371 OFFCURVE",
"636 370 OFFCURVE",
"616 367 CURVE SMOOTH",
"595 364 OFFCURVE",
"579 363 OFFCURVE",
"568 363 CURVE SMOOTH",
"521 363 OFFCURVE",
"498 382 OFFCURVE",
"498 421 CURVE SMOOTH",
"498 448 OFFCURVE",
"531 467 OFFCURVE",
"573 476 CURVE SMOOTH",
"615 485 OFFCURVE",
"650 489 OFFCURVE",
"675 489 CURVE SMOOTH",
"732 489 OFFCURVE",
"762 440 OFFCURVE",
"762 380 CURVE SMOOTH",
"762 339 OFFCURVE",
"769 278 OFFCURVE",
"783 197 CURVE SMOOTH",
"796 116 OFFCURVE",
"803 56 OFFCURVE",
"803 15 CURVE SMOOTH",
"803 -16 OFFCURVE",
"782 -41 OFFCURVE",
"753 -41 CURVE SMOOTH",
"719 -41 OFFCURVE",
"696 -27 OFFCURVE",
"685 2 CURVE"
);
}
);
width = 914;
}
);
note = G;
unicode = 0047;
},
{
glyphname = Gbreve;
lastChange = "2015-11-01 09:31:29 +0000";
layers = (
{
layerId = "156B637B-193E-48A3-AAC8-7B4A3960F885";
name = "Bold Condensed";
paths = (
{
closed = 1;
nodes = (
"660 1777 OFFCURVE",
"607 1704 OFFCURVE",
"508 1704 CURVE SMOOTH",
"444 1704 OFFCURVE",
"396 1736 OFFCURVE",
"371 1785 CURVE SMOOTH",
"346 1833 OFFCURVE",
"335 1887 OFFCURVE",
"335 1947 CURVE SMOOTH",
"335 1964 OFFCURVE",
"350 1979 OFFCURVE",
"373 1979 CURVE SMOOTH",
"405 1979 OFFCURVE",
"431 1934 OFFCURVE",
"444 1889 CURVE SMOOTH",
"456 1844 OFFCURVE",
"477 1799 OFFCURVE",
"502 1799 CURVE SMOOTH",
"551 1799 OFFCURVE",
"572 1856 OFFCURVE",
"572 1893 CURVE SMOOTH",
"572 1944 OFFCURVE",
"583 1970 OFFCURVE",
"630 1970 CURVE SMOOTH",
"658 1970 OFFCURVE",
"684 1946 OFFCURVE",
"684 1918 CURVE SMOOTH",
"684 1897 OFFCURVE",
"683 1880 OFFCURVE",
"680 1868 CURVE SMOOTH"
);
},
{
closed = 1;
nodes = (
"685 4 LINE",
"677 1 OFFCURVE",
"662 -7 OFFCURVE",
"640 -19 CURVE SMOOTH",
"596 -43 OFFCURVE",
"567 -54 OFFCURVE",
"534 -54 CURVE SMOOTH",
"458 -54 OFFCURVE",
"394 -26 OFFCURVE",
"348 14 CURVE SMOOTH",
"302 53 OFFCURVE",
"264 122 OFFCURVE",
"240 183 CURVE SMOOTH",
"216 244 OFFCURVE",
"199 337 OFFCURVE",
"191 402 CURVE SMOOTH",
"182 467 OFFCURVE",
"176 567 OFFCURVE",
"176 619 CURVE",
"175 645 OFFCURVE",
"175 676 OFFCURVE",
"175 711 CURVE SMOOTH",
"175 724 OFFCURVE",
"175 747 OFFCURVE",
"175 781 CURVE",
"174 815 OFFCURVE",
"174 842 OFFCURVE",
"174 862 CURVE SMOOTH",
"174 937 OFFCURVE",
"176 992 OFFCURVE",
"181 1073 CURVE SMOOTH",
"186 1153 OFFCURVE",
"196 1214 OFFCURVE",
"214 1287 CURVE SMOOTH",
"232 1360 OFFCURVE",
"254 1414 OFFCURVE",
"290 1467 CURVE SMOOTH",
"325 1520 OFFCURVE",
"368 1555 OFFCURVE",
"428 1576 CURVE SMOOTH",
"457 1586 OFFCURVE",
"490 1591 OFFCURVE",
"525 1591 CURVE SMOOTH",
"582 1591 OFFCURVE",
"610 1572 OFFCURVE",
"610 1533 CURVE SMOOTH",
"610 1504 OFFCURVE",
"585 1485 OFFCURVE",
"556 1485 CURVE SMOOTH",
"549 1485 OFFCURVE",
"540 1487 OFFCURVE",
"527 1490 CURVE SMOOTH",
"514 1493 OFFCURVE",
"504 1495 OFFCURVE",
"497 1495 CURVE SMOOTH",
"446 1495 OFFCURVE",
"404 1462 OFFCURVE",
"376 1403 CURVE SMOOTH",
"348 1343 OFFCURVE",
"325 1278 OFFCURVE",
"313 1187 CURVE SMOOTH",
"300 1096 OFFCURVE",
"291 1030 OFFCURVE",
"288 938 CURVE SMOOTH",
"284 845 OFFCURVE",
"284 807 OFFCURVE",
"284 744 CURVE SMOOTH",
"284 734 OFFCURVE",
"284 715 OFFCURVE",
"284 688 CURVE",
"283 660 OFFCURVE",
"283 636 OFFCURVE",
"283 617 CURVE SMOOTH",
"283 544 OFFCURVE",
"284 491 OFFCURVE",
"292 411 CURVE SMOOTH",
"300 330 OFFCURVE",
"312 271 OFFCURVE",
"337 206 CURVE SMOOTH",
"361 141 OFFCURVE",
"393 99 OFFCURVE",
"445 72 CURVE SMOOTH",
"470 58 OFFCURVE",
"499 51 OFFCURVE",
"530 51 CURVE SMOOTH",
"591 51 OFFCURVE",
"641 80 OFFCURVE",
"681 137 CURVE",
"680 217 OFFCURVE",
"669 334 OFFCURVE",
"648 371 CURVE",
"647 371 OFFCURVE",
"636 370 OFFCURVE",
"616 367 CURVE SMOOTH",
"595 364 OFFCURVE",
"579 363 OFFCURVE",
"568 363 CURVE SMOOTH",
"521 363 OFFCURVE",
"498 382 OFFCURVE",
"498 421 CURVE SMOOTH",
"498 448 OFFCURVE",
"531 467 OFFCURVE",
"573 476 CURVE SMOOTH",
"615 485 OFFCURVE",
"650 489 OFFCURVE",
"675 489 CURVE SMOOTH",
"732 489 OFFCURVE",
"762 440 OFFCURVE",
"762 380 CURVE SMOOTH",
"762 339 OFFCURVE",
"769 278 OFFCURVE",
"783 197 CURVE SMOOTH",
"796 116 OFFCURVE",
"803 56 OFFCURVE",
"803 15 CURVE SMOOTH",
"803 -16 OFFCURVE",
"782 -41 OFFCURVE",
"753 -41 CURVE SMOOTH",
"719 -41 OFFCURVE",
"696 -27 OFFCURVE",
"685 2 CURVE"
);
}
);
width = 914;
}
);
note = Gbreve;
unicode = 011E;
},
{
glyphname = Gcaron;
lastChange = "2015-11-01 09:31:29 +0000";
layers = (
{
layerId = "156B637B-193E-48A3-AAC8-7B4A3960F885";
name = "Bold Condensed";
paths = (
{
closed = 1;
nodes = (
"325 2074 OFFCURVE",
"349 2092 OFFCURVE",
"374 2092 CURVE SMOOTH",
"390 2092 OFFCURVE",
"407 2073 OFFCURVE",
"424 2034 CURVE SMOOTH",
"441 1995 OFFCURVE",
"458 1944 OFFCURVE",
"476 1881 CURVE SMOOTH",
"502 1787 LINE",
"505 1802 OFFCURVE",
"508 1825 OFFCURVE",
"511 1856 CURVE SMOOTH",
"518 1919 OFFCURVE",
"523 1964 OFFCURVE",
"535 2016 CURVE SMOOTH",
"546 2068 OFFCURVE",
"565 2099 OFFCURVE",
"592 2099 CURVE SMOOTH",
"616 2099 OFFCURVE",
"635 2083 OFFCURVE",
"635 2056 CURVE SMOOTH",
"635 2052 OFFCURVE",
"633 2047 OFFCURVE",
"628 2040 CURVE SMOOTH",
"623 2033 OFFCURVE",
"621 2028 OFFCURVE",
"620 2025 CURVE",
"620 1988 LINE",
"591 1876 LINE SMOOTH",
"572 1801 OFFCURVE",
"562 1753 OFFCURVE",
"562 1730 CURVE SMOOTH",
"562 1686 OFFCURVE",
"545 1664 OFFCURVE",
"510 1664 CURVE SMOOTH",
"457 1664 OFFCURVE",
"325 1977 OFFCURVE",
"325 2053 CURVE SMOOTH"
);
},
{
closed = 1;
nodes = (
"685 4 LINE",
"677 1 OFFCURVE",
"662 -7 OFFCURVE",
"640 -19 CURVE SMOOTH",
"596 -43 OFFCURVE",
"567 -54 OFFCURVE",
"534 -54 CURVE SMOOTH",
"458 -54 OFFCURVE",
"394 -26 OFFCURVE",
"348 14 CURVE SMOOTH",
"302 53 OFFCURVE",
"264 122 OFFCURVE",
"240 183 CURVE SMOOTH",
"216 244 OFFCURVE",
"199 337 OFFCURVE",
"191 402 CURVE SMOOTH",
"182 467 OFFCURVE",
"176 567 OFFCURVE",
"176 619 CURVE",
"175 645 OFFCURVE",
"175 676 OFFCURVE",
"175 711 CURVE SMOOTH",
"175 724 OFFCURVE",
"175 747 OFFCURVE",
"175 781 CURVE",
"174 815 OFFCURVE",
"174 842 OFFCURVE",
"174 862 CURVE SMOOTH",
"174 937 OFFCURVE",
"176 992 OFFCURVE",
"181 1073 CURVE SMOOTH",
"186 1153 OFFCURVE",
"196 1214 OFFCURVE",
"214 1287 CURVE SMOOTH",
"232 1360 OFFCURVE",
"254 1414 OFFCURVE",
"290 1467 CURVE SMOOTH",
"325 1520 OFFCURVE",
"368 1555 OFFCURVE",
"428 1576 CURVE SMOOTH",
"457 1586 OFFCURVE",
"490 1591 OFFCURVE",
"525 1591 CURVE SMOOTH",
"582 1591 OFFCURVE",
"610 1572 OFFCURVE",
"610 1533 CURVE SMOOTH",
"610 1504 OFFCURVE",
"585 1485 OFFCURVE",
"556 1485 CURVE SMOOTH",
"549 1485 OFFCURVE",
"540 1487 OFFCURVE",
"527 1490 CURVE SMOOTH",
"514 1493 OFFCURVE",
"504 1495 OFFCURVE",
"497 1495 CURVE SMOOTH",
"446 1495 OFFCURVE",
"404 1462 OFFCURVE",
"376 1403 CURVE SMOOTH",
"348 1343 OFFCURVE",
"325 1278 OFFCURVE",
"313 1187 CURVE SMOOTH",
"300 1096 OFFCURVE",
"291 1030 OFFCURVE",
"288 938 CURVE SMOOTH",
"284 845 OFFCURVE",
"284 807 OFFCURVE",
"284 744 CURVE SMOOTH",
"284 734 OFFCURVE",
"284 715 OFFCURVE",
"284 688 CURVE",
"283 660 OFFCURVE",
"283 636 OFFCURVE",
"283 617 CURVE SMOOTH",
"283 544 OFFCURVE",
"284 491 OFFCURVE",
"292 411 CURVE SMOOTH",
"300 330 OFFCURVE",
"312 271 OFFCURVE",
"337 206 CURVE SMOOTH",
"361 141 OFFCURVE",
"393 99 OFFCURVE",
"445 72 CURVE SMOOTH",
"470 58 OFFCURVE",
"499 51 OFFCURVE",
"530 51 CURVE SMOOTH",
"591 51 OFFCURVE",
"641 80 OFFCURVE",
"681 137 CURVE",
"680 217 OFFCURVE",
"669 334 OFFCURVE",
"648 371 CURVE",
"647 371 OFFCURVE",
"636 370 OFFCURVE",
"616 367 CURVE SMOOTH",
"595 364 OFFCURVE",
"579 363 OFFCURVE",
"568 363 CURVE SMOOTH",
"521 363 OFFCURVE",
"498 382 OFFCURVE",
"498 421 CURVE SMOOTH",
"498 448 OFFCURVE",
"531 467 OFFCURVE",
"573 476 CURVE SMOOTH",
"615 485 OFFCURVE",
"650 489 OFFCURVE",
"675 489 CURVE SMOOTH",
"732 489 OFFCURVE",
"762 440 OFFCURVE",
"762 380 CURVE SMOOTH",
"762 339 OFFCURVE",
"769 278 OFFCURVE",
"783 197 CURVE SMOOTH",
"796 116 OFFCURVE",
"803 56 OFFCURVE",
"803 15 CURVE SMOOTH",
"803 -16 OFFCURVE",
"782 -41 OFFCURVE",
"753 -41 CURVE SMOOTH",
"719 -41 OFFCURVE",
"696 -27 OFFCURVE",
"685 2 CURVE"
);
}
);
width = 914;
}
);
note = Gcaron;
unicode = 01E6;
},
{
glyphname = Gcircumflex;
lastChange = "2015-11-01 09:31:29 +0000";
layers = (
{
layerId = "156B637B-193E-48A3-AAC8-7B4A3960F885";
name = "Bold Condensed";
paths = (
{
closed = 1;
nodes = (
"407 1724 LINE",
"403 1715 OFFCURVE",
"393 1710 OFFCURVE",
"378 1710 CURVE SMOOTH",
"351 1710 OFFCURVE",
"326 1725 OFFCURVE",
"326 1750 CURVE SMOOTH",
"326 1757 OFFCURVE",
"327 1763 OFFCURVE",
"330 1769 CURVE",
"355 1829 OFFCURVE",
"388 1913 OFFCURVE",
"403 1950 CURVE SMOOTH",
"418 1987 OFFCURVE",
"440 2038 OFFCURVE",
"452 2058 CURVE SMOOTH",
"464 2078 OFFCURVE",
"482 2100 OFFCURVE",
"499 2107 CURVE SMOOTH",
"507 2110 OFFCURVE",
"516 2112 OFFCURVE",
"527 2112 CURVE SMOOTH",
"537 2112 OFFCURVE",
"547 2105 OFFCURVE",
"556 2092 CURVE SMOOTH",
"575 2065 OFFCURVE",
"594 2005 OFFCURVE",
"608 1954 CURVE SMOOTH",
"615 1928 OFFCURVE",
"623 1895 OFFCURVE",
"634 1855 CURVE SMOOTH",
"644 1814 OFFCURVE",
"653 1782 OFFCURVE",
"660 1757 CURVE SMOOTH",
"662 1750 OFFCURVE",
"663 1744 OFFCURVE",
"663 1739 CURVE SMOOTH",
"663 1711 OFFCURVE",
"640 1696 OFFCURVE",
"616 1696 CURVE SMOOTH",
"602 1696 OFFCURVE",
"593 1701 OFFCURVE",
"590 1710 CURVE",
"510 1986 LINE"
);
},
{
closed = 1;
nodes = (
"685 4 LINE",
"677 1 OFFCURVE",
"662 -7 OFFCURVE",
"640 -19 CURVE SMOOTH",
"596 -43 OFFCURVE",
"567 -54 OFFCURVE",
"534 -54 CURVE SMOOTH",
"458 -54 OFFCURVE",
"394 -26 OFFCURVE",
"348 14 CURVE SMOOTH",
"302 53 OFFCURVE",
"264 122 OFFCURVE",
"240 183 CURVE SMOOTH",
"216 244 OFFCURVE",
"199 337 OFFCURVE",
"191 402 CURVE SMOOTH",
"182 467 OFFCURVE",
"176 567 OFFCURVE",
"176 619 CURVE",
"175 645 OFFCURVE",
"175 676 OFFCURVE",
"175 711 CURVE SMOOTH",
"175 724 OFFCURVE",
"175 747 OFFCURVE",
"175 781 CURVE",
"174 815 OFFCURVE",
"174 842 OFFCURVE",
"174 862 CURVE SMOOTH",
"174 937 OFFCURVE",
"176 992 OFFCURVE",
"181 1073 CURVE SMOOTH",
"186 1153 OFFCURVE",
"196 1214 OFFCURVE",
"214 1287 CURVE SMOOTH",
"232 1360 OFFCURVE",
"254 1414 OFFCURVE",
"290 1467 CURVE SMOOTH",
"325 1520 OFFCURVE",
"368 1555 OFFCURVE",
"428 1576 CURVE SMOOTH",
"457 1586 OFFCURVE",
"490 1591 OFFCURVE",
"525 1591 CURVE SMOOTH",
"582 1591 OFFCURVE",
"610 1572 OFFCURVE",
"610 1533 CURVE SMOOTH",
"610 1504 OFFCURVE",
"585 1485 OFFCURVE",
"556 1485 CURVE SMOOTH",
"549 1485 OFFCURVE",
"540 1487 OFFCURVE",
"527 1490 CURVE SMOOTH",
"514 1493 OFFCURVE",
"504 1495 OFFCURVE",
"497 1495 CURVE SMOOTH",
"446 1495 OFFCURVE",
"404 1462 OFFCURVE",
"376 1403 CURVE SMOOTH",
"348 1343 OFFCURVE",
"325 1278 OFFCURVE",
"313 1187 CURVE SMOOTH",
"300 1096 OFFCURVE",
"291 1030 OFFCURVE",
"288 938 CURVE SMOOTH",
"284 845 OFFCURVE",
"284 807 OFFCURVE",
"284 744 CURVE SMOOTH",
"284 734 OFFCURVE",
"284 715 OFFCURVE",
"284 688 CURVE",
"283 660 OFFCURVE",
"283 636 OFFCURVE",
"283 617 CURVE SMOOTH",
"283 544 OFFCURVE",
"284 491 OFFCURVE",
"292 411 CURVE SMOOTH",
"300 330 OFFCURVE",
"312 271 OFFCURVE",
"337 206 CURVE SMOOTH",
"361 141 OFFCURVE",
"393 99 OFFCURVE",
"445 72 CURVE SMOOTH",
"470 58 OFFCURVE",
"499 51 OFFCURVE",
"530 51 CURVE SMOOTH",
"591 51 OFFCURVE",
"641 80 OFFCURVE",
"681 137 CURVE",
"680 217 OFFCURVE",
"669 334 OFFCURVE",
"648 371 CURVE",
"647 371 OFFCURVE",
"636 370 OFFCURVE",
"616 367 CURVE SMOOTH",
"595 364 OFFCURVE",
"579 363 OFFCURVE",
"568 363 CURVE SMOOTH",
"521 363 OFFCURVE",
"498 382 OFFCURVE",
"498 421 CURVE SMOOTH",
"498 448 OFFCURVE",
"531 467 OFFCURVE",
"573 476 CURVE SMOOTH",
"615 485 OFFCURVE",
"650 489 OFFCURVE",
"675 489 CURVE SMOOTH",
"732 489 OFFCURVE",
"762 440 OFFCURVE",
"762 380 CURVE SMOOTH",
"762 339 OFFCURVE",
"769 278 OFFCURVE",
"783 197 CURVE SMOOTH",
"796 116 OFFCURVE",
"803 56 OFFCURVE",
"803 15 CURVE SMOOTH",
"803 -16 OFFCURVE",
"782 -41 OFFCURVE",
"753 -41 CURVE SMOOTH",
"719 -41 OFFCURVE",
"696 -27 OFFCURVE",
"685 2 CURVE"
);
}
);
width = 914;
}
);
note = Gcircumflex;
unicode = 011C;
},
{
glyphname = Gdotaccent;
lastChange = "2015-11-01 09:31:29 +0000";
layers = (
{
layerId = "156B637B-193E-48A3-AAC8-7B4A3960F885";
name = "Bold Condensed";
paths = (
{
closed = 1;
nodes = (
"432 1814 OFFCURVE",
"468 1852 OFFCURVE",
"509 1852 CURVE SMOOTH",
"548 1852 OFFCURVE",
"582 1814 OFFCURVE",
"582 1775 CURVE SMOOTH",
"582 1730 OFFCURVE",
"548 1700 OFFCURVE",
"501 1700 CURVE SMOOTH",
"464 1700 OFFCURVE",
"432 1736 OFFCURVE",
"432 1773 CURVE SMOOTH"
);
},
{
closed = 1;
nodes = (
"685 4 LINE",
"677 1 OFFCURVE",
"662 -7 OFFCURVE",
"640 -19 CURVE SMOOTH",
"596 -43 OFFCURVE",
"567 -54 OFFCURVE",
"534 -54 CURVE SMOOTH",
"458 -54 OFFCURVE",
"394 -26 OFFCURVE",
"348 14 CURVE SMOOTH",
"302 53 OFFCURVE",
"264 122 OFFCURVE",
"240 183 CURVE SMOOTH",
"216 244 OFFCURVE",
"199 337 OFFCURVE",
"191 402 CURVE SMOOTH",
"182 467 OFFCURVE",
"176 567 OFFCURVE",
"176 619 CURVE",
"175 645 OFFCURVE",
"175 676 OFFCURVE",
"175 711 CURVE SMOOTH",
"175 724 OFFCURVE",
"175 747 OFFCURVE",
"175 781 CURVE",
"174 815 OFFCURVE",
"174 842 OFFCURVE",
"174 862 CURVE SMOOTH",
"174 937 OFFCURVE",
"176 992 OFFCURVE",
"181 1073 CURVE SMOOTH",
"186 1153 OFFCURVE",
"196 1214 OFFCURVE",
"214 1287 CURVE SMOOTH",
"232 1360 OFFCURVE",
"254 1414 OFFCURVE",
"290 1467 CURVE SMOOTH",
"325 1520 OFFCURVE",
"368 1555 OFFCURVE",
"428 1576 CURVE SMOOTH",
"457 1586 OFFCURVE",
"490 1591 OFFCURVE",
"525 1591 CURVE SMOOTH",
"582 1591 OFFCURVE",
"610 1572 OFFCURVE",
"610 1533 CURVE SMOOTH",
"610 1504 OFFCURVE",
"585 1485 OFFCURVE",
"556 1485 CURVE SMOOTH",
"549 1485 OFFCURVE",
"540 1487 OFFCURVE",
"527 1490 CURVE SMOOTH",
"514 1493 OFFCURVE",
"504 1495 OFFCURVE",
"497 1495 CURVE SMOOTH",
"446 1495 OFFCURVE",
"404 1462 OFFCURVE",
"376 1403 CURVE SMOOTH",
"348 1343 OFFCURVE",
"325 1278 OFFCURVE",
"313 1187 CURVE SMOOTH",
"300 1096 OFFCURVE",
"291 1030 OFFCURVE",
"288 938 CURVE SMOOTH",
"284 845 OFFCURVE",
"284 807 OFFCURVE",
"284 744 CURVE SMOOTH",
"284 734 OFFCURVE",
"284 715 OFFCURVE",
"284 688 CURVE",
"283 660 OFFCURVE",
"283 636 OFFCURVE",
"283 617 CURVE SMOOTH",
"283 544 OFFCURVE",
"284 491 OFFCURVE",
"292 411 CURVE SMOOTH",
"300 330 OFFCURVE",
"312 271 OFFCURVE",
"337 206 CURVE SMOOTH",
"361 141 OFFCURVE",
"393 99 OFFCURVE",
"445 72 CURVE SMOOTH",
"470 58 OFFCURVE",
"499 51 OFFCURVE",
"530 51 CURVE SMOOTH",
"591 51 OFFCURVE",
"641 80 OFFCURVE",
"681 137 CURVE",
"680 217 OFFCURVE",
"669 334 OFFCURVE",
"648 371 CURVE",
"647 371 OFFCURVE",
"636 370 OFFCURVE",
"616 367 CURVE SMOOTH",
"595 364 OFFCURVE",
"579 363 OFFCURVE",
"568 363 CURVE SMOOTH",
"521 363 OFFCURVE",
"498 382 OFFCURVE",
"498 421 CURVE SMOOTH",
"498 448 OFFCURVE",
"531 467 OFFCURVE",
"573 476 CURVE SMOOTH",
"615 485 OFFCURVE",
"650 489 OFFCURVE",
"675 489 CURVE SMOOTH",
"732 489 OFFCURVE",
"762 440 OFFCURVE",
"762 380 CURVE SMOOTH",
"762 339 OFFCURVE",
"769 278 OFFCURVE",
"783 197 CURVE SMOOTH",
"796 116 OFFCURVE",
"803 56 OFFCURVE",
"803 15 CURVE SMOOTH",
"803 -16 OFFCURVE",
"782 -41 OFFCURVE",
"753 -41 CURVE SMOOTH",
"719 -41 OFFCURVE",
"696 -27 OFFCURVE",
"685 2 CURVE"
);
}
);
width = 914;
}
);
note = Gdotaccent;
unicode = 0120;
},
{
glyphname = H;
lastChange = "2015-11-01 09:31:29 +0000";
layers = (
{
layerId = "156B637B-193E-48A3-AAC8-7B4A3960F885";
name = "Bold Condensed";
paths = (
{
closed = 1;
nodes = (
"174 1535 OFFCURVE",
"186 1547 OFFCURVE",
"209 1547 CURVE SMOOTH",
"234 1547 OFFCURVE",
"269 1530 OFFCURVE",
"281 1514 CURVE",
"276 1465 OFFCURVE",
"274 1414 OFFCURVE",
"274 1360 CURVE SMOOTH",
"274 1313 OFFCURVE",
"276 1243 OFFCURVE",
"281 1150 CURVE SMOOTH",
"286 1056 OFFCURVE",
"288 986 OFFCURVE",
"288 939 CURVE SMOOTH",
"288 931 OFFCURVE",
"288 918 OFFCURVE",
"287 901 CURVE SMOOTH",
"286 884 OFFCURVE",
"286 871 OFFCURVE",
"286 862 CURVE SMOOTH",
"286 843 OFFCURVE",
"287 825 OFFCURVE",
"290 809 CURVE",
"312 810 OFFCURVE",
"345 812 OFFCURVE",
"389 817 CURVE SMOOTH",
"433 821 OFFCURVE",
"466 823 OFFCURVE",
"489 824 CURVE",
"489 892 OFFCURVE",
"488 1001 OFFCURVE",
"485 1152 CURVE SMOOTH",
"482 1302 OFFCURVE",
"481 1417 OFFCURVE",
"481 1496 CURVE SMOOTH",
"481 1550 LINE",
"518 1550 OFFCURVE",
"546 1534 OFFCURVE",
"559 1517 CURVE SMOOTH",
"572 1500 OFFCURVE",
"579 1462 OFFCURVE",
"580 1439 CURVE",
"581 1428 OFFCURVE",
"581 1412 OFFCURVE",
"581 1393 CURVE SMOOTH",
"581 1243 OFFCURVE",
"588 1018 OFFCURVE",
"601 718 CURVE SMOOTH",
"614 417 OFFCURVE",
"620 192 OFFCURVE",
"620 43 CURVE SMOOTH",
"620 7 OFFCURVE",
"595 -31 OFFCURVE",
"560 -31 CURVE SMOOTH",
"524 -31 OFFCURVE",
"508 0 OFFCURVE",
"508 37 CURVE SMOOTH",
"508 297 OFFCURVE",
"502 538 OFFCURVE",
"490 759 CURVE",
"453 766 OFFCURVE",
"431 769 OFFCURVE",
"422 769 CURVE SMOOTH",
"367 769 OFFCURVE",
"326 764 OFFCURVE",
"301 753 CURVE",
"301 677 OFFCURVE",
"307 562 OFFCURVE",
"318 408 CURVE SMOOTH",
"329 254 OFFCURVE",
"335 138 OFFCURVE",
"335 59 CURVE SMOOTH",
"335 32 OFFCURVE",
"318 5 OFFCURVE",
"291 5 CURVE SMOOTH",
"273 5 OFFCURVE",
"257 36 OFFCURVE",
"243 99 CURVE SMOOTH",
"214 224 OFFCURVE",
"200 466 OFFCURVE",
"190 682 CURVE SMOOTH",
"180 898 OFFCURVE",
"176 1203 OFFCURVE",
"175 1329 CURVE SMOOTH",
"174 1392 OFFCURVE",
"174 1452 OFFCURVE",
"174 1510 CURVE SMOOTH"
);
}
);
width = 810;
}
);
note = H;
unicode = 0048;
},
{
glyphname = Hbar;
lastChange = "2015-11-01 09:31:29 +0000";
layers = (
{
layerId = "156B637B-193E-48A3-AAC8-7B4A3960F885";
name = "Bold Condensed";
paths = (
{
closed = 1;
nodes = (
"239 955 OFFCURVE",
"247 999 OFFCURVE",
"259 1018 CURVE",
"264 1027 OFFCURVE",
"270 1032 OFFCURVE",
"277 1032 CURVE SMOOTH",
"291 1032 OFFCURVE",
"304 1015 OFFCURVE",
"316 982 CURVE SMOOTH",
"327 949 OFFCURVE",
"333 907 OFFCURVE",
"333 856 CURVE SMOOTH",
"333 817 OFFCURVE",
"332 760 OFFCURVE",
"329 684 CURVE SMOOTH",
"326 608 OFFCURVE",
"325 552 OFFCURVE",
"325 517 CURVE SMOOTH",
"325 442 OFFCURVE",
"327 330 OFFCURVE",
"330 181 CURVE SMOOTH",
"333 32 OFFCURVE",
"335 -80 OFFCURVE",
"335 -155 CURVE SMOOTH",
"335 -198 OFFCURVE",
"292 -234 OFFCURVE",
"248 -234 CURVE SMOOTH",
"220 -234 OFFCURVE",
"198 -212 OFFCURVE",
"198 -184 CURVE SMOOTH",
"198 -75 OFFCURVE",
"205 89 OFFCURVE",
"220 306 CURVE SMOOTH",
"234 523 OFFCURVE",
"241 686 OFFCURVE",
"241 795 CURVE SMOOTH",
"241 806 OFFCURVE",
"241 822 OFFCURVE",
"240 844 CURVE SMOOTH",
"239 865 OFFCURVE",
"239 881 OFFCURVE",
"239 892 CURVE SMOOTH"
);
},
{
closed = 1;
nodes = (
"213 1360 OFFCURVE",
"247 1384 OFFCURVE",
"314 1384 CURVE SMOOTH",
"345 1384 OFFCURVE",
"382 1353 OFFCURVE",
"382 1305 CURVE SMOOTH",
"382 1258 OFFCURVE",
"344 1213 OFFCURVE",
"297 1213 CURVE SMOOTH",
"245 1213 OFFCURVE",
"213 1257 OFFCURVE",
"213 1312 CURVE SMOOTH"
);
}
);
width = 594;
}
);
note = Hbar;
unicode = 0126;
},
{
glyphname = Hcircumflex;
lastChange = "2015-11-01 09:31:29 +0000";
layers = (
{
layerId = "156B637B-193E-48A3-AAC8-7B4A3960F885";
name = "Bold Condensed";
paths = (
{
closed = 1;
nodes = (
"287 1724 LINE",
"283 1715 OFFCURVE",
"273 1710 OFFCURVE",
"258 1710 CURVE SMOOTH",
"231 1710 OFFCURVE",
"206 1725 OFFCURVE",
"206 1750 CURVE SMOOTH",
"206 1757 OFFCURVE",
"207 1763 OFFCURVE",
"210 1769 CURVE",
"235 1829 OFFCURVE",
"268 1913 OFFCURVE",
"283 1950 CURVE SMOOTH",
"298 1987 OFFCURVE",
"320 2038 OFFCURVE",
"332 2058 CURVE SMOOTH",
"344 2078 OFFCURVE",
"362 2100 OFFCURVE",
"379 2107 CURVE SMOOTH",
"387 2110 OFFCURVE",
"396 2112 OFFCURVE",
"407 2112 CURVE SMOOTH",
"417 2112 OFFCURVE",
"427 2105 OFFCURVE",
"436 2092 CURVE SMOOTH",
"455 2065 OFFCURVE",
"474 2005 OFFCURVE",
"488 1954 CURVE SMOOTH",
"495 1928 OFFCURVE",
"503 1895 OFFCURVE",
"514 1855 CURVE SMOOTH",
"524 1814 OFFCURVE",
"533 1782 OFFCURVE",
"540 1757 CURVE SMOOTH",
"542 1750 OFFCURVE",
"543 1744 OFFCURVE",
"543 1739 CURVE SMOOTH",
"543 1711 OFFCURVE",
"520 1696 OFFCURVE",
"496 1696 CURVE SMOOTH",
"482 1696 OFFCURVE",
"473 1701 OFFCURVE",
"470 1710 CURVE",
"390 1986 LINE"
);
},
{
closed = 1;
nodes = (
"174 1535 OFFCURVE",
"186 1547 OFFCURVE",
"209 1547 CURVE SMOOTH",
"234 1547 OFFCURVE",
"269 1530 OFFCURVE",
"281 1514 CURVE",
"276 1465 OFFCURVE",
"274 1414 OFFCURVE",
"274 1360 CURVE SMOOTH",
"274 1313 OFFCURVE",
"276 1243 OFFCURVE",
"281 1150 CURVE SMOOTH",
"286 1056 OFFCURVE",
"288 986 OFFCURVE",
"288 939 CURVE SMOOTH",
"288 931 OFFCURVE",
"288 918 OFFCURVE",
"287 901 CURVE SMOOTH",
"286 884 OFFCURVE",
"286 871 OFFCURVE",
"286 862 CURVE SMOOTH",
"286 843 OFFCURVE",
"287 825 OFFCURVE",
"290 809 CURVE",
"312 810 OFFCURVE",
"345 812 OFFCURVE",
"389 817 CURVE SMOOTH",
"433 821 OFFCURVE",
"466 823 OFFCURVE",
"489 824 CURVE",
"489 892 OFFCURVE",
"488 1001 OFFCURVE",
"485 1152 CURVE SMOOTH",
"482 1302 OFFCURVE",
"481 1417 OFFCURVE",
"481 1496 CURVE SMOOTH",
"481 1550 LINE",
"518 1550 OFFCURVE",
"546 1534 OFFCURVE",
"559 1517 CURVE SMOOTH",
"572 1500 OFFCURVE",
"579 1462 OFFCURVE",
"580 1439 CURVE",
"581 1428 OFFCURVE",
"581 1412 OFFCURVE",
"581 1393 CURVE SMOOTH",
"581 1243 OFFCURVE",
"588 1018 OFFCURVE",
"601 718 CURVE SMOOTH",
"614 417 OFFCURVE",
"620 192 OFFCURVE",
"620 43 CURVE SMOOTH",
"620 7 OFFCURVE",
"595 -31 OFFCURVE",
"560 -31 CURVE SMOOTH",
"524 -31 OFFCURVE",
"508 0 OFFCURVE",
"508 37 CURVE SMOOTH",
"508 297 OFFCURVE",
"502 538 OFFCURVE",
"490 759 CURVE",
"453 766 OFFCURVE",
"431 769 OFFCURVE",
"422 769 CURVE SMOOTH",
"367 769 OFFCURVE",
"326 764 OFFCURVE",
"301 753 CURVE",
"301 677 OFFCURVE",
"307 562 OFFCURVE",
"318 408 CURVE SMOOTH",
"329 254 OFFCURVE",
"335 138 OFFCURVE",
"335 59 CURVE SMOOTH",
"335 32 OFFCURVE",
"318 5 OFFCURVE",
"291 5 CURVE SMOOTH",
"273 5 OFFCURVE",
"257 36 OFFCURVE",
"243 99 CURVE SMOOTH",
"214 224 OFFCURVE",
"200 466 OFFCURVE",
"190 682 CURVE SMOOTH",
"180 898 OFFCURVE",
"176 1203 OFFCURVE",
"175 1329 CURVE SMOOTH",
"174 1392 OFFCURVE",
"174 1452 OFFCURVE",
"174 1510 CURVE SMOOTH"
);
}
);
width = 810;
}
);
note = Hcircumflex;
unicode = 0124;
},
{
glyphname = I;
lastChange = "2015-11-01 09:31:29 +0000";
layers = (
{
layerId = "156B637B-193E-48A3-AAC8-7B4A3960F885";
name = "Bold Condensed";
paths = (
{
closed = 1;
nodes = (
"466 8 LINE",
"463 8 OFFCURVE",
"445 7 OFFCURVE",
"412 6 CURVE SMOOTH",
"379 4 OFFCURVE",
"351 3 OFFCURVE",
"327 3 CURVE SMOOTH",
"209 3 OFFCURVE",
"150 23 OFFCURVE",
"150 64 CURVE SMOOTH",
"150 97 OFFCURVE",
"171 113 OFFCURVE",
"212 113 CURVE SMOOTH",
"218 113 OFFCURVE",
"226 113 OFFCURVE",
"236 112 CURVE SMOOTH",
"245 111 OFFCURVE",
"252 110 OFFCURVE",
"255 110 CURVE SMOOTH",
"276 110 OFFCURVE",
"285 121 OFFCURVE",
"285 158 CURVE SMOOTH",
"285 263 OFFCURVE",
"279 421 OFFCURVE",
"266 632 CURVE SMOOTH",
"253 842 OFFCURVE",
"247 1000 OFFCURVE",
"247 1105 CURVE SMOOTH",
"247 1128 OFFCURVE",
"248 1163 OFFCURVE",
"249 1210 CURVE SMOOTH",
"250 1256 OFFCURVE",
"251 1291 OFFCURVE",
"251 1314 CURVE SMOOTH",
"251 1358 OFFCURVE",
"249 1396 OFFCURVE",
"246 1428 CURVE",
"228 1422 OFFCURVE",
"212 1419 OFFCURVE",
"198 1419 CURVE SMOOTH",
"166 1419 OFFCURVE",
"150 1435 OFFCURVE",
"150 1468 CURVE SMOOTH",
"150 1501 OFFCURVE",
"197 1527 OFFCURVE",
"258 1538 CURVE SMOOTH",
"319 1549 OFFCURVE",
"368 1553 OFFCURVE",
"403 1553 CURVE SMOOTH",
"435 1553 OFFCURVE",
"463 1528 OFFCURVE",
"463 1497 CURVE SMOOTH",
"463 1468 OFFCURVE",
"443 1442 OFFCURVE",
"415 1442 CURVE SMOOTH",
"410 1442 OFFCURVE",
"403 1442 OFFCURVE",
"395 1443 CURVE",
"387 1443 OFFCURVE",
"382 1443 OFFCURVE",
"379 1443 CURVE SMOOTH",
"352 1443 OFFCURVE",
"340 1434 OFFCURVE",
"340 1401 CURVE SMOOTH",
"340 1268 OFFCURVE",
"348 1068 OFFCURVE",
"365 802 CURVE SMOOTH",
"382 536 OFFCURVE",
"390 336 OFFCURVE",
"390 203 CURVE SMOOTH",
"390 124 LINE",
"404 126 OFFCURVE",
"418 127 OFFCURVE",
"432 127 CURVE SMOOTH",
"489 127 OFFCURVE",
"517 103 OFFCURVE",
"517 55 CURVE SMOOTH",
"517 43 LINE"
);
}
);
width = 702;
}
);
note = I;
unicode = 0049;
},
{
glyphname = IJ;
lastChange = "2015-11-01 09:31:29 +0000";
layers = (
{
layerId = "156B637B-193E-48A3-AAC8-7B4A3960F885";
name = "Bold Condensed";
paths = (
{
closed = 1;
nodes = (
"1037 1444 OFFCURVE",
"1028 1442 OFFCURVE",
"1015 1439 CURVE SMOOTH",
"988 1432 OFFCURVE",
"972 1429 OFFCURVE",
"953 1429 CURVE SMOOTH",
"925 1429 OFFCURVE",
"901 1453 OFFCURVE",
"901 1481 CURVE SMOOTH",
"901 1529 OFFCURVE",
"983 1553 OFFCURVE",
"1146 1553 CURVE SMOOTH",
"1172 1553 LINE SMOOTH",
"1207 1553 OFFCURVE",
"1228 1551 OFFCURVE",
"1249 1534 CURVE",
"1259 1525 OFFCURVE",
"1264 1513 OFFCURVE",
"1264 1497 CURVE SMOOTH",
"1264 1462 OFFCURVE",
"1236 1444 OFFCURVE",
"1179 1444 CURVE SMOOTH",
"1178 1444 OFFCURVE",
"1177 1444 OFFCURVE",
"1176 1445 CURVE",
"1175 1445 OFFCURVE",
"1174 1445 OFFCURVE",
"1173 1445 CURVE SMOOTH",
"1145 1445 LINE",
"1145 1429 LINE SMOOTH",
"1145 1394 OFFCURVE",
"1149 1341 OFFCURVE",
"1157 1271 CURVE SMOOTH",
"1165 1200 OFFCURVE",
"1169 1147 OFFCURVE",
"1169 1112 CURVE SMOOTH",
"1169 1023 OFFCURVE",
"1175 891 OFFCURVE",
"1188 714 CURVE SMOOTH",
"1200 537 OFFCURVE",
"1206 404 OFFCURVE",
"1206 315 CURVE SMOOTH",
"1206 297 OFFCURVE",
"1206 270 OFFCURVE",
"1206 234 CURVE SMOOTH",
"1205 197 OFFCURVE",
"1205 170 OFFCURVE",
"1205 152 CURVE SMOOTH",
"1205 -9 OFFCURVE",
"1136 -149 OFFCURVE",
"1007 -194 CURVE",
"964 -194 OFFCURVE",
"933 -172 OFFCURVE",
"933 -131 CURVE SMOOTH",
"933 -98 OFFCURVE",
"974 -64 OFFCURVE",
"1013 -48 CURVE",
"1050 0 OFFCURVE",
"1095 117 OFFCURVE",
"1095 241 CURVE SMOOTH",
"1095 263 OFFCURVE",
"1096 296 OFFCURVE",
"1097 341 CURVE SMOOTH",
"1098 385 OFFCURVE",
"1098 418 OFFCURVE",
"1098 441 CURVE SMOOTH",
"1098 460 OFFCURVE",
"1097 488 OFFCURVE",
"1096 525 CURVE SMOOTH",
"1095 550 OFFCURVE",
"1092 619 OFFCURVE",
"1087 732 CURVE SMOOTH",
"1078 958 OFFCURVE",
"1065 1196 OFFCURVE",
"1042 1445 CURVE"
);
},
{
closed = 1;
nodes = (
"466 8 LINE",
"463 8 OFFCURVE",
"445 7 OFFCURVE",
"412 6 CURVE SMOOTH",
"379 4 OFFCURVE",
"351 3 OFFCURVE",
"327 3 CURVE SMOOTH",
"209 3 OFFCURVE",
"150 23 OFFCURVE",
"150 64 CURVE SMOOTH",
"150 97 OFFCURVE",
"171 113 OFFCURVE",
"212 113 CURVE SMOOTH",
"218 113 OFFCURVE",
"226 113 OFFCURVE",
"236 112 CURVE SMOOTH",
"245 111 OFFCURVE",
"252 110 OFFCURVE",
"255 110 CURVE SMOOTH",
"276 110 OFFCURVE",
"285 121 OFFCURVE",
"285 158 CURVE SMOOTH",
"285 263 OFFCURVE",
"279 421 OFFCURVE",
"266 632 CURVE SMOOTH",
"253 842 OFFCURVE",
"247 1000 OFFCURVE",
"247 1105 CURVE SMOOTH",
"247 1128 OFFCURVE",
"248 1163 OFFCURVE",
"249 1210 CURVE SMOOTH",
"250 1256 OFFCURVE",
"251 1291 OFFCURVE",
"251 1314 CURVE SMOOTH",
"251 1358 OFFCURVE",
"249 1396 OFFCURVE",
"246 1428 CURVE",
"228 1422 OFFCURVE",
"212 1419 OFFCURVE",
"198 1419 CURVE SMOOTH",
"166 1419 OFFCURVE",
"150 1435 OFFCURVE",
"150 1468 CURVE SMOOTH",
"150 1501 OFFCURVE",
"197 1527 OFFCURVE",
"258 1538 CURVE SMOOTH",
"319 1549 OFFCURVE",
"368 1553 OFFCURVE",
"403 1553 CURVE SMOOTH",
"435 1553 OFFCURVE",
"463 1528 OFFCURVE",
"463 1497 CURVE SMOOTH",
"463 1468 OFFCURVE",
"443 1442 OFFCURVE",
"415 1442 CURVE SMOOTH",
"410 1442 OFFCURVE",
"403 1442 OFFCURVE",
"395 1443 CURVE",
"387 1443 OFFCURVE",
"382 1443 OFFCURVE",
"379 1443 CURVE SMOOTH",
"352 1443 OFFCURVE",
"340 1434 OFFCURVE",
"340 1401 CURVE SMOOTH",
"340 1268 OFFCURVE",
"348 1068 OFFCURVE",
"365 802 CURVE SMOOTH",
"382 536 OFFCURVE",
"390 336 OFFCURVE",
"390 203 CURVE SMOOTH",
"390 124 LINE",
"404 126 OFFCURVE",
"418 127 OFFCURVE",
"432 127 CURVE SMOOTH",
"489 127 OFFCURVE",
"517 103 OFFCURVE",
"517 55 CURVE SMOOTH",
"517 43 LINE"
);
}
);
width = 1422;
}
);
note = IJ;
unicode = 0132;
},
{
glyphname = Iacute;
lastChange = "2015-11-01 09:31:29 +0000";
layers = (
{
layerId = "156B637B-193E-48A3-AAC8-7B4A3960F885";
name = "Bold Condensed";
paths = (
{
closed = 1;
nodes = (
"335 1735 OFFCURVE",
"384 1778 OFFCURVE",
"451 1835 CURVE SMOOTH",
"518 1892 OFFCURVE",
"558 1927 OFFCURVE",
"572 1940 CURVE",
"580 1943 OFFCURVE",
"586 1944 OFFCURVE",
"589 1944 CURVE SMOOTH",
"622 1944 OFFCURVE",
"656 1902 OFFCURVE",
"656 1867 CURVE SMOOTH",
"656 1853 OFFCURVE",
"651 1842 OFFCURVE",
"641 1835 CURVE SMOOTH",
"589 1797 OFFCURVE",
"490 1739 OFFCURVE",
"343 1662 CURVE",
"338 1659 OFFCURVE",
"332 1658 OFFCURVE",
"326 1658 CURVE SMOOTH",
"309 1658 OFFCURVE",
"293 1670 OFFCURVE",
"293 1685 CURVE SMOOTH",
"293 1692 OFFCURVE",
"297 1699 OFFCURVE",
"304 1706 CURVE SMOOTH"
);
},
{
closed = 1;
nodes = (
"466 8 LINE",
"463 8 OFFCURVE",
"445 7 OFFCURVE",
"412 6 CURVE SMOOTH",
"379 4 OFFCURVE",
"351 3 OFFCURVE",
"327 3 CURVE SMOOTH",
"209 3 OFFCURVE",
"150 23 OFFCURVE",
"150 64 CURVE SMOOTH",
"150 97 OFFCURVE",
"171 113 OFFCURVE",
"212 113 CURVE SMOOTH",
"218 113 OFFCURVE",
"226 113 OFFCURVE",
"236 112 CURVE SMOOTH",
"245 111 OFFCURVE",
"252 110 OFFCURVE",
"255 110 CURVE SMOOTH",
"276 110 OFFCURVE",
"285 121 OFFCURVE",
"285 158 CURVE SMOOTH",
"285 263 OFFCURVE",
"279 421 OFFCURVE",
"266 632 CURVE SMOOTH",
"253 842 OFFCURVE",
"247 1000 OFFCURVE",
"247 1105 CURVE SMOOTH",
"247 1128 OFFCURVE",
"248 1163 OFFCURVE",
"249 1210 CURVE SMOOTH",
"250 1256 OFFCURVE",
"251 1291 OFFCURVE",
"251 1314 CURVE SMOOTH",
"251 1358 OFFCURVE",
"249 1396 OFFCURVE",
"246 1428 CURVE",
"228 1422 OFFCURVE",
"212 1419 OFFCURVE",
"198 1419 CURVE SMOOTH",
"166 1419 OFFCURVE",
"150 1435 OFFCURVE",
"150 1468 CURVE SMOOTH",
"150 1501 OFFCURVE",
"197 1527 OFFCURVE",
"258 1538 CURVE SMOOTH",
"319 1549 OFFCURVE",
"368 1553 OFFCURVE",
"403 1553 CURVE SMOOTH",
"435 1553 OFFCURVE",
"463 1528 OFFCURVE",
"463 1497 CURVE SMOOTH",
"463 1468 OFFCURVE",
"443 1442 OFFCURVE",
"415 1442 CURVE SMOOTH",
"410 1442 OFFCURVE",
"403 1442 OFFCURVE",
"395 1443 CURVE",
"387 1443 OFFCURVE",
"382 1443 OFFCURVE",
"379 1443 CURVE SMOOTH",
"352 1443 OFFCURVE",
"340 1434 OFFCURVE",
"340 1401 CURVE SMOOTH",
"340 1268 OFFCURVE",
"348 1068 OFFCURVE",
"365 802 CURVE SMOOTH",
"382 536 OFFCURVE",
"390 336 OFFCURVE",
"390 203 CURVE SMOOTH",
"390 124 LINE",
"404 126 OFFCURVE",
"418 127 OFFCURVE",
"432 127 CURVE SMOOTH",
"489 127 OFFCURVE",
"517 103 OFFCURVE",
"517 55 CURVE SMOOTH",
"517 43 LINE"
);
}
);
width = 702;
}
);
note = Iacute;
unicode = 00CD;
},
{
glyphname = Ibreve;
lastChange = "2015-11-01 09:31:29 +0000";
layers = (
{
layerId = "156B637B-193E-48A3-AAC8-7B4A3960F885";
name = "Bold Condensed";
paths = (
{
closed = 1;
nodes = (
"470 1777 OFFCURVE",
"417 1704 OFFCURVE",
"318 1704 CURVE SMOOTH",
"254 1704 OFFCURVE",
"206 1736 OFFCURVE",
"181 1785 CURVE SMOOTH",
"156 1833 OFFCURVE",
"145 1887 OFFCURVE",
"145 1947 CURVE SMOOTH",
"145 1964 OFFCURVE",
"160 1979 OFFCURVE",
"183 1979 CURVE SMOOTH",
"215 1979 OFFCURVE",
"241 1934 OFFCURVE",
"254 1889 CURVE SMOOTH",
"266 1844 OFFCURVE",
"287 1799 OFFCURVE",
"312 1799 CURVE SMOOTH",
"361 1799 OFFCURVE",
"382 1856 OFFCURVE",
"382 1893 CURVE SMOOTH",
"382 1944 OFFCURVE",
"393 1970 OFFCURVE",
"440 1970 CURVE SMOOTH",
"468 1970 OFFCURVE",
"494 1946 OFFCURVE",
"494 1918 CURVE SMOOTH",
"494 1897 OFFCURVE",
"493 1880 OFFCURVE",
"490 1868 CURVE SMOOTH"
);
},
{
closed = 1;
nodes = (
"466 8 LINE",
"463 8 OFFCURVE",
"445 7 OFFCURVE",
"412 6 CURVE SMOOTH",
"379 4 OFFCURVE",
"351 3 OFFCURVE",
"327 3 CURVE SMOOTH",
"209 3 OFFCURVE",
"150 23 OFFCURVE",
"150 64 CURVE SMOOTH",
"150 97 OFFCURVE",
"171 113 OFFCURVE",
"212 113 CURVE SMOOTH",
"218 113 OFFCURVE",
"226 113 OFFCURVE",
"236 112 CURVE SMOOTH",
"245 111 OFFCURVE",
"252 110 OFFCURVE",
"255 110 CURVE SMOOTH",
"276 110 OFFCURVE",
"285 121 OFFCURVE",
"285 158 CURVE SMOOTH",
"285 263 OFFCURVE",
"279 421 OFFCURVE",
"266 632 CURVE SMOOTH",
"253 842 OFFCURVE",
"247 1000 OFFCURVE",
"247 1105 CURVE SMOOTH",
"247 1128 OFFCURVE",
"248 1163 OFFCURVE",
"249 1210 CURVE SMOOTH",
"250 1256 OFFCURVE",
"251 1291 OFFCURVE",
"251 1314 CURVE SMOOTH",
"251 1358 OFFCURVE",
"249 1396 OFFCURVE",
"246 1428 CURVE",
"228 1422 OFFCURVE",
"212 1419 OFFCURVE",
"198 1419 CURVE SMOOTH",
"166 1419 OFFCURVE",
"150 1435 OFFCURVE",
"150 1468 CURVE SMOOTH",
"150 1501 OFFCURVE",
"197 1527 OFFCURVE",
"258 1538 CURVE SMOOTH",
"319 1549 OFFCURVE",
"368 1553 OFFCURVE",
"403 1553 CURVE SMOOTH",
"435 1553 OFFCURVE",
"463 1528 OFFCURVE",
"463 1497 CURVE SMOOTH",
"463 1468 OFFCURVE",
"443 1442 OFFCURVE",
"415 1442 CURVE SMOOTH",
"410 1442 OFFCURVE",
"403 1442 OFFCURVE",
"395 1443 CURVE",
"387 1443 OFFCURVE",
"382 1443 OFFCURVE",
"379 1443 CURVE SMOOTH",
"352 1443 OFFCURVE",
"340 1434 OFFCURVE",
"340 1401 CURVE SMOOTH",
"340 1268 OFFCURVE",
"348 1068 OFFCURVE",
"365 802 CURVE SMOOTH",
"382 536 OFFCURVE",
"390 336 OFFCURVE",
"390 203 CURVE SMOOTH",
"390 124 LINE",
"404 126 OFFCURVE",
"418 127 OFFCURVE",
"432 127 CURVE SMOOTH",
"489 127 OFFCURVE",
"517 103 OFFCURVE",
"517 55 CURVE SMOOTH",
"517 43 LINE"
);
}
);
width = 702;
}
);
note = Ibreve;
unicode = 012C;
},
{
glyphname = Icircumflex;
lastChange = "2015-11-01 09:31:29 +0000";
layers = (
{
layerId = "156B637B-193E-48A3-AAC8-7B4A3960F885";
name = "Bold Condensed";
paths = (
{
closed = 1;
nodes = (
"217 1724 LINE",
"213 1715 OFFCURVE",
"203 1710 OFFCURVE",
"188 1710 CURVE SMOOTH",
"161 1710 OFFCURVE",
"136 1725 OFFCURVE",
"136 1750 CURVE SMOOTH",
"136 1757 OFFCURVE",
"137 1763 OFFCURVE",
"140 1769 CURVE",
"165 1829 OFFCURVE",
"198 1913 OFFCURVE",
"213 1950 CURVE SMOOTH",
"228 1987 OFFCURVE",
"250 2038 OFFCURVE",
"262 2058 CURVE SMOOTH",
"274 2078 OFFCURVE",
"292 2100 OFFCURVE",
"309 2107 CURVE SMOOTH",
"317 2110 OFFCURVE",
"326 2112 OFFCURVE",
"337 2112 CURVE SMOOTH",
"347 2112 OFFCURVE",
"357 2105 OFFCURVE",
"366 2092 CURVE SMOOTH",
"385 2065 OFFCURVE",
"404 2005 OFFCURVE",
"418 1954 CURVE SMOOTH",
"425 1928 OFFCURVE",
"433 1895 OFFCURVE",
"444 1855 CURVE SMOOTH",
"454 1814 OFFCURVE",
"463 1782 OFFCURVE",
"470 1757 CURVE SMOOTH",
"472 1750 OFFCURVE",
"473 1744 OFFCURVE",
"473 1739 CURVE SMOOTH",
"473 1711 OFFCURVE",
"450 1696 OFFCURVE",
"426 1696 CURVE SMOOTH",
"412 1696 OFFCURVE",
"403 1701 OFFCURVE",
"400 1710 CURVE",
"320 1986 LINE"
);
},
{
closed = 1;
nodes = (
"466 8 LINE",
"463 8 OFFCURVE",
"445 7 OFFCURVE",
"412 6 CURVE SMOOTH",
"379 4 OFFCURVE",
"351 3 OFFCURVE",
"327 3 CURVE SMOOTH",
"209 3 OFFCURVE",
"150 23 OFFCURVE",
"150 64 CURVE SMOOTH",
"150 97 OFFCURVE",
"171 113 OFFCURVE",
"212 113 CURVE SMOOTH",
"218 113 OFFCURVE",
"226 113 OFFCURVE",
"236 112 CURVE SMOOTH",
"245 111 OFFCURVE",
"252 110 OFFCURVE",
"255 110 CURVE SMOOTH",
"276 110 OFFCURVE",
"285 121 OFFCURVE",
"285 158 CURVE SMOOTH",
"285 263 OFFCURVE",
"279 421 OFFCURVE",
"266 632 CURVE SMOOTH",
"253 842 OFFCURVE",
"247 1000 OFFCURVE",
"247 1105 CURVE SMOOTH",
"247 1128 OFFCURVE",
"248 1163 OFFCURVE",
"249 1210 CURVE SMOOTH",
"250 1256 OFFCURVE",
"251 1291 OFFCURVE",
"251 1314 CURVE SMOOTH",
"251 1358 OFFCURVE",
"249 1396 OFFCURVE",
"246 1428 CURVE",
"228 1422 OFFCURVE",
"212 1419 OFFCURVE",
"198 1419 CURVE SMOOTH",
"166 1419 OFFCURVE",
"150 1435 OFFCURVE",
"150 1468 CURVE SMOOTH",
"150 1501 OFFCURVE",
"197 1527 OFFCURVE",
"258 1538 CURVE SMOOTH",
"319 1549 OFFCURVE",
"368 1553 OFFCURVE",
"403 1553 CURVE SMOOTH",
"435 1553 OFFCURVE",
"463 1528 OFFCURVE",
"463 1497 CURVE SMOOTH",
"463 1468 OFFCURVE",
"443 1442 OFFCURVE",
"415 1442 CURVE SMOOTH",
"410 1442 OFFCURVE",
"403 1442 OFFCURVE",
"395 1443 CURVE",
"387 1443 OFFCURVE",
"382 1443 OFFCURVE",
"379 1443 CURVE SMOOTH",
"352 1443 OFFCURVE",
"340 1434 OFFCURVE",
"340 1401 CURVE SMOOTH",
"340 1268 OFFCURVE",
"348 1068 OFFCURVE",
"365 802 CURVE SMOOTH",
"382 536 OFFCURVE",
"390 336 OFFCURVE",
"390 203 CURVE SMOOTH",
"390 124 LINE",
"404 126 OFFCURVE",
"418 127 OFFCURVE",
"432 127 CURVE SMOOTH",
"489 127 OFFCURVE",
"517 103 OFFCURVE",
"517 55 CURVE SMOOTH",
"517 43 LINE"
);
}
);
width = 702;
}
);
note = Icircumflex;
unicode = 00CE;
},
{
glyphname = Idieresis;
lastChange = "2015-11-01 09:31:29 +0000";
layers = (
{
layerId = "156B637B-193E-48A3-AAC8-7B4A3960F885";
name = "Bold Condensed";
paths = (
{
closed = 1;
nodes = (
"381 1822 OFFCURVE",
"417 1860 OFFCURVE",
"458 1860 CURVE SMOOTH",
"497 1860 OFFCURVE",
"531 1822 OFFCURVE",
"531 1783 CURVE SMOOTH",
"531 1738 OFFCURVE",
"497 1708 OFFCURVE",
"450 1708 CURVE SMOOTH",
"413 1708 OFFCURVE",
"381 1744 OFFCURVE",
"381 1781 CURVE SMOOTH"
);
},
{
closed = 1;
nodes = (
"51 1832 OFFCURVE",
"87 1870 OFFCURVE",
"128 1870 CURVE SMOOTH",
"167 1870 OFFCURVE",
"201 1832 OFFCURVE",
"201 1793 CURVE SMOOTH",
"201 1748 OFFCURVE",
"167 1718 OFFCURVE",
"120 1718 CURVE SMOOTH",
"83 1718 OFFCURVE",
"51 1754 OFFCURVE",
"51 1791 CURVE SMOOTH"
);
},
{
closed = 1;
nodes = (
"466 8 LINE",
"463 8 OFFCURVE",
"445 7 OFFCURVE",
"412 6 CURVE SMOOTH",
"379 4 OFFCURVE",
"351 3 OFFCURVE",
"327 3 CURVE SMOOTH",
"209 3 OFFCURVE",
"150 23 OFFCURVE",
"150 64 CURVE SMOOTH",
"150 97 OFFCURVE",
"171 113 OFFCURVE",
"212 113 CURVE SMOOTH",
"218 113 OFFCURVE",
"226 113 OFFCURVE",
"236 112 CURVE SMOOTH",
"245 111 OFFCURVE",
"252 110 OFFCURVE",
"255 110 CURVE SMOOTH",
"276 110 OFFCURVE",
"285 121 OFFCURVE",
"285 158 CURVE SMOOTH",
"285 263 OFFCURVE",
"279 421 OFFCURVE",
"266 632 CURVE SMOOTH",
"253 842 OFFCURVE",
"247 1000 OFFCURVE",
"247 1105 CURVE SMOOTH",
"247 1128 OFFCURVE",
"248 1163 OFFCURVE",
"249 1210 CURVE SMOOTH",
"250 1256 OFFCURVE",
"251 1291 OFFCURVE",
"251 1314 CURVE SMOOTH",
"251 1358 OFFCURVE",
"249 1396 OFFCURVE",
"246 1428 CURVE",
"228 1422 OFFCURVE",
"212 1419 OFFCURVE",
"198 1419 CURVE SMOOTH",
"166 1419 OFFCURVE",
"150 1435 OFFCURVE",
"150 1468 CURVE SMOOTH",
"150 1501 OFFCURVE",
"197 1527 OFFCURVE",
"258 1538 CURVE SMOOTH",
"319 1549 OFFCURVE",
"368 1553 OFFCURVE",
"403 1553 CURVE SMOOTH",
"435 1553 OFFCURVE",
"463 1528 OFFCURVE",
"463 1497 CURVE SMOOTH",
"463 1468 OFFCURVE",
"443 1442 OFFCURVE",
"415 1442 CURVE SMOOTH",
"410 1442 OFFCURVE",
"403 1442 OFFCURVE",
"395 1443 CURVE",
"387 1443 OFFCURVE",
"382 1443 OFFCURVE",
"379 1443 CURVE SMOOTH",
"352 1443 OFFCURVE",
"340 1434 OFFCURVE",
"340 1401 CURVE SMOOTH",
"340 1268 OFFCURVE",
"348 1068 OFFCURVE",
"365 802 CURVE SMOOTH",
"382 536 OFFCURVE",
"390 336 OFFCURVE",
"390 203 CURVE SMOOTH",
"390 124 LINE",
"404 126 OFFCURVE",
"418 127 OFFCURVE",
"432 127 CURVE SMOOTH",
"489 127 OFFCURVE",
"517 103 OFFCURVE",
"517 55 CURVE SMOOTH",
"517 43 LINE"
);
}
);
width = 702;
}
);
note = Idieresis;
unicode = 00CF;
},
{
glyphname = Idotaccent;
lastChange = "2015-11-01 09:31:29 +0000";
layers = (
{
layerId = "156B637B-193E-48A3-AAC8-7B4A3960F885";
name = "Bold Condensed";
paths = (
{
closed = 1;
nodes = (
"242 1814 OFFCURVE",
"278 1852 OFFCURVE",
"319 1852 CURVE SMOOTH",
"358 1852 OFFCURVE",
"392 1814 OFFCURVE",
"392 1775 CURVE SMOOTH",
"392 1730 OFFCURVE",
"358 1700 OFFCURVE",
"311 1700 CURVE SMOOTH",
"274 1700 OFFCURVE",
"242 1736 OFFCURVE",
"242 1773 CURVE SMOOTH"
);
},
{
closed = 1;
nodes = (
"466 8 LINE",
"463 8 OFFCURVE",
"445 7 OFFCURVE",
"412 6 CURVE SMOOTH",
"379 4 OFFCURVE",
"351 3 OFFCURVE",
"327 3 CURVE SMOOTH",
"209 3 OFFCURVE",
"150 23 OFFCURVE",
"150 64 CURVE SMOOTH",
"150 97 OFFCURVE",
"171 113 OFFCURVE",
"212 113 CURVE SMOOTH",
"218 113 OFFCURVE",
"226 113 OFFCURVE",
"236 112 CURVE SMOOTH",
"245 111 OFFCURVE",
"252 110 OFFCURVE",
"255 110 CURVE SMOOTH",
"276 110 OFFCURVE",
"285 121 OFFCURVE",
"285 158 CURVE SMOOTH",
"285 263 OFFCURVE",
"279 421 OFFCURVE",
"266 632 CURVE SMOOTH",
"253 842 OFFCURVE",
"247 1000 OFFCURVE",
"247 1105 CURVE SMOOTH",
"247 1128 OFFCURVE",
"248 1163 OFFCURVE",
"249 1210 CURVE SMOOTH",
"250 1256 OFFCURVE",
"251 1291 OFFCURVE",
"251 1314 CURVE SMOOTH",
"251 1358 OFFCURVE",
"249 1396 OFFCURVE",
"246 1428 CURVE",
"228 1422 OFFCURVE",
"212 1419 OFFCURVE",
"198 1419 CURVE SMOOTH",
"166 1419 OFFCURVE",
"150 1435 OFFCURVE",
"150 1468 CURVE SMOOTH",
"150 1501 OFFCURVE",
"197 1527 OFFCURVE",
"258 1538 CURVE SMOOTH",
"319 1549 OFFCURVE",
"368 1553 OFFCURVE",
"403 1553 CURVE SMOOTH",
"435 1553 OFFCURVE",
"463 1528 OFFCURVE",
"463 1497 CURVE SMOOTH",
"463 1468 OFFCURVE",
"443 1442 OFFCURVE",
"415 1442 CURVE SMOOTH",
"410 1442 OFFCURVE",
"403 1442 OFFCURVE",
"395 1443 CURVE",
"387 1443 OFFCURVE",
"382 1443 OFFCURVE",
"379 1443 CURVE SMOOTH",
"352 1443 OFFCURVE",
"340 1434 OFFCURVE",
"340 1401 CURVE SMOOTH",
"340 1268 OFFCURVE",
"348 1068 OFFCURVE",
"365 802 CURVE SMOOTH",
"382 536 OFFCURVE",
"390 336 OFFCURVE",
"390 203 CURVE SMOOTH",
"390 124 LINE",
"404 126 OFFCURVE",
"418 127 OFFCURVE",
"432 127 CURVE SMOOTH",
"489 127 OFFCURVE",
"517 103 OFFCURVE",
"517 55 CURVE SMOOTH",
"517 43 LINE"
);
}
);
width = 702;
}
);
note = Idotaccent;
unicode = 0130;
},
{
glyphname = Igrave;
lastChange = "2015-11-01 09:31:29 +0000";
layers = (
{
layerId = "156B637B-193E-48A3-AAC8-7B4A3960F885";
name = "Bold Condensed";
paths = (
{
closed = 1;
nodes = (
"72 1935 OFFCURVE",
"372 1776 OFFCURVE",
"372 1740 CURVE SMOOTH",
"372 1731 OFFCURVE",
"367 1726 OFFCURVE",
"357 1726 CURVE SMOOTH",
"312 1726 OFFCURVE",
"-21 1831 OFFCURVE",
"-21 1855 CURVE SMOOTH",
"-21 1886 OFFCURVE",
"14 1935 OFFCURVE",
"47 1935 CURVE SMOOTH"
);
},
{
closed = 1;
nodes = (
"466 8 LINE",
"463 8 OFFCURVE",
"445 7 OFFCURVE",
"412 6 CURVE SMOOTH",
"379 4 OFFCURVE",
"351 3 OFFCURVE",
"327 3 CURVE SMOOTH",
"209 3 OFFCURVE",
"150 23 OFFCURVE",
"150 64 CURVE SMOOTH",
"150 97 OFFCURVE",
"171 113 OFFCURVE",
"212 113 CURVE SMOOTH",
"218 113 OFFCURVE",
"226 113 OFFCURVE",
"236 112 CURVE SMOOTH",
"245 111 OFFCURVE",
"252 110 OFFCURVE",
"255 110 CURVE SMOOTH",
"276 110 OFFCURVE",
"285 121 OFFCURVE",
"285 158 CURVE SMOOTH",
"285 263 OFFCURVE",
"279 421 OFFCURVE",
"266 632 CURVE SMOOTH",
"253 842 OFFCURVE",
"247 1000 OFFCURVE",
"247 1105 CURVE SMOOTH",
"247 1128 OFFCURVE",
"248 1163 OFFCURVE",
"249 1210 CURVE SMOOTH",
"250 1256 OFFCURVE",
"251 1291 OFFCURVE",
"251 1314 CURVE SMOOTH",
"251 1358 OFFCURVE",
"249 1396 OFFCURVE",
"246 1428 CURVE",
"228 1422 OFFCURVE",
"212 1419 OFFCURVE",
"198 1419 CURVE SMOOTH",
"166 1419 OFFCURVE",
"150 1435 OFFCURVE",
"150 1468 CURVE SMOOTH",
"150 1501 OFFCURVE",
"197 1527 OFFCURVE",
"258 1538 CURVE SMOOTH",
"319 1549 OFFCURVE",
"368 1553 OFFCURVE",
"403 1553 CURVE SMOOTH",
"435 1553 OFFCURVE",
"463 1528 OFFCURVE",
"463 1497 CURVE SMOOTH",
"463 1468 OFFCURVE",
"443 1442 OFFCURVE",
"415 1442 CURVE SMOOTH",
"410 1442 OFFCURVE",
"403 1442 OFFCURVE",
"395 1443 CURVE",
"387 1443 OFFCURVE",
"382 1443 OFFCURVE",
"379 1443 CURVE SMOOTH",
"352 1443 OFFCURVE",
"340 1434 OFFCURVE",
"340 1401 CURVE SMOOTH",
"340 1268 OFFCURVE",
"348 1068 OFFCURVE",
"365 802 CURVE SMOOTH",
"382 536 OFFCURVE",
"390 336 OFFCURVE",
"390 203 CURVE SMOOTH",
"390 124 LINE",
"404 126 OFFCURVE",
"418 127 OFFCURVE",
"432 127 CURVE SMOOTH",
"489 127 OFFCURVE",
"517 103 OFFCURVE",
"517 55 CURVE SMOOTH",
"517 43 LINE"
);
}
);
width = 702;
}
);
note = Igrave;
unicode = 00CC;
},
{
glyphname = Imacron;
lastChange = "2015-11-01 09:31:29 +0000";
layers = (
{
layerId = "156B637B-193E-48A3-AAC8-7B4A3960F885";
name = "Bold Condensed";
paths = (
{
closed = 1;
nodes = (
"517 1735 OFFCURVE",
"511 1725 OFFCURVE",
"499 1711 CURVE SMOOTH",
"487 1697 OFFCURVE",
"460 1687 OFFCURVE",
"427 1687 CURVE SMOOTH",
"189 1687 LINE SMOOTH",
"149 1687 OFFCURVE",
"118 1712 OFFCURVE",
"118 1739 CURVE SMOOTH",
"118 1760 OFFCURVE",
"140 1777 OFFCURVE",
"184 1777 CURVE SMOOTH",
"410 1777 LINE SMOOTH",
"461 1777 OFFCURVE",
"474 1777 OFFCURVE",
"495 1773 CURVE SMOOTH",
"515 1769 OFFCURVE",
"518 1760 OFFCURVE",
"518 1744 CURVE"
);
},
{
closed = 1;
nodes = (
"466 8 LINE",
"463 8 OFFCURVE",
"445 7 OFFCURVE",
"412 6 CURVE SMOOTH",
"379 4 OFFCURVE",
"351 3 OFFCURVE",
"327 3 CURVE SMOOTH",
"209 3 OFFCURVE",
"150 23 OFFCURVE",
"150 64 CURVE SMOOTH",
"150 97 OFFCURVE",
"171 113 OFFCURVE",
"212 113 CURVE SMOOTH",
"218 113 OFFCURVE",
"226 113 OFFCURVE",
"236 112 CURVE SMOOTH",
"245 111 OFFCURVE",
"252 110 OFFCURVE",
"255 110 CURVE SMOOTH",
"276 110 OFFCURVE",
"285 121 OFFCURVE",
"285 158 CURVE SMOOTH",
"285 263 OFFCURVE",
"279 421 OFFCURVE",
"266 632 CURVE SMOOTH",
"253 842 OFFCURVE",
"247 1000 OFFCURVE",
"247 1105 CURVE SMOOTH",
"247 1128 OFFCURVE",
"248 1163 OFFCURVE",
"249 1210 CURVE SMOOTH",
"250 1256 OFFCURVE",
"251 1291 OFFCURVE",
"251 1314 CURVE SMOOTH",
"251 1358 OFFCURVE",
"249 1396 OFFCURVE",
"246 1428 CURVE",
"228 1422 OFFCURVE",
"212 1419 OFFCURVE",
"198 1419 CURVE SMOOTH",
"166 1419 OFFCURVE",
"150 1435 OFFCURVE",
"150 1468 CURVE SMOOTH",
"150 1501 OFFCURVE",
"197 1527 OFFCURVE",
"258 1538 CURVE SMOOTH",
"319 1549 OFFCURVE",
"368 1553 OFFCURVE",
"403 1553 CURVE SMOOTH",
"435 1553 OFFCURVE",
"463 1528 OFFCURVE",
"463 1497 CURVE SMOOTH",
"463 1468 OFFCURVE",
"443 1442 OFFCURVE",
"415 1442 CURVE SMOOTH",
"410 1442 OFFCURVE",
"403 1442 OFFCURVE",
"395 1443 CURVE",
"387 1443 OFFCURVE",
"382 1443 OFFCURVE",
"379 1443 CURVE SMOOTH",
"352 1443 OFFCURVE",
"340 1434 OFFCURVE",
"340 1401 CURVE SMOOTH",
"340 1268 OFFCURVE",
"348 1068 OFFCURVE",
"365 802 CURVE SMOOTH",
"382 536 OFFCURVE",
"390 336 OFFCURVE",
"390 203 CURVE SMOOTH",
"390 124 LINE",
"404 126 OFFCURVE",
"418 127 OFFCURVE",
"432 127 CURVE SMOOTH",
"489 127 OFFCURVE",
"517 103 OFFCURVE",
"517 55 CURVE SMOOTH",
"517 43 LINE"
);
}
);
width = 702;
}
);
note = Imacron;
unicode = 012A;
},
{
glyphname = Iogonek;
lastChange = "2015-11-01 09:31:29 +0000";
layers = (
{
layerId = "156B637B-193E-48A3-AAC8-7B4A3960F885";
name = "Bold Condensed";
paths = (
{
closed = 1;
nodes = (
"389 12 LINE",
"270 -87 OFFCURVE",
"211 -174 OFFCURVE",
"211 -250 CURVE SMOOTH",
"211 -263 OFFCURVE",
"213 -278 OFFCURVE",
"222 -291 CURVE",
"226 -298 OFFCURVE",
"231 -301 OFFCURVE",
"238 -301 CURVE SMOOTH",
"265 -301 OFFCURVE",
"293 -290 OFFCURVE",
"324 -268 CURVE",
"338 -302 LINE",
"338 -338 OFFCURVE",
"272 -366 OFFCURVE",
"232 -366 CURVE SMOOTH",
"176 -366 OFFCURVE",
"141 -316 OFFCURVE",
"141 -259 CURVE SMOOTH",
"141 -151 OFFCURVE",
"225 -55 OFFCURVE",
"334 12 CURVE"
);
},
{
closed = 1;
nodes = (
"466 8 LINE",
"463 8 OFFCURVE",
"445 7 OFFCURVE",
"412 6 CURVE SMOOTH",
"379 4 OFFCURVE",
"351 3 OFFCURVE",
"327 3 CURVE SMOOTH",
"209 3 OFFCURVE",
"150 23 OFFCURVE",
"150 64 CURVE SMOOTH",
"150 97 OFFCURVE",
"171 113 OFFCURVE",
"212 113 CURVE SMOOTH",
"218 113 OFFCURVE",
"226 113 OFFCURVE",
"236 112 CURVE SMOOTH",
"245 111 OFFCURVE",
"252 110 OFFCURVE",
"255 110 CURVE SMOOTH",
"276 110 OFFCURVE",
"285 121 OFFCURVE",
"285 158 CURVE SMOOTH",
"285 263 OFFCURVE",
"279 421 OFFCURVE",
"266 632 CURVE SMOOTH",
"253 842 OFFCURVE",
"247 1000 OFFCURVE",
"247 1105 CURVE SMOOTH",
"247 1128 OFFCURVE",
"248 1163 OFFCURVE",
"249 1210 CURVE SMOOTH",
"250 1256 OFFCURVE",
"251 1291 OFFCURVE",
"251 1314 CURVE SMOOTH",
"251 1358 OFFCURVE",
"249 1396 OFFCURVE",
"246 1428 CURVE",
"228 1422 OFFCURVE",
"212 1419 OFFCURVE",
"198 1419 CURVE SMOOTH",
"166 1419 OFFCURVE",
"150 1435 OFFCURVE",
"150 1468 CURVE SMOOTH",
"150 1501 OFFCURVE",
"197 1527 OFFCURVE",
"258 1538 CURVE SMOOTH",
"319 1549 OFFCURVE",
"368 1553 OFFCURVE",
"403 1553 CURVE SMOOTH",
"435 1553 OFFCURVE",
"463 1528 OFFCURVE",
"463 1497 CURVE SMOOTH",
"463 1468 OFFCURVE",
"443 1442 OFFCURVE",
"415 1442 CURVE SMOOTH",
"410 1442 OFFCURVE",
"403 1442 OFFCURVE",
"395 1443 CURVE",
"387 1443 OFFCURVE",
"382 1443 OFFCURVE",
"379 1443 CURVE SMOOTH",
"352 1443 OFFCURVE",
"340 1434 OFFCURVE",
"340 1401 CURVE SMOOTH",
"340 1268 OFFCURVE",
"348 1068 OFFCURVE",
"365 802 CURVE SMOOTH",
"382 536 OFFCURVE",
"390 336 OFFCURVE",
"390 203 CURVE SMOOTH",
"390 124 LINE",
"404 126 OFFCURVE",
"418 127 OFFCURVE",
"432 127 CURVE SMOOTH",
"489 127 OFFCURVE",
"517 103 OFFCURVE",
"517 55 CURVE SMOOTH",
"517 43 LINE"
);
}
);
width = 702;
}
);
note = Iogonek;
unicode = 012E;
},
{
glyphname = Itilde;
lastChange = "2015-11-01 09:31:29 +0000";
layers = (
{
layerId = "156B637B-193E-48A3-AAC8-7B4A3960F885";
name = "Bold Condensed";
paths = (
{
closed = 1;
nodes = (
"531 1900 OFFCURVE",
"554 1875 OFFCURVE",
"554 1847 CURVE SMOOTH",
"554 1776 OFFCURVE",
"493 1715 OFFCURVE",
"422 1715 CURVE SMOOTH",
"350 1715 OFFCURVE",
"302 1737 OFFCURVE",
"284 1759 CURVE SMOOTH",
"266 1781 OFFCURVE",
"239 1802 OFFCURVE",
"204 1802 CURVE",
"183 1794 OFFCURVE",
"177 1777 OFFCURVE",
"180 1763 CURVE SMOOTH",
"183 1749 OFFCURVE",
"175 1731 OFFCURVE",
"151 1723 CURVE",
"110 1723 OFFCURVE",
"77 1743 OFFCURVE",
"77 1782 CURVE SMOOTH",
"77 1847 OFFCURVE",
"134 1901 OFFCURVE",
"225 1901 CURVE SMOOTH",
"242 1901 OFFCURVE",
"271 1887 OFFCURVE",
"314 1860 CURVE SMOOTH",
"357 1832 OFFCURVE",
"385 1818 OFFCURVE",
"398 1818 CURVE SMOOTH",
"425 1818 OFFCURVE",
"438 1839 OFFCURVE",
"442 1859 CURVE SMOOTH",
"446 1879 OFFCURVE",
"460 1900 OFFCURVE",
"487 1900 CURVE SMOOTH"
);
},
{
closed = 1;
nodes = (
"466 8 LINE",
"463 8 OFFCURVE",
"445 7 OFFCURVE",
"412 6 CURVE SMOOTH",
"379 4 OFFCURVE",
"351 3 OFFCURVE",
"327 3 CURVE SMOOTH",
"209 3 OFFCURVE",
"150 23 OFFCURVE",
"150 64 CURVE SMOOTH",
"150 97 OFFCURVE",
"171 113 OFFCURVE",
"212 113 CURVE SMOOTH",
"218 113 OFFCURVE",
"226 113 OFFCURVE",
"236 112 CURVE SMOOTH",
"245 111 OFFCURVE",
"252 110 OFFCURVE",
"255 110 CURVE SMOOTH",
"276 110 OFFCURVE",
"285 121 OFFCURVE",
"285 158 CURVE SMOOTH",
"285 263 OFFCURVE",
"279 421 OFFCURVE",
"266 632 CURVE SMOOTH",
"253 842 OFFCURVE",
"247 1000 OFFCURVE",
"247 1105 CURVE SMOOTH",
"247 1128 OFFCURVE",
"248 1163 OFFCURVE",
"249 1210 CURVE SMOOTH",
"250 1256 OFFCURVE",
"251 1291 OFFCURVE",
"251 1314 CURVE SMOOTH",
"251 1358 OFFCURVE",
"249 1396 OFFCURVE",
"246 1428 CURVE",
"228 1422 OFFCURVE",
"212 1419 OFFCURVE",
"198 1419 CURVE SMOOTH",
"166 1419 OFFCURVE",
"150 1435 OFFCURVE",
"150 1468 CURVE SMOOTH",
"150 1501 OFFCURVE",
"197 1527 OFFCURVE",
"258 1538 CURVE SMOOTH",
"319 1549 OFFCURVE",
"368 1553 OFFCURVE",
"403 1553 CURVE SMOOTH",
"435 1553 OFFCURVE",
"463 1528 OFFCURVE",
"463 1497 CURVE SMOOTH",
"463 1468 OFFCURVE",
"443 1442 OFFCURVE",
"415 1442 CURVE SMOOTH",
"410 1442 OFFCURVE",
"403 1442 OFFCURVE",
"395 1443 CURVE",
"387 1443 OFFCURVE",
"382 1443 OFFCURVE",
"379 1443 CURVE SMOOTH",
"352 1443 OFFCURVE",
"340 1434 OFFCURVE",
"340 1401 CURVE SMOOTH",
"340 1268 OFFCURVE",
"348 1068 OFFCURVE",
"365 802 CURVE SMOOTH",
"382 536 OFFCURVE",
"390 336 OFFCURVE",
"390 203 CURVE SMOOTH",
"390 124 LINE",
"404 126 OFFCURVE",
"418 127 OFFCURVE",
"432 127 CURVE SMOOTH",
"489 127 OFFCURVE",
"517 103 OFFCURVE",
"517 55 CURVE SMOOTH",
"517 43 LINE"
);
}
);
width = 702;
}
);
note = Itilde;
unicode = 0128;
},
{
glyphname = J;
lastChange = "2015-11-01 09:31:29 +0000";
layers = (
{
layerId = "156B637B-193E-48A3-AAC8-7B4A3960F885";
name = "Bold Condensed";
paths = (
{
closed = 1;
nodes = (
"335 1444 OFFCURVE",
"326 1442 OFFCURVE",
"313 1439 CURVE SMOOTH",
"286 1432 OFFCURVE",
"270 1429 OFFCURVE",
"251 1429 CURVE SMOOTH",
"223 1429 OFFCURVE",
"199 1453 OFFCURVE",
"199 1481 CURVE SMOOTH",
"199 1529 OFFCURVE",
"281 1553 OFFCURVE",
"444 1553 CURVE SMOOTH",
"470 1553 LINE SMOOTH",
"505 1553 OFFCURVE",
"526 1551 OFFCURVE",
"547 1534 CURVE",
"557 1525 OFFCURVE",
"562 1513 OFFCURVE",
"562 1497 CURVE SMOOTH",
"562 1462 OFFCURVE",
"534 1444 OFFCURVE",
"477 1444 CURVE SMOOTH",
"476 1444 OFFCURVE",
"475 1444 OFFCURVE",
"474 1445 CURVE",
"473 1445 OFFCURVE",
"472 1445 OFFCURVE",
"471 1445 CURVE SMOOTH",
"443 1445 LINE",
"443 1429 LINE SMOOTH",
"443 1394 OFFCURVE",
"447 1341 OFFCURVE",
"455 1271 CURVE SMOOTH",
"463 1200 OFFCURVE",
"467 1147 OFFCURVE",
"467 1112 CURVE SMOOTH",
"467 1023 OFFCURVE",
"473 891 OFFCURVE",
"486 714 CURVE SMOOTH",
"498 537 OFFCURVE",
"504 404 OFFCURVE",
"504 315 CURVE SMOOTH",
"504 297 OFFCURVE",
"504 270 OFFCURVE",
"504 234 CURVE SMOOTH",
"503 197 OFFCURVE",
"503 170 OFFCURVE",
"503 152 CURVE SMOOTH",
"503 -9 OFFCURVE",
"434 -149 OFFCURVE",
"305 -194 CURVE",
"262 -194 OFFCURVE",
"231 -172 OFFCURVE",
"231 -131 CURVE SMOOTH",
"231 -98 OFFCURVE",
"272 -64 OFFCURVE",
"311 -48 CURVE",
"348 0 OFFCURVE",
"393 117 OFFCURVE",
"393 241 CURVE SMOOTH",
"393 263 OFFCURVE",
"394 296 OFFCURVE",
"395 341 CURVE SMOOTH",
"396 385 OFFCURVE",
"396 418 OFFCURVE",
"396 441 CURVE SMOOTH",
"396 460 OFFCURVE",
"395 488 OFFCURVE",
"394 525 CURVE SMOOTH",
"393 550 OFFCURVE",
"390 619 OFFCURVE",
"385 732 CURVE SMOOTH",
"376 958 OFFCURVE",
"363 1196 OFFCURVE",
"340 1445 CURVE"
);
}
);
width = 720;
}
);
note = J;
unicode = 004A;
},
{
glyphname = Jcircumflex;
lastChange = "2015-11-01 09:31:29 +0000";
layers = (
{
layerId = "156B637B-193E-48A3-AAC8-7B4A3960F885";
name = "Bold Condensed";
paths = (
{
closed = 1;
nodes = (
"141 711 OFFCURVE",
"118 735 OFFCURVE",
"118 763 CURVE SMOOTH",
"118 811 OFFCURVE",
"191 835 OFFCURVE",
"336 835 CURVE SMOOTH",
"367 835 OFFCURVE",
"404 834 OFFCURVE",
"447 832 CURVE SMOOTH",
"490 829 OFFCURVE",
"514 828 OFFCURVE",
"519 828 CURVE SMOOTH",
"556 828 OFFCURVE",
"612 831 OFFCURVE",
"687 838 CURVE SMOOTH",
"761 845 OFFCURVE",
"817 848 OFFCURVE",
"854 848 CURVE SMOOTH",
"887 848 OFFCURVE",
"921 822 OFFCURVE",
"921 790 CURVE SMOOTH",
"921 765 OFFCURVE",
"915 742 OFFCURVE",
"902 720 CURVE",
"902 648 OFFCURVE",
"910 587 OFFCURVE",
"926 537 CURVE",
"922 505 OFFCURVE",
"901 475 OFFCURVE",
"872 475 CURVE SMOOTH",
"830 475 OFFCURVE",
"809 514 OFFCURVE",
"809 592 CURVE SMOOTH",
"809 601 OFFCURVE",
"809 614 OFFCURVE",
"810 629 CURVE SMOOTH",
"811 644 OFFCURVE",
"811 654 OFFCURVE",
"811 659 CURVE SMOOTH",
"811 686 OFFCURVE",
"809 709 OFFCURVE",
"806 727 CURVE",
"799 727 OFFCURVE",
"787 728 OFFCURVE",
"770 730 CURVE SMOOTH",
"753 732 OFFCURVE",
"739 733 OFFCURVE",
"730 733 CURVE SMOOTH",
"667 733 OFFCURVE",
"574 729 OFFCURVE",
"449 722 CURVE SMOOTH",
"324 715 OFFCURVE",
"231 711 OFFCURVE",
"169 711 CURVE SMOOTH"
);
}
);
width = 1098;
}
);
note = Jcircumflex;
unicode = 0134;
},
{
glyphname = K;
lastChange = "2015-11-01 09:31:29 +0000";
layers = (
{
layerId = "156B637B-193E-48A3-AAC8-7B4A3960F885";
name = "Bold Condensed";
paths = (
{
closed = 1;
nodes = (
"174 1511 OFFCURVE",
"199 1541 OFFCURVE",
"232 1541 CURVE SMOOTH",
"283 1541 OFFCURVE",
"308 1486 OFFCURVE",
"308 1375 CURVE SMOOTH",
"308 1374 OFFCURVE",
"305 1234 OFFCURVE",
"299 954 CURVE",
"304 965 OFFCURVE",
"317 999 OFFCURVE",
"338 1054 CURVE SMOOTH",
"381 1165 OFFCURVE",
"426 1275 OFFCURVE",
"478 1395 CURVE SMOOTH",
"504 1454 OFFCURVE",
"529 1503 OFFCURVE",
"552 1540 CURVE SMOOTH",
"575 1577 OFFCURVE",
"593 1596 OFFCURVE",
"606 1596 CURVE SMOOTH",
"637 1596 OFFCURVE",
"664 1573 OFFCURVE",
"664 1542 CURVE SMOOTH",
"664 1529 OFFCURVE",
"627 1444 OFFCURVE",
"553 1288 CURVE SMOOTH",
"478 1132 OFFCURVE",
"436 1033 OFFCURVE",
"427 991 CURVE",
"427 955 LINE",
"467 854 OFFCURVE",
"724 46 OFFCURVE",
"724 11 CURVE SMOOTH",
"724 -22 OFFCURVE",
"692 -48 OFFCURVE",
"659 -48 CURVE SMOOTH",
"653 -48 OFFCURVE",
"645 -47 OFFCURVE",
"634 -44 CURVE SMOOTH",
"623 -41 OFFCURVE",
"616 -40 OFFCURVE",
"611 -40 CURVE",
"543 348 OFFCURVE",
"480 619 OFFCURVE",
"361 880 CURVE",
"349 859 OFFCURVE",
"325 812 OFFCURVE",
"319 800 CURVE SMOOTH",
"313 788 OFFCURVE",
"299 758 OFFCURVE",
"297 739 CURVE SMOOTH",
"295 719 OFFCURVE",
"291 690 OFFCURVE",
"291 650 CURVE SMOOTH",
"291 607 OFFCURVE",
"293 544 OFFCURVE",
"298 460 CURVE SMOOTH",
"302 376 OFFCURVE",
"304 313 OFFCURVE",
"304 270 CURVE SMOOTH",
"304 102 LINE SMOOTH",
"304 29 OFFCURVE",
"281 -7 OFFCURVE",
"234 -7 CURVE SMOOTH",
"194 -7 OFFCURVE",
"174 31 OFFCURVE",
"174 108 CURVE SMOOTH",
"174 169 OFFCURVE",
"179 261 OFFCURVE",
"188 384 CURVE SMOOTH",
"197 507 OFFCURVE",
"201 599 OFFCURVE",
"201 660 CURVE SMOOTH",
"201 687 OFFCURVE",
"202 746 OFFCURVE",
"203 836 CURVE SMOOTH",
"204 926 OFFCURVE",
"204 997 OFFCURVE",
"204 1049 CURVE SMOOTH",
"204 1117 OFFCURVE",
"199 1196 OFFCURVE",
"189 1285 CURVE SMOOTH",
"179 1374 OFFCURVE",
"174 1438 OFFCURVE",
"174 1476 CURVE SMOOTH"
);
}
);
width = 864;
}
);
note = K;
unicode = 004B;
},
{
glyphname = L;
lastChange = "2015-11-01 09:31:29 +0000";
layers = (
{
layerId = "156B637B-193E-48A3-AAC8-7B4A3960F885";
name = "Bold Condensed";
paths = (
{
closed = 1;
nodes = (
"325 115 LINE",
"481 115 LINE",
"510 95 OFFCURVE",
"525 75 OFFCURVE",
"525 54 CURVE SMOOTH",
"525 23 OFFCURVE",
"502 -4 OFFCURVE",
"473 -4 CURVE SMOOTH",
"468 -4 OFFCURVE",
"460 -3 OFFCURVE",
"452 0 CURVE",
"447 1 OFFCURVE",
"444 2 OFFCURVE",
"442 3 CURVE",
"431 0 OFFCURVE",
"418 -1 OFFCURVE",
"403 -1 CURVE SMOOTH",
"396 -1 OFFCURVE",
"385 0 OFFCURVE",
"370 1 CURVE SMOOTH",
"355 2 OFFCURVE",
"344 2 OFFCURVE",
"337 2 CURVE",
"323 -15 OFFCURVE",
"304 -23 OFFCURVE",
"279 -23 CURVE SMOOTH",
"244 -23 OFFCURVE",
"210 7 OFFCURVE",
"210 42 CURVE SMOOTH",
"210 53 OFFCURVE",
"212 68 OFFCURVE",
"217 88 CURVE",
"221 107 OFFCURVE",
"223 122 OFFCURVE",
"223 132 CURVE SMOOTH",
"223 287 OFFCURVE",
"216 520 OFFCURVE",
"203 831 CURVE SMOOTH",
"189 1141 OFFCURVE",
"182 1374 OFFCURVE",
"182 1529 CURVE SMOOTH",
"182 1554 OFFCURVE",
"205 1571 OFFCURVE",
"232 1571 CURVE SMOOTH",
"265 1571 OFFCURVE",
"294 1545 OFFCURVE",
"294 1512 CURVE SMOOTH",
"294 1430 OFFCURVE",
"298 1307 OFFCURVE",
"305 1143 CURVE SMOOTH",
"312 979 OFFCURVE",
"315 856 OFFCURVE",
"315 775 CURVE SMOOTH",
"315 769 OFFCURVE",
"316 761 OFFCURVE",
"317 750 CURVE SMOOTH",
"318 739 OFFCURVE",
"318 731 OFFCURVE",
"318 725 CURVE SMOOTH",
"318 718 OFFCURVE",
"318 713 OFFCURVE",
"317 710 CURVE",
"317 701 LINE",
"322 582 OFFCURVE",
"325 404 OFFCURVE",
"325 167 CURVE SMOOTH"
);
}
);
width = 622;
}
);
note = L;
unicode = 004C;
},
{
glyphname = Lacute;
lastChange = "2015-11-01 09:31:29 +0000";
layers = (
{
layerId = "156B637B-193E-48A3-AAC8-7B4A3960F885";
name = "Bold Condensed";
paths = (
{
closed = 1;
nodes = (
"255 1735 OFFCURVE",
"304 1778 OFFCURVE",
"371 1835 CURVE SMOOTH",
"438 1892 OFFCURVE",
"478 1927 OFFCURVE",
"492 1940 CURVE",
"500 1943 OFFCURVE",
"506 1944 OFFCURVE",
"509 1944 CURVE SMOOTH",
"542 1944 OFFCURVE",
"576 1902 OFFCURVE",
"576 1867 CURVE SMOOTH",
"576 1853 OFFCURVE",
"571 1842 OFFCURVE",
"561 1835 CURVE SMOOTH",
"509 1797 OFFCURVE",
"410 1739 OFFCURVE",
"263 1662 CURVE",
"258 1659 OFFCURVE",
"252 1658 OFFCURVE",
"246 1658 CURVE SMOOTH",
"229 1658 OFFCURVE",
"213 1670 OFFCURVE",
"213 1685 CURVE SMOOTH",
"213 1692 OFFCURVE",
"217 1699 OFFCURVE",
"224 1706 CURVE SMOOTH"
);
},
{
closed = 1;
nodes = (
"325 115 LINE",
"481 115 LINE",
"510 95 OFFCURVE",
"525 75 OFFCURVE",
"525 54 CURVE SMOOTH",
"525 23 OFFCURVE",
"502 -4 OFFCURVE",
"473 -4 CURVE SMOOTH",
"468 -4 OFFCURVE",
"460 -3 OFFCURVE",
"452 0 CURVE",
"447 1 OFFCURVE",
"444 2 OFFCURVE",
"442 3 CURVE",
"431 0 OFFCURVE",
"418 -1 OFFCURVE",
"403 -1 CURVE SMOOTH",
"396 -1 OFFCURVE",
"385 0 OFFCURVE",
"370 1 CURVE SMOOTH",
"355 2 OFFCURVE",
"344 2 OFFCURVE",
"337 2 CURVE",
"323 -15 OFFCURVE",
"304 -23 OFFCURVE",
"279 -23 CURVE SMOOTH",
"244 -23 OFFCURVE",
"210 7 OFFCURVE",
"210 42 CURVE SMOOTH",
"210 53 OFFCURVE",
"212 68 OFFCURVE",
"217 88 CURVE",
"221 107 OFFCURVE",
"223 122 OFFCURVE",
"223 132 CURVE SMOOTH",
"223 287 OFFCURVE",
"216 520 OFFCURVE",
"203 831 CURVE SMOOTH",
"189 1141 OFFCURVE",
"182 1374 OFFCURVE",
"182 1529 CURVE SMOOTH",
"182 1554 OFFCURVE",
"205 1571 OFFCURVE",
"232 1571 CURVE SMOOTH",
"265 1571 OFFCURVE",
"294 1545 OFFCURVE",
"294 1512 CURVE SMOOTH",
"294 1430 OFFCURVE",
"298 1307 OFFCURVE",
"305 1143 CURVE SMOOTH",
"312 979 OFFCURVE",
"315 856 OFFCURVE",
"315 775 CURVE SMOOTH",
"315 769 OFFCURVE",
"316 761 OFFCURVE",
"317 750 CURVE SMOOTH",
"318 739 OFFCURVE",
"318 731 OFFCURVE",
"318 725 CURVE SMOOTH",
"318 718 OFFCURVE",
"318 713 OFFCURVE",
"317 710 CURVE",
"317 701 LINE",
"322 582 OFFCURVE",
"325 404 OFFCURVE",
"325 167 CURVE SMOOTH"
);
}
);
width = 622;
}
);
note = Lacute;
unicode = 0139;
},
{
glyphname = Lcaron;
lastChange = "2015-11-01 09:31:29 +0000";
layers = (
{
layerId = "156B637B-193E-48A3-AAC8-7B4A3960F885";
name = "Bold Condensed";
paths = (
{
closed = 1;
nodes = (
"654 1726 OFFCURVE",
"678 1690 OFFCURVE",
"678 1618 CURVE SMOOTH",
"678 1555 OFFCURVE",
"634 1458 OFFCURVE",
"566 1390 CURVE SMOOTH",
"532 1356 OFFCURVE",
"499 1339 OFFCURVE",
"466 1339 CURVE SMOOTH",
"449 1339 OFFCURVE",
"436 1350 OFFCURVE",
"436 1366 CURVE SMOOTH",
"436 1382 OFFCURVE",
"444 1397 OFFCURVE",
"461 1411 CURVE",
"496 1451 OFFCURVE",
"518 1541 OFFCURVE",
"527 1605 CURVE SMOOTH",
"536 1668 OFFCURVE",
"562 1726 OFFCURVE",
"607 1726 CURVE SMOOTH"
);
},
{
closed = 1;
nodes = (
"325 115 LINE",
"481 115 LINE",
"510 95 OFFCURVE",
"525 75 OFFCURVE",
"525 54 CURVE SMOOTH",
"525 23 OFFCURVE",
"502 -4 OFFCURVE",
"473 -4 CURVE SMOOTH",
"468 -4 OFFCURVE",
"460 -3 OFFCURVE",
"452 0 CURVE",
"447 1 OFFCURVE",
"444 2 OFFCURVE",
"442 3 CURVE",
"431 0 OFFCURVE",
"418 -1 OFFCURVE",
"403 -1 CURVE SMOOTH",
"396 -1 OFFCURVE",
"385 0 OFFCURVE",
"370 1 CURVE SMOOTH",
"355 2 OFFCURVE",
"344 2 OFFCURVE",
"337 2 CURVE",
"323 -15 OFFCURVE",
"304 -23 OFFCURVE",
"279 -23 CURVE SMOOTH",
"244 -23 OFFCURVE",
"210 7 OFFCURVE",
"210 42 CURVE SMOOTH",
"210 53 OFFCURVE",
"212 68 OFFCURVE",
"217 88 CURVE",
"221 107 OFFCURVE",
"223 122 OFFCURVE",
"223 132 CURVE SMOOTH",
"223 287 OFFCURVE",
"216 520 OFFCURVE",
"203 831 CURVE SMOOTH",
"189 1141 OFFCURVE",
"182 1374 OFFCURVE",
"182 1529 CURVE SMOOTH",
"182 1554 OFFCURVE",
"205 1571 OFFCURVE",
"232 1571 CURVE SMOOTH",
"265 1571 OFFCURVE",
"294 1545 OFFCURVE",
"294 1512 CURVE SMOOTH",
"294 1430 OFFCURVE",
"298 1307 OFFCURVE",
"305 1143 CURVE SMOOTH",
"312 979 OFFCURVE",
"315 856 OFFCURVE",
"315 775 CURVE SMOOTH",
"315 769 OFFCURVE",
"316 761 OFFCURVE",
"317 750 CURVE SMOOTH",
"318 739 OFFCURVE",
"318 731 OFFCURVE",
"318 725 CURVE SMOOTH",
"318 718 OFFCURVE",
"318 713 OFFCURVE",
"317 710 CURVE",
"317 701 LINE",
"322 582 OFFCURVE",
"325 404 OFFCURVE",
"325 167 CURVE SMOOTH"
);
}
);
width = 622;
}
);
note = Lcaron;
unicode = 013D;
},
{
glyphname = Ldot;
lastChange = "2015-11-01 09:31:29 +0000";
layers = (
{
layerId = "156B637B-193E-48A3-AAC8-7B4A3960F885";
name = "Bold Condensed";
paths = (
{
closed = 1;
nodes = (
"503 819 OFFCURVE",
"539 857 OFFCURVE",
"580 857 CURVE SMOOTH",
"619 857 OFFCURVE",
"653 819 OFFCURVE",
"653 780 CURVE SMOOTH",
"653 735 OFFCURVE",
"619 705 OFFCURVE",
"572 705 CURVE SMOOTH",
"535 705 OFFCURVE",
"503 741 OFFCURVE",
"503 778 CURVE SMOOTH"
);
},
{
closed = 1;
nodes = (
"325 115 LINE",
"481 115 LINE",
"510 95 OFFCURVE",
"525 75 OFFCURVE",
"525 54 CURVE SMOOTH",
"525 23 OFFCURVE",
"502 -4 OFFCURVE",
"473 -4 CURVE SMOOTH",
"468 -4 OFFCURVE",
"460 -3 OFFCURVE",
"452 0 CURVE",
"447 1 OFFCURVE",
"444 2 OFFCURVE",
"442 3 CURVE",
"431 0 OFFCURVE",
"418 -1 OFFCURVE",
"403 -1 CURVE SMOOTH",
"396 -1 OFFCURVE",
"385 0 OFFCURVE",
"370 1 CURVE SMOOTH",
"355 2 OFFCURVE",
"344 2 OFFCURVE",
"337 2 CURVE",
"323 -15 OFFCURVE",
"304 -23 OFFCURVE",
"279 -23 CURVE SMOOTH",
"244 -23 OFFCURVE",
"210 7 OFFCURVE",
"210 42 CURVE SMOOTH",
"210 53 OFFCURVE",
"212 68 OFFCURVE",
"217 88 CURVE",
"221 107 OFFCURVE",
"223 122 OFFCURVE",
"223 132 CURVE SMOOTH",
"223 287 OFFCURVE",
"216 520 OFFCURVE",
"203 831 CURVE SMOOTH",
"189 1141 OFFCURVE",
"182 1374 OFFCURVE",
"182 1529 CURVE SMOOTH",
"182 1554 OFFCURVE",
"205 1571 OFFCURVE",
"232 1571 CURVE SMOOTH",
"265 1571 OFFCURVE",
"294 1545 OFFCURVE",
"294 1512 CURVE SMOOTH",
"294 1430 OFFCURVE",
"298 1307 OFFCURVE",
"305 1143 CURVE SMOOTH",
"312 979 OFFCURVE",
"315 856 OFFCURVE",
"315 775 CURVE SMOOTH",
"315 769 OFFCURVE",
"316 761 OFFCURVE",
"317 750 CURVE SMOOTH",
"318 739 OFFCURVE",
"318 731 OFFCURVE",
"318 725 CURVE SMOOTH",
"318 718 OFFCURVE",
"318 713 OFFCURVE",
"317 710 CURVE",
"317 701 LINE",
"322 582 OFFCURVE",
"325 404 OFFCURVE",
"325 167 CURVE SMOOTH"
);
}
);
width = 622;
}
);
note = Ldot;
unicode = 013F;
},
{
glyphname = Lslash;
lastChange = "2015-11-01 09:31:29 +0000";
layers = (
{
layerId = "156B637B-193E-48A3-AAC8-7B4A3960F885";
name = "Bold Condensed";
paths = (
{
closed = 1;
nodes = (
"576 852 OFFCURVE",
"505 818 OFFCURVE",
"363 797 CURVE",
"363 795 LINE SMOOTH",
"363 788 OFFCURVE",
"364 777 OFFCURVE",
"365 763 CURVE SMOOTH",
"366 748 OFFCURVE",
"366 737 OFFCURVE",
"366 730 CURVE SMOOTH",
"366 721 OFFCURVE",
"366 715 OFFCURVE",
"365 710 CURVE",
"365 701 LINE",
"370 582 OFFCURVE",
"373 404 OFFCURVE",
"373 167 CURVE SMOOTH",
"373 115 LINE",
"529 115 LINE",
"558 95 OFFCURVE",
"573 75 OFFCURVE",
"573 54 CURVE SMOOTH",
"573 23 OFFCURVE",
"550 -4 OFFCURVE",
"521 -4 CURVE SMOOTH",
"516 -4 OFFCURVE",
"508 -3 OFFCURVE",
"500 0 CURVE",
"495 1 OFFCURVE",
"492 2 OFFCURVE",
"490 3 CURVE",
"479 0 OFFCURVE",
"466 -1 OFFCURVE",
"451 -1 CURVE SMOOTH",
"444 -1 OFFCURVE",
"433 0 OFFCURVE",
"418 1 CURVE SMOOTH",
"403 2 OFFCURVE",
"392 2 OFFCURVE",
"385 2 CURVE SMOOTH",
"380 2 OFFCURVE",
"370 3 OFFCURVE",
"354 4 CURVE SMOOTH",
"338 5 OFFCURVE",
"326 5 OFFCURVE",
"317 5 CURVE SMOOTH",
"288 5 OFFCURVE",
"258 22 OFFCURVE",
"258 42 CURVE SMOOTH",
"258 53 OFFCURVE",
"260 68 OFFCURVE",
"265 88 CURVE",
"269 107 OFFCURVE",
"271 122 OFFCURVE",
"271 132 CURVE SMOOTH",
"271 273 OFFCURVE",
"265 485 OFFCURVE",
"253 768 CURVE",
"232 759 OFFCURVE",
"215 754 OFFCURVE",
"201 754 CURVE SMOOTH",
"166 754 OFFCURVE",
"134 775 OFFCURVE",
"134 803 CURVE SMOOTH",
"134 834 OFFCURVE",
"172 857 OFFCURVE",
"248 873 CURVE",
"236 1165 OFFCURVE",
"230 1384 OFFCURVE",
"230 1529 CURVE SMOOTH",
"230 1554 OFFCURVE",
"253 1571 OFFCURVE",
"280 1571 CURVE SMOOTH",
"313 1571 OFFCURVE",
"342 1545 OFFCURVE",
"342 1512 CURVE SMOOTH",
"342 1435 OFFCURVE",
"345 1325 OFFCURVE",
"351 1184 CURVE SMOOTH",
"357 1042 OFFCURVE",
"361 949 OFFCURVE",
"362 904 CURVE",
"431 934 OFFCURVE",
"489 949 OFFCURVE",
"538 949 CURVE SMOOTH",
"557 949 OFFCURVE",
"576 928 OFFCURVE",
"576 897 CURVE SMOOTH"
);
}
);
width = 756;
}
);
note = Lslash;
unicode = 0141;
},
{
glyphname = M;
lastChange = "2015-11-01 09:31:29 +0000";
layers = (
{
layerId = "156B637B-193E-48A3-AAC8-7B4A3960F885";
name = "Bold Condensed";
paths = (
{
closed = 1;
nodes = (
"707 1529 LINE",
"712 1564 OFFCURVE",
"744 1587 OFFCURVE",
"780 1587 CURVE SMOOTH",
"805 1587 OFFCURVE",
"828 1560 OFFCURVE",
"828 1535 CURVE SMOOTH",
"828 1372 OFFCURVE",
"834 1127 OFFCURVE",
"847 801 CURVE SMOOTH",
"859 475 OFFCURVE",
"865 230 OFFCURVE",
"865 67 CURVE SMOOTH",
"865 2 OFFCURVE",
"823 -54 OFFCURVE",
"784 -54 CURVE SMOOTH",
"759 -54 OFFCURVE",
"739 -26 OFFCURVE",
"739 27 CURVE SMOOTH",
"739 122 OFFCURVE",
"738 266 OFFCURVE",
"735 458 CURVE SMOOTH",
"732 650 OFFCURVE",
"731 794 OFFCURVE",
"731 889 CURVE SMOOTH",
"731 993 LINE",
"722 940 OFFCURVE",
"701 848 OFFCURVE",
"668 717 CURVE SMOOTH",
"635 585 OFFCURVE",
"614 484 OFFCURVE",
"605 414 CURVE",
"605 401 LINE",
"604 396 OFFCURVE",
"602 383 OFFCURVE",
"599 363 CURVE SMOOTH",
"594 323 OFFCURVE",
"589 302 OFFCURVE",
"577 271 CURVE SMOOTH",
"565 239 OFFCURVE",
"543 222 OFFCURVE",
"514 222 CURVE SMOOTH",
"465 222 OFFCURVE",
"441 286 OFFCURVE",
"441 413 CURVE SMOOTH",
"441 561 OFFCURVE",
"410 716 OFFCURVE",
"350 942 CURVE SMOOTH",
"319 1055 OFFCURVE",
"299 1131 OFFCURVE",
"290 1172 CURVE",
"287 1063 OFFCURVE",
"286 980 OFFCURVE",
"286 925 CURVE SMOOTH",
"286 831 OFFCURVE",
"289 691 OFFCURVE",
"295 504 CURVE SMOOTH",
"300 317 OFFCURVE",
"303 177 OFFCURVE",
"303 83 CURVE SMOOTH",
"303 54 OFFCURVE",
"293 28 OFFCURVE",
"272 6 CURVE",
"201 6 OFFCURVE",
"182 55 OFFCURVE",
"182 132 CURVE SMOOTH",
"182 169 OFFCURVE",
"184 225 OFFCURVE",
"187 299 CURVE SMOOTH",
"190 372 OFFCURVE",
"192 427 OFFCURVE",
"192 464 CURVE SMOOTH",
"192 553 OFFCURVE",
"191 685 OFFCURVE",
"189 861 CURVE SMOOTH",
"186 1037 OFFCURVE",
"185 1169 OFFCURVE",
"185 1257 CURVE SMOOTH",
"185 1346 OFFCURVE",
"186 1434 OFFCURVE",
"188 1522 CURVE",
"245 1554 LINE",
"266 1553 OFFCURVE",
"288 1522 OFFCURVE",
"313 1463 CURVE SMOOTH",
"361 1343 OFFCURVE",
"410 1125 OFFCURVE",
"446 954 CURVE SMOOTH",
"464 869 OFFCURVE",
"482 779 OFFCURVE",
"499 686 CURVE SMOOTH",
"516 593 OFFCURVE",
"526 540 OFFCURVE",
"529 528 CURVE",
"538 572 OFFCURVE",
"556 651 OFFCURVE",
"581 764 CURVE SMOOTH",
"632 991 OFFCURVE",
"650 1074 OFFCURVE",
"679 1262 CURVE SMOOTH",
"693 1355 OFFCURVE",
"702 1440 OFFCURVE",
"707 1517 CURVE"
);
}
);
width = 1044;
}
);
note = M;
unicode = 004D;
},
{
glyphname = N;
lastChange = "2015-11-01 09:31:29 +0000";
layers = (
{
layerId = "156B637B-193E-48A3-AAC8-7B4A3960F885";
name = "Bold Condensed";
paths = (
{
closed = 1;
nodes = (
"655 225 LINE",
"655 304 OFFCURVE",
"656 423 OFFCURVE",
"659 582 CURVE SMOOTH",
"662 741 OFFCURVE",
"663 860 OFFCURVE",
"663 939 CURVE SMOOTH",
"663 1545 LINE",
"671 1579 OFFCURVE",
"693 1596 OFFCURVE",
"730 1596 CURVE SMOOTH",
"767 1596 OFFCURVE",
"785 1569 OFFCURVE",
"785 1516 CURVE SMOOTH",
"785 1504 LINE",
"777 1487 OFFCURVE",
"773 1467 OFFCURVE",
"773 1444 CURVE SMOOTH",
"773 1361 OFFCURVE",
"771 1235 OFFCURVE",
"767 1066 CURVE SMOOTH",
"762 897 OFFCURVE",
"760 771 OFFCURVE",
"760 687 CURVE SMOOTH",
"760 61 LINE SMOOTH",
"760 20 OFFCURVE",
"734 -30 OFFCURVE",
"701 -30 CURVE SMOOTH",
"672 -30 OFFCURVE",
"616 111 OFFCURVE",
"533 392 CURVE SMOOTH",
"450 673 OFFCURVE",
"367 975 OFFCURVE",
"286 1298 CURVE",
"286 626 LINE SMOOTH",
"286 561 OFFCURVE",
"291 463 OFFCURVE",
"301 334 CURVE SMOOTH",
"310 205 OFFCURVE",
"315 107 OFFCURVE",
"315 42 CURVE SMOOTH",
"315 17 OFFCURVE",
"278 -2 OFFCURVE",
"243 -2 CURVE SMOOTH",
"213 -2 OFFCURVE",
"198 9 OFFCURVE",
"198 30 CURVE SMOOTH",
"198 39 OFFCURVE",
"200 59 OFFCURVE",
"203 91 CURVE SMOOTH",
"206 123 OFFCURVE",
"208 152 OFFCURVE",
"208 177 CURVE SMOOTH",
"208 248 OFFCURVE",
"204 362 OFFCURVE",
"195 521 CURVE SMOOTH",
"186 680 OFFCURVE",
"182 777 OFFCURVE",
"182 812 CURVE SMOOTH",
"182 1073 LINE SMOOTH",
"182 1115 OFFCURVE",
"184 1178 OFFCURVE",
"189 1261 CURVE SMOOTH",
"194 1344 OFFCURVE",
"196 1407 OFFCURVE",
"196 1449 CURVE SMOOTH",
"196 1462 LINE SMOOTH",
"196 1530 OFFCURVE",
"211 1564 OFFCURVE",
"241 1564 CURVE SMOOTH",
"260 1564 OFFCURVE",
"283 1534 OFFCURVE",
"310 1475 CURVE SMOOTH",
"365 1356 OFFCURVE",
"424 1158 OFFCURVE",
"481 947 CURVE SMOOTH",
"538 735 OFFCURVE",
"590 511 OFFCURVE",
"621 377 CURVE SMOOTH",
"636 310 OFFCURVE",
"647 262 OFFCURVE",
"653 235 CURVE SMOOTH"
);
}
);
width = 972;
}
);
note = N;
unicode = 004E;
},
{
glyphname = Nacute;
lastChange = "2015-11-01 09:31:29 +0000";
layers = (
{
layerId = "156B637B-193E-48A3-AAC8-7B4A3960F885";
name = "Bold Condensed";
paths = (
{
closed = 1;
nodes = (
"507 1735 OFFCURVE",
"556 1778 OFFCURVE",
"623 1835 CURVE SMOOTH",
"690 1892 OFFCURVE",
"730 1927 OFFCURVE",
"744 1940 CURVE",
"752 1943 OFFCURVE",
"758 1944 OFFCURVE",
"761 1944 CURVE SMOOTH",
"794 1944 OFFCURVE",
"828 1902 OFFCURVE",
"828 1867 CURVE SMOOTH",
"828 1853 OFFCURVE",
"823 1842 OFFCURVE",
"813 1835 CURVE SMOOTH",
"761 1797 OFFCURVE",
"662 1739 OFFCURVE",
"515 1662 CURVE",
"510 1659 OFFCURVE",
"504 1658 OFFCURVE",
"498 1658 CURVE SMOOTH",
"481 1658 OFFCURVE",
"465 1670 OFFCURVE",
"465 1685 CURVE SMOOTH",
"465 1692 OFFCURVE",
"469 1699 OFFCURVE",
"476 1706 CURVE SMOOTH"
);
},
{
closed = 1;
nodes = (
"655 225 LINE",
"655 304 OFFCURVE",
"656 423 OFFCURVE",
"659 582 CURVE SMOOTH",
"662 741 OFFCURVE",
"663 860 OFFCURVE",
"663 939 CURVE SMOOTH",
"663 1545 LINE",
"671 1579 OFFCURVE",
"693 1596 OFFCURVE",
"730 1596 CURVE SMOOTH",
"767 1596 OFFCURVE",
"785 1569 OFFCURVE",
"785 1516 CURVE SMOOTH",
"785 1504 LINE",
"777 1487 OFFCURVE",
"773 1467 OFFCURVE",
"773 1444 CURVE SMOOTH",
"773 1361 OFFCURVE",
"771 1235 OFFCURVE",
"767 1066 CURVE SMOOTH",
"762 897 OFFCURVE",
"760 771 OFFCURVE",
"760 687 CURVE SMOOTH",
"760 61 LINE SMOOTH",
"760 20 OFFCURVE",
"734 -30 OFFCURVE",
"701 -30 CURVE SMOOTH",
"672 -30 OFFCURVE",
"616 111 OFFCURVE",
"533 392 CURVE SMOOTH",
"450 673 OFFCURVE",
"367 975 OFFCURVE",
"286 1298 CURVE",
"286 626 LINE SMOOTH",
"286 561 OFFCURVE",
"291 463 OFFCURVE",
"301 334 CURVE SMOOTH",
"310 205 OFFCURVE",
"315 107 OFFCURVE",
"315 42 CURVE SMOOTH",
"315 17 OFFCURVE",
"278 -2 OFFCURVE",
"243 -2 CURVE SMOOTH",
"213 -2 OFFCURVE",
"198 9 OFFCURVE",
"198 30 CURVE SMOOTH",
"198 39 OFFCURVE",
"200 59 OFFCURVE",
"203 91 CURVE SMOOTH",
"206 123 OFFCURVE",
"208 152 OFFCURVE",
"208 177 CURVE SMOOTH",
"208 248 OFFCURVE",
"204 362 OFFCURVE",
"195 521 CURVE SMOOTH",
"186 680 OFFCURVE",
"182 777 OFFCURVE",
"182 812 CURVE SMOOTH",
"182 1073 LINE SMOOTH",
"182 1115 OFFCURVE",
"184 1178 OFFCURVE",
"189 1261 CURVE SMOOTH",
"194 1344 OFFCURVE",
"196 1407 OFFCURVE",
"196 1449 CURVE SMOOTH",
"196 1462 LINE SMOOTH",
"196 1530 OFFCURVE",
"211 1564 OFFCURVE",
"241 1564 CURVE SMOOTH",
"260 1564 OFFCURVE",
"283 1534 OFFCURVE",
"310 1475 CURVE SMOOTH",
"365 1356 OFFCURVE",
"424 1158 OFFCURVE",
"481 947 CURVE SMOOTH",
"538 735 OFFCURVE",
"590 511 OFFCURVE",
"621 377 CURVE SMOOTH",
"636 310 OFFCURVE",
"647 262 OFFCURVE",
"653 235 CURVE SMOOTH"
);
}
);
width = 972;
}
);
note = Nacute;
unicode = 0143;
},
{
glyphname = Ncaron;
lastChange = "2015-11-01 09:31:29 +0000";
layers = (
{
layerId = "156B637B-193E-48A3-AAC8-7B4A3960F885";
name = "Bold Condensed";
paths = (
{
closed = 1;
nodes = (
"307 2074 OFFCURVE",
"331 2092 OFFCURVE",
"356 2092 CURVE SMOOTH",
"372 2092 OFFCURVE",
"389 2073 OFFCURVE",
"406 2034 CURVE SMOOTH",
"423 1995 OFFCURVE",
"440 1944 OFFCURVE",
"458 1881 CURVE SMOOTH",
"484 1787 LINE",
"487 1802 OFFCURVE",
"490 1825 OFFCURVE",
"493 1856 CURVE SMOOTH",
"500 1919 OFFCURVE",
"505 1964 OFFCURVE",
"517 2016 CURVE SMOOTH",
"528 2068 OFFCURVE",
"547 2099 OFFCURVE",
"574 2099 CURVE SMOOTH",
"598 2099 OFFCURVE",
"617 2083 OFFCURVE",
"617 2056 CURVE SMOOTH",
"617 2052 OFFCURVE",
"615 2047 OFFCURVE",
"610 2040 CURVE SMOOTH",
"605 2033 OFFCURVE",
"603 2028 OFFCURVE",
"602 2025 CURVE",
"602 1988 LINE",
"573 1876 LINE SMOOTH",
"554 1801 OFFCURVE",
"544 1753 OFFCURVE",
"544 1730 CURVE SMOOTH",
"544 1686 OFFCURVE",
"527 1664 OFFCURVE",
"492 1664 CURVE SMOOTH",
"439 1664 OFFCURVE",
"307 1977 OFFCURVE",
"307 2053 CURVE SMOOTH"
);
},
{
closed = 1;
nodes = (
"655 225 LINE",
"655 304 OFFCURVE",
"656 423 OFFCURVE",
"659 582 CURVE SMOOTH",
"662 741 OFFCURVE",
"663 860 OFFCURVE",
"663 939 CURVE SMOOTH",
"663 1545 LINE",
"671 1579 OFFCURVE",
"693 1596 OFFCURVE",
"730 1596 CURVE SMOOTH",
"767 1596 OFFCURVE",
"785 1569 OFFCURVE",
"785 1516 CURVE SMOOTH",
"785 1504 LINE",
"777 1487 OFFCURVE",
"773 1467 OFFCURVE",
"773 1444 CURVE SMOOTH",
"773 1361 OFFCURVE",
"771 1235 OFFCURVE",
"767 1066 CURVE SMOOTH",
"762 897 OFFCURVE",
"760 771 OFFCURVE",
"760 687 CURVE SMOOTH",
"760 61 LINE SMOOTH",
"760 20 OFFCURVE",
"734 -30 OFFCURVE",
"701 -30 CURVE SMOOTH",
"672 -30 OFFCURVE",
"616 111 OFFCURVE",
"533 392 CURVE SMOOTH",
"450 673 OFFCURVE",
"367 975 OFFCURVE",
"286 1298 CURVE",
"286 626 LINE SMOOTH",
"286 561 OFFCURVE",
"291 463 OFFCURVE",
"301 334 CURVE SMOOTH",
"310 205 OFFCURVE",
"315 107 OFFCURVE",
"315 42 CURVE SMOOTH",
"315 17 OFFCURVE",
"278 -2 OFFCURVE",
"243 -2 CURVE SMOOTH",
"213 -2 OFFCURVE",
"198 9 OFFCURVE",
"198 30 CURVE SMOOTH",
"198 39 OFFCURVE",
"200 59 OFFCURVE",
"203 91 CURVE SMOOTH",
"206 123 OFFCURVE",
"208 152 OFFCURVE",
"208 177 CURVE SMOOTH",
"208 248 OFFCURVE",
"204 362 OFFCURVE",
"195 521 CURVE SMOOTH",
"186 680 OFFCURVE",
"182 777 OFFCURVE",
"182 812 CURVE SMOOTH",
"182 1073 LINE SMOOTH",
"182 1115 OFFCURVE",
"184 1178 OFFCURVE",
"189 1261 CURVE SMOOTH",
"194 1344 OFFCURVE",
"196 1407 OFFCURVE",
"196 1449 CURVE SMOOTH",
"196 1462 LINE SMOOTH",
"196 1530 OFFCURVE",
"211 1564 OFFCURVE",
"241 1564 CURVE SMOOTH",
"260 1564 OFFCURVE",
"283 1534 OFFCURVE",
"310 1475 CURVE SMOOTH",
"365 1356 OFFCURVE",
"424 1158 OFFCURVE",
"481 947 CURVE SMOOTH",
"538 735 OFFCURVE",
"590 511 OFFCURVE",
"621 377 CURVE SMOOTH",
"636 310 OFFCURVE",
"647 262 OFFCURVE",
"653 235 CURVE SMOOTH"
);
}
);
width = 972;
}
);
note = Ncaron;
unicode = 0147;
},
{
glyphname = Eng;
lastChange = "2015-11-01 09:31:29 +0000";
layers = (
{
layerId = "156B637B-193E-48A3-AAC8-7B4A3960F885";
name = "Bold Condensed";
paths = (
{
closed = 1;
nodes = (
"657 -97 OFFCURVE",
"657 -73 OFFCURVE",
"658 -41 CURVE SMOOTH",
"658 -9 OFFCURVE",
"658 15 OFFCURVE",
"658 32 CURVE",
"574 215 OFFCURVE",
"414 787 OFFCURVE",
"286 1298 CURVE",
"286 626 LINE SMOOTH",
"286 561 OFFCURVE",
"291 463 OFFCURVE",
"301 334 CURVE SMOOTH",
"310 205 OFFCURVE",
"315 107 OFFCURVE",
"315 42 CURVE SMOOTH",
"315 17 OFFCURVE",
"278 -2 OFFCURVE",
"243 -2 CURVE SMOOTH",
"213 -2 OFFCURVE",
"198 9 OFFCURVE",
"198 30 CURVE SMOOTH",
"198 39 OFFCURVE",
"200 59 OFFCURVE",
"203 91 CURVE SMOOTH",
"206 123 OFFCURVE",
"208 152 OFFCURVE",
"208 177 CURVE SMOOTH",
"208 248 OFFCURVE",
"204 362 OFFCURVE",
"195 521 CURVE SMOOTH",
"186 680 OFFCURVE",
"182 777 OFFCURVE",
"182 812 CURVE SMOOTH",
"182 1073 LINE SMOOTH",
"182 1115 OFFCURVE",
"184 1178 OFFCURVE",
"189 1261 CURVE SMOOTH",
"194 1344 OFFCURVE",
"196 1407 OFFCURVE",
"196 1449 CURVE SMOOTH",
"196 1462 LINE SMOOTH",
"196 1530 OFFCURVE",
"211 1564 OFFCURVE",
"241 1564 CURVE SMOOTH",
"260 1564 OFFCURVE",
"283 1534 OFFCURVE",
"310 1475 CURVE SMOOTH",
"365 1356 OFFCURVE",
"424 1158 OFFCURVE",
"481 947 CURVE SMOOTH",
"538 735 OFFCURVE",
"590 511 OFFCURVE",
"621 377 CURVE SMOOTH",
"636 310 OFFCURVE",
"647 262 OFFCURVE",
"653 235 CURVE SMOOTH",
"655 225 LINE",
"655 304 OFFCURVE",
"656 423 OFFCURVE",
"659 582 CURVE SMOOTH",
"662 741 OFFCURVE",
"663 860 OFFCURVE",
"663 939 CURVE SMOOTH",
"663 1545 LINE",
"671 1579 OFFCURVE",
"693 1596 OFFCURVE",
"730 1596 CURVE SMOOTH",
"767 1596 OFFCURVE",
"785 1569 OFFCURVE",
"785 1516 CURVE SMOOTH",
"785 1504 LINE",
"784 1501 OFFCURVE",
"781 1495 OFFCURVE",
"776 1486 CURVE SMOOTH",
"766 1469 OFFCURVE",
"760 1456 OFFCURVE",
"760 1444 CURVE SMOOTH",
"760 42 LINE SMOOTH",
"760 -31 OFFCURVE",
"761 -76 OFFCURVE",
"755 -121 CURVE SMOOTH",
"749 -166 OFFCURVE",
"748 -187 OFFCURVE",
"733 -216 CURVE SMOOTH",
"718 -245 OFFCURVE",
"713 -254 OFFCURVE",
"686 -278 CURVE",
"673 -291 OFFCURVE",
"661 -301 OFFCURVE",
"651 -308 CURVE SMOOTH",
"631 -323 OFFCURVE",
"582 -361 OFFCURVE",
"549 -388 CURVE",
"506 -388 OFFCURVE",
"475 -366 OFFCURVE",
"475 -325 CURVE SMOOTH",
"475 -289 OFFCURVE",
"503 -261 OFFCURVE",
"539 -243 CURVE SMOOTH",
"575 -225 OFFCURVE",
"614 -207 OFFCURVE",
"639 -173 CURVE SMOOTH",
"651 -156 OFFCURVE",
"657 -136 OFFCURVE",
"657 -113 CURVE SMOOTH"
);
}
);
width = 972;
}
);
note = Eng;
unicode = 014A;
},
{
glyphname = Ntilde;
lastChange = "2015-11-01 09:31:29 +0000";
layers = (
{
layerId = "156B637B-193E-48A3-AAC8-7B4A3960F885";
name = "Bold Condensed";
paths = (
{
closed = 1;
nodes = (
"703 1900 OFFCURVE",
"726 1875 OFFCURVE",
"726 1847 CURVE SMOOTH",
"726 1776 OFFCURVE",
"665 1715 OFFCURVE",
"594 1715 CURVE SMOOTH",
"522 1715 OFFCURVE",
"474 1737 OFFCURVE",
"456 1759 CURVE SMOOTH",
"438 1781 OFFCURVE",
"411 1802 OFFCURVE",
"376 1802 CURVE",
"355 1794 OFFCURVE",
"349 1777 OFFCURVE",
"352 1763 CURVE SMOOTH",
"355 1749 OFFCURVE",
"347 1731 OFFCURVE",
"323 1723 CURVE",
"282 1723 OFFCURVE",
"249 1743 OFFCURVE",
"249 1782 CURVE SMOOTH",
"249 1847 OFFCURVE",
"306 1901 OFFCURVE",
"397 1901 CURVE SMOOTH",
"414 1901 OFFCURVE",
"443 1887 OFFCURVE",
"486 1860 CURVE SMOOTH",
"529 1832 OFFCURVE",
"557 1818 OFFCURVE",
"570 1818 CURVE SMOOTH",
"597 1818 OFFCURVE",
"610 1839 OFFCURVE",
"614 1859 CURVE SMOOTH",
"618 1879 OFFCURVE",
"632 1900 OFFCURVE",
"659 1900 CURVE SMOOTH"
);
},
{
closed = 1;
nodes = (
"655 225 LINE",
"655 304 OFFCURVE",
"656 423 OFFCURVE",
"659 582 CURVE SMOOTH",
"662 741 OFFCURVE",
"663 860 OFFCURVE",
"663 939 CURVE SMOOTH",
"663 1545 LINE",
"671 1579 OFFCURVE",
"693 1596 OFFCURVE",
"730 1596 CURVE SMOOTH",
"767 1596 OFFCURVE",
"785 1569 OFFCURVE",
"785 1516 CURVE SMOOTH",
"785 1504 LINE",
"777 1487 OFFCURVE",
"773 1467 OFFCURVE",
"773 1444 CURVE SMOOTH",
"773 1361 OFFCURVE",
"771 1235 OFFCURVE",
"767 1066 CURVE SMOOTH",
"762 897 OFFCURVE",
"760 771 OFFCURVE",
"760 687 CURVE SMOOTH",
"760 61 LINE SMOOTH",
"760 20 OFFCURVE",
"734 -30 OFFCURVE",
"701 -30 CURVE SMOOTH",
"672 -30 OFFCURVE",
"616 111 OFFCURVE",
"533 392 CURVE SMOOTH",
"450 673 OFFCURVE",
"367 975 OFFCURVE",
"286 1298 CURVE",
"286 626 LINE SMOOTH",
"286 561 OFFCURVE",
"291 463 OFFCURVE",
"301 334 CURVE SMOOTH",
"310 205 OFFCURVE",
"315 107 OFFCURVE",
"315 42 CURVE SMOOTH",
"315 17 OFFCURVE",
"278 -2 OFFCURVE",
"243 -2 CURVE SMOOTH",
"213 -2 OFFCURVE",
"198 9 OFFCURVE",
"198 30 CURVE SMOOTH",
"198 39 OFFCURVE",
"200 59 OFFCURVE",
"203 91 CURVE SMOOTH",
"206 123 OFFCURVE",
"208 152 OFFCURVE",
"208 177 CURVE SMOOTH",
"208 248 OFFCURVE",
"204 362 OFFCURVE",
"195 521 CURVE SMOOTH",
"186 680 OFFCURVE",
"182 777 OFFCURVE",
"182 812 CURVE SMOOTH",
"182 1073 LINE SMOOTH",
"182 1115 OFFCURVE",
"184 1178 OFFCURVE",
"189 1261 CURVE SMOOTH",
"194 1344 OFFCURVE",
"196 1407 OFFCURVE",
"196 1449 CURVE SMOOTH",
"196 1462 LINE SMOOTH",
"196 1530 OFFCURVE",
"211 1564 OFFCURVE",
"241 1564 CURVE SMOOTH",
"260 1564 OFFCURVE",
"283 1534 OFFCURVE",
"310 1475 CURVE SMOOTH",
"365 1356 OFFCURVE",
"424 1158 OFFCURVE",
"481 947 CURVE SMOOTH",
"538 735 OFFCURVE",
"590 511 OFFCURVE",
"621 377 CURVE SMOOTH",
"636 310 OFFCURVE",
"647 262 OFFCURVE",
"653 235 CURVE SMOOTH"
);
}
);
width = 972;
}
);
note = Ntilde;
unicode = 00D1;
},
{
glyphname = O;
lastChange = "2015-11-01 09:31:29 +0000";
layers = (
{
layerId = "156B637B-193E-48A3-AAC8-7B4A3960F885";
name = "Bold Condensed";
paths = (
{
closed = 1;
nodes = (
"383 1477 OFFCURVE",
"357 1448 OFFCURVE",
"339 1397 CURVE SMOOTH",
"321 1345 OFFCURVE",
"306 1289 OFFCURVE",
"299 1213 CURVE SMOOTH",
"291 1136 OFFCURVE",
"286 1081 OFFCURVE",
"284 1006 CURVE SMOOTH",
"282 931 OFFCURVE",
"281 905 OFFCURVE",
"281 861 CURVE SMOOTH",
"281 852 LINE SMOOTH",
"281 787 OFFCURVE",
"287 671 OFFCURVE",
"308 515 CURVE SMOOTH",
"328 359 OFFCURVE",
"355 220 OFFCURVE",
"406 126 CURVE SMOOTH",
"431 79 OFFCURVE",
"460 55 OFFCURVE",
"491 55 CURVE SMOOTH",
"518 55 OFFCURVE",
"542 81 OFFCURVE",
"561 132 CURVE SMOOTH",
"599 235 OFFCURVE",
"611 412 OFFCURVE",
"617 517 CURVE SMOOTH",
"620 570 OFFCURVE",
"621 615 OFFCURVE",
"621 653 CURVE SMOOTH",
"621 706 OFFCURVE",
"621 745 OFFCURVE",
"618 842 CURVE SMOOTH",
"614 938 OFFCURVE",
"606 1015 OFFCURVE",
"594 1118 CURVE SMOOTH",
"581 1221 OFFCURVE",
"560 1298 OFFCURVE",
"533 1368 CURVE SMOOTH",
"505 1438 OFFCURVE",
"463 1477 OFFCURVE",
"415 1477 CURVE SMOOTH"
);
},
{
closed = 1;
nodes = (
"476 1585 OFFCURVE",
"536 1555 OFFCURVE",
"577 1499 CURVE SMOOTH",
"618 1442 OFFCURVE",
"650 1378 OFFCURVE",
"670 1285 CURVE SMOOTH",
"689 1192 OFFCURVE",
"702 1117 OFFCURVE",
"707 1009 CURVE SMOOTH",
"712 901 OFFCURVE",
"714 836 OFFCURVE",
"714 736 CURVE SMOOTH",
"714 618 LINE SMOOTH",
"714 588 OFFCURVE",
"711 544 OFFCURVE",
"705 487 CURVE SMOOTH",
"699 430 OFFCURVE",
"696 387 OFFCURVE",
"696 359 CURVE SMOOTH",
"696 350 LINE",
"687 312 OFFCURVE",
"683 267 OFFCURVE",
"683 215 CURVE SMOOTH",
"683 143 OFFCURVE",
"653 54 OFFCURVE",
"590 -9 CURVE SMOOTH",
"559 -41 OFFCURVE",
"524 -57 OFFCURVE",
"487 -57 CURVE SMOOTH",
"412 -57 OFFCURVE",
"349 -1 OFFCURVE",
"309 79 CURVE SMOOTH",
"269 158 OFFCURVE",
"237 277 OFFCURVE",
"221 382 CURVE SMOOTH",
"204 486 OFFCURVE",
"194 615 OFFCURVE",
"191 691 CURVE SMOOTH",
"190 729 OFFCURVE",
"189 765 OFFCURVE",
"189 799 CURVE SMOOTH",
"189 818 OFFCURVE",
"189 855 OFFCURVE",
"188 909 CURVE SMOOTH",
"187 963 OFFCURVE",
"186 1006 OFFCURVE",
"186 1038 CURVE SMOOTH",
"186 1118 OFFCURVE",
"188 1179 OFFCURVE",
"196 1256 CURVE SMOOTH",
"203 1333 OFFCURVE",
"216 1391 OFFCURVE",
"238 1449 CURVE SMOOTH",
"260 1507 OFFCURVE",
"288 1544 OFFCURVE",
"332 1568 CURVE",
"354 1579 OFFCURVE",
"378 1585 OFFCURVE",
"405 1585 CURVE SMOOTH"
);
}
);
width = 900;
}
);
note = O;
unicode = 004F;
},
{
glyphname = Oacute;
lastChange = "2015-11-01 09:31:29 +0000";
layers = (
{
layerId = "156B637B-193E-48A3-AAC8-7B4A3960F885";
name = "Bold Condensed";
paths = (
{
closed = 1;
nodes = (
"435 1735 OFFCURVE",
"484 1778 OFFCURVE",
"551 1835 CURVE SMOOTH",
"618 1892 OFFCURVE",
"658 1927 OFFCURVE",
"672 1940 CURVE",
"680 1943 OFFCURVE",
"686 1944 OFFCURVE",
"689 1944 CURVE SMOOTH",
"722 1944 OFFCURVE",
"756 1902 OFFCURVE",
"756 1867 CURVE SMOOTH",
"756 1853 OFFCURVE",
"751 1842 OFFCURVE",
"741 1835 CURVE SMOOTH",
"689 1797 OFFCURVE",
"590 1739 OFFCURVE",
"443 1662 CURVE",
"438 1659 OFFCURVE",
"432 1658 OFFCURVE",
"426 1658 CURVE SMOOTH",
"409 1658 OFFCURVE",
"393 1670 OFFCURVE",
"393 1685 CURVE SMOOTH",
"393 1692 OFFCURVE",
"397 1699 OFFCURVE",
"404 1706 CURVE SMOOTH"
);
},
{
closed = 1;
nodes = (
"383 1477 OFFCURVE",
"357 1448 OFFCURVE",
"339 1397 CURVE SMOOTH",
"321 1345 OFFCURVE",
"306 1289 OFFCURVE",
"299 1213 CURVE SMOOTH",
"291 1136 OFFCURVE",
"286 1081 OFFCURVE",
"284 1006 CURVE SMOOTH",
"282 931 OFFCURVE",
"281 905 OFFCURVE",
"281 861 CURVE SMOOTH",
"281 852 LINE SMOOTH",
"281 787 OFFCURVE",
"287 671 OFFCURVE",
"308 515 CURVE SMOOTH",
"328 359 OFFCURVE",
"355 220 OFFCURVE",
"406 126 CURVE SMOOTH",
"431 79 OFFCURVE",
"460 55 OFFCURVE",
"491 55 CURVE SMOOTH",
"518 55 OFFCURVE",
"542 81 OFFCURVE",
"561 132 CURVE SMOOTH",
"599 235 OFFCURVE",
"611 412 OFFCURVE",
"617 517 CURVE SMOOTH",
"620 570 OFFCURVE",
"621 615 OFFCURVE",
"621 653 CURVE SMOOTH",
"621 706 OFFCURVE",
"621 745 OFFCURVE",
"618 842 CURVE SMOOTH",
"614 938 OFFCURVE",
"606 1015 OFFCURVE",
"594 1118 CURVE SMOOTH",
"581 1221 OFFCURVE",
"560 1298 OFFCURVE",
"533 1368 CURVE SMOOTH",
"505 1438 OFFCURVE",
"463 1477 OFFCURVE",
"415 1477 CURVE SMOOTH"
);
},
{
closed = 1;
nodes = (
"476 1585 OFFCURVE",
"536 1555 OFFCURVE",
"577 1499 CURVE SMOOTH",
"618 1442 OFFCURVE",
"650 1378 OFFCURVE",
"670 1285 CURVE SMOOTH",
"689 1192 OFFCURVE",
"702 1117 OFFCURVE",
"707 1009 CURVE SMOOTH",
"712 901 OFFCURVE",
"714 836 OFFCURVE",
"714 736 CURVE SMOOTH",
"714 618 LINE SMOOTH",
"714 588 OFFCURVE",
"711 544 OFFCURVE",
"705 487 CURVE SMOOTH",
"699 430 OFFCURVE",
"696 387 OFFCURVE",
"696 359 CURVE SMOOTH",
"696 350 LINE",
"687 312 OFFCURVE",
"683 267 OFFCURVE",
"683 215 CURVE SMOOTH",
"683 143 OFFCURVE",
"653 54 OFFCURVE",
"590 -9 CURVE SMOOTH",
"559 -41 OFFCURVE",
"524 -57 OFFCURVE",
"487 -57 CURVE SMOOTH",
"412 -57 OFFCURVE",
"349 -1 OFFCURVE",
"309 79 CURVE SMOOTH",
"269 158 OFFCURVE",
"237 277 OFFCURVE",
"221 382 CURVE SMOOTH",
"204 486 OFFCURVE",
"194 615 OFFCURVE",
"191 691 CURVE SMOOTH",
"190 729 OFFCURVE",
"189 765 OFFCURVE",
"189 799 CURVE SMOOTH",
"189 818 OFFCURVE",
"189 855 OFFCURVE",
"188 909 CURVE SMOOTH",
"187 963 OFFCURVE",
"186 1006 OFFCURVE",
"186 1038 CURVE SMOOTH",
"186 1118 OFFCURVE",
"188 1179 OFFCURVE",
"196 1256 CURVE SMOOTH",
"203 1333 OFFCURVE",
"216 1391 OFFCURVE",
"238 1449 CURVE SMOOTH",
"260 1507 OFFCURVE",
"288 1544 OFFCURVE",
"332 1568 CURVE",
"354 1579 OFFCURVE",
"378 1585 OFFCURVE",
"405 1585 CURVE SMOOTH"
);
}
);
width = 900;
}
);
note = Oacute;
unicode = 00D3;
},
{
glyphname = Obreve;
lastChange = "2015-11-01 09:31:29 +0000";
layers = (
{
layerId = "156B637B-193E-48A3-AAC8-7B4A3960F885";
name = "Bold Condensed";
paths = (
{
closed = 1;
nodes = (
"570 1777 OFFCURVE",
"517 1704 OFFCURVE",
"418 1704 CURVE SMOOTH",
"354 1704 OFFCURVE",
"306 1736 OFFCURVE",
"281 1785 CURVE SMOOTH",
"256 1833 OFFCURVE",
"245 1887 OFFCURVE",
"245 1947 CURVE SMOOTH",
"245 1964 OFFCURVE",
"260 1979 OFFCURVE",
"283 1979 CURVE SMOOTH",
"315 1979 OFFCURVE",
"341 1934 OFFCURVE",
"354 1889 CURVE SMOOTH",
"366 1844 OFFCURVE",
"387 1799 OFFCURVE",
"412 1799 CURVE SMOOTH",
"461 1799 OFFCURVE",
"482 1856 OFFCURVE",
"482 1893 CURVE SMOOTH",
"482 1944 OFFCURVE",
"493 1970 OFFCURVE",
"540 1970 CURVE SMOOTH",
"568 1970 OFFCURVE",
"594 1946 OFFCURVE",
"594 1918 CURVE SMOOTH",
"594 1897 OFFCURVE",
"593 1880 OFFCURVE",
"590 1868 CURVE SMOOTH"
);
},
{
closed = 1;
nodes = (
"383 1477 OFFCURVE",
"357 1448 OFFCURVE",
"339 1397 CURVE SMOOTH",
"321 1345 OFFCURVE",
"306 1289 OFFCURVE",
"299 1213 CURVE SMOOTH",
"291 1136 OFFCURVE",
"286 1081 OFFCURVE",
"284 1006 CURVE SMOOTH",
"282 931 OFFCURVE",
"281 905 OFFCURVE",
"281 861 CURVE SMOOTH",
"281 852 LINE SMOOTH",
"281 787 OFFCURVE",
"287 671 OFFCURVE",
"308 515 CURVE SMOOTH",
"328 359 OFFCURVE",
"355 220 OFFCURVE",
"406 126 CURVE SMOOTH",
"431 79 OFFCURVE",
"460 55 OFFCURVE",
"491 55 CURVE SMOOTH",
"518 55 OFFCURVE",
"542 81 OFFCURVE",
"561 132 CURVE SMOOTH",
"599 235 OFFCURVE",
"611 412 OFFCURVE",
"617 517 CURVE SMOOTH",
"620 570 OFFCURVE",
"621 615 OFFCURVE",
"621 653 CURVE SMOOTH",
"621 706 OFFCURVE",
"621 745 OFFCURVE",
"618 842 CURVE SMOOTH",
"614 938 OFFCURVE",
"606 1015 OFFCURVE",
"594 1118 CURVE SMOOTH",
"581 1221 OFFCURVE",
"560 1298 OFFCURVE",
"533 1368 CURVE SMOOTH",
"505 1438 OFFCURVE",
"463 1477 OFFCURVE",
"415 1477 CURVE SMOOTH"
);
},
{
closed = 1;
nodes = (
"476 1585 OFFCURVE",
"536 1555 OFFCURVE",
"577 1499 CURVE SMOOTH",
"618 1442 OFFCURVE",
"650 1378 OFFCURVE",
"670 1285 CURVE SMOOTH",
"689 1192 OFFCURVE",
"702 1117 OFFCURVE",
"707 1009 CURVE SMOOTH",
"712 901 OFFCURVE",
"714 836 OFFCURVE",
"714 736 CURVE SMOOTH",
"714 618 LINE SMOOTH",
"714 588 OFFCURVE",
"711 544 OFFCURVE",
"705 487 CURVE SMOOTH",
"699 430 OFFCURVE",
"696 387 OFFCURVE",
"696 359 CURVE SMOOTH",
"696 350 LINE",
"687 312 OFFCURVE",
"683 267 OFFCURVE",
"683 215 CURVE SMOOTH",
"683 143 OFFCURVE",
"653 54 OFFCURVE",
"590 -9 CURVE SMOOTH",
"559 -41 OFFCURVE",
"524 -57 OFFCURVE",
"487 -57 CURVE SMOOTH",
"412 -57 OFFCURVE",
"349 -1 OFFCURVE",
"309 79 CURVE SMOOTH",
"269 158 OFFCURVE",
"237 277 OFFCURVE",
"221 382 CURVE SMOOTH",
"204 486 OFFCURVE",
"194 615 OFFCURVE",
"191 691 CURVE SMOOTH",
"190 729 OFFCURVE",
"189 765 OFFCURVE",
"189 799 CURVE SMOOTH",
"189 818 OFFCURVE",
"189 855 OFFCURVE",
"188 909 CURVE SMOOTH",
"187 963 OFFCURVE",
"186 1006 OFFCURVE",
"186 1038 CURVE SMOOTH",
"186 1118 OFFCURVE",
"188 1179 OFFCURVE",
"196 1256 CURVE SMOOTH",
"203 1333 OFFCURVE",
"216 1391 OFFCURVE",
"238 1449 CURVE SMOOTH",
"260 1507 OFFCURVE",
"288 1544 OFFCURVE",
"332 1568 CURVE",
"354 1579 OFFCURVE",
"378 1585 OFFCURVE",
"405 1585 CURVE SMOOTH"
);
}
);
width = 900;
}
);
note = Obreve;
unicode = 014E;
},
{
glyphname = Ocircumflex;
lastChange = "2015-11-01 09:31:29 +0000";
layers = (
{
layerId = "156B637B-193E-48A3-AAC8-7B4A3960F885";
name = "Bold Condensed";
paths = (
{
closed = 1;
nodes = (
"317 1724 LINE",
"313 1715 OFFCURVE",
"303 1710 OFFCURVE",
"288 1710 CURVE SMOOTH",
"261 1710 OFFCURVE",
"236 1725 OFFCURVE",
"236 1750 CURVE SMOOTH",
"236 1757 OFFCURVE",
"237 1763 OFFCURVE",
"240 1769 CURVE",
"265 1829 OFFCURVE",
"298 1913 OFFCURVE",
"313 1950 CURVE SMOOTH",
"328 1987 OFFCURVE",
"350 2038 OFFCURVE",
"362 2058 CURVE SMOOTH",
"374 2078 OFFCURVE",
"392 2100 OFFCURVE",
"409 2107 CURVE SMOOTH",
"417 2110 OFFCURVE",
"426 2112 OFFCURVE",
"437 2112 CURVE SMOOTH",
"447 2112 OFFCURVE",
"457 2105 OFFCURVE",
"466 2092 CURVE SMOOTH",
"485 2065 OFFCURVE",
"504 2005 OFFCURVE",
"518 1954 CURVE SMOOTH",
"525 1928 OFFCURVE",
"533 1895 OFFCURVE",
"544 1855 CURVE SMOOTH",
"554 1814 OFFCURVE",
"563 1782 OFFCURVE",
"570 1757 CURVE SMOOTH",
"572 1750 OFFCURVE",
"573 1744 OFFCURVE",
"573 1739 CURVE SMOOTH",
"573 1711 OFFCURVE",
"550 1696 OFFCURVE",
"526 1696 CURVE SMOOTH",
"512 1696 OFFCURVE",
"503 1701 OFFCURVE",
"500 1710 CURVE",
"420 1986 LINE"
);
},
{
closed = 1;
nodes = (
"383 1477 OFFCURVE",
"357 1448 OFFCURVE",
"339 1397 CURVE SMOOTH",
"321 1345 OFFCURVE",
"306 1289 OFFCURVE",
"299 1213 CURVE SMOOTH",
"291 1136 OFFCURVE",
"286 1081 OFFCURVE",
"284 1006 CURVE SMOOTH",
"282 931 OFFCURVE",
"281 905 OFFCURVE",
"281 861 CURVE SMOOTH",
"281 852 LINE SMOOTH",
"281 787 OFFCURVE",
"287 671 OFFCURVE",
"308 515 CURVE SMOOTH",
"328 359 OFFCURVE",
"355 220 OFFCURVE",
"406 126 CURVE SMOOTH",
"431 79 OFFCURVE",
"460 55 OFFCURVE",
"491 55 CURVE SMOOTH",
"518 55 OFFCURVE",
"542 81 OFFCURVE",
"561 132 CURVE SMOOTH",
"599 235 OFFCURVE",
"611 412 OFFCURVE",
"617 517 CURVE SMOOTH",
"620 570 OFFCURVE",
"621 615 OFFCURVE",
"621 653 CURVE SMOOTH",
"621 706 OFFCURVE",
"621 745 OFFCURVE",
"618 842 CURVE SMOOTH",
"614 938 OFFCURVE",
"606 1015 OFFCURVE",
"594 1118 CURVE SMOOTH",
"581 1221 OFFCURVE",
"560 1298 OFFCURVE",
"533 1368 CURVE SMOOTH",
"505 1438 OFFCURVE",
"463 1477 OFFCURVE",
"415 1477 CURVE SMOOTH"
);
},
{
closed = 1;
nodes = (
"476 1585 OFFCURVE",
"536 1555 OFFCURVE",
"577 1499 CURVE SMOOTH",
"618 1442 OFFCURVE",
"650 1378 OFFCURVE",
"670 1285 CURVE SMOOTH",
"689 1192 OFFCURVE",
"702 1117 OFFCURVE",
"707 1009 CURVE SMOOTH",
"712 901 OFFCURVE",
"714 836 OFFCURVE",
"714 736 CURVE SMOOTH",
"714 618 LINE SMOOTH",
"714 588 OFFCURVE",
"711 544 OFFCURVE",
"705 487 CURVE SMOOTH",
"699 430 OFFCURVE",
"696 387 OFFCURVE",
"696 359 CURVE SMOOTH",
"696 350 LINE",
"687 312 OFFCURVE",
"683 267 OFFCURVE",
"683 215 CURVE SMOOTH",
"683 143 OFFCURVE",
"653 54 OFFCURVE",
"590 -9 CURVE SMOOTH",
"559 -41 OFFCURVE",
"524 -57 OFFCURVE",
"487 -57 CURVE SMOOTH",
"412 -57 OFFCURVE",
"349 -1 OFFCURVE",
"309 79 CURVE SMOOTH",
"269 158 OFFCURVE",
"237 277 OFFCURVE",
"221 382 CURVE SMOOTH",
"204 486 OFFCURVE",
"194 615 OFFCURVE",
"191 691 CURVE SMOOTH",
"190 729 OFFCURVE",
"189 765 OFFCURVE",
"189 799 CURVE SMOOTH",
"189 818 OFFCURVE",
"189 855 OFFCURVE",
"188 909 CURVE SMOOTH",
"187 963 OFFCURVE",
"186 1006 OFFCURVE",
"186 1038 CURVE SMOOTH",
"186 1118 OFFCURVE",
"188 1179 OFFCURVE",
"196 1256 CURVE SMOOTH",
"203 1333 OFFCURVE",
"216 1391 OFFCURVE",
"238 1449 CURVE SMOOTH",
"260 1507 OFFCURVE",
"288 1544 OFFCURVE",
"332 1568 CURVE",
"354 1579 OFFCURVE",
"378 1585 OFFCURVE",
"405 1585 CURVE SMOOTH"
);
}
);
width = 900;
}
);
note = Ocircumflex;
unicode = 00D4;
},
{
glyphname = Odieresis;
lastChange = "2015-11-01 09:31:29 +0000";
layers = (
{
layerId = "156B637B-193E-48A3-AAC8-7B4A3960F885";
name = "Bold Condensed";
paths = (
{
closed = 1;
nodes = (
"481 1822 OFFCURVE",
"517 1860 OFFCURVE",
"558 1860 CURVE SMOOTH",
"597 1860 OFFCURVE",
"631 1822 OFFCURVE",
"631 1783 CURVE SMOOTH",
"631 1738 OFFCURVE",
"597 1708 OFFCURVE",
"550 1708 CURVE SMOOTH",
"513 1708 OFFCURVE",
"481 1744 OFFCURVE",
"481 1781 CURVE SMOOTH"
);
},
{
closed = 1;
nodes = (
"151 1832 OFFCURVE",
"187 1870 OFFCURVE",
"228 1870 CURVE SMOOTH",
"267 1870 OFFCURVE",
"301 1832 OFFCURVE",
"301 1793 CURVE SMOOTH",
"301 1748 OFFCURVE",
"267 1718 OFFCURVE",
"220 1718 CURVE SMOOTH",
"183 1718 OFFCURVE",
"151 1754 OFFCURVE",
"151 1791 CURVE SMOOTH"
);
},
{
closed = 1;
nodes = (
"383 1477 OFFCURVE",
"357 1448 OFFCURVE",
"339 1397 CURVE SMOOTH",
"321 1345 OFFCURVE",
"306 1289 OFFCURVE",
"299 1213 CURVE SMOOTH",
"291 1136 OFFCURVE",
"286 1081 OFFCURVE",
"284 1006 CURVE SMOOTH",
"282 931 OFFCURVE",
"281 905 OFFCURVE",
"281 861 CURVE SMOOTH",
"281 852 LINE SMOOTH",
"281 787 OFFCURVE",
"287 671 OFFCURVE",
"308 515 CURVE SMOOTH",
"328 359 OFFCURVE",
"355 220 OFFCURVE",
"406 126 CURVE SMOOTH",
"431 79 OFFCURVE",
"460 55 OFFCURVE",
"491 55 CURVE SMOOTH",
"518 55 OFFCURVE",
"542 81 OFFCURVE",
"561 132 CURVE SMOOTH",
"599 235 OFFCURVE",
"611 412 OFFCURVE",
"617 517 CURVE SMOOTH",
"620 570 OFFCURVE",
"621 615 OFFCURVE",
"621 653 CURVE SMOOTH",
"621 706 OFFCURVE",
"621 745 OFFCURVE",
"618 842 CURVE SMOOTH",
"614 938 OFFCURVE",
"606 1015 OFFCURVE",
"594 1118 CURVE SMOOTH",
"581 1221 OFFCURVE",
"560 1298 OFFCURVE",
"533 1368 CURVE SMOOTH",
"505 1438 OFFCURVE",
"463 1477 OFFCURVE",
"415 1477 CURVE SMOOTH"
);
},
{
closed = 1;
nodes = (
"476 1585 OFFCURVE",
"536 1555 OFFCURVE",
"577 1499 CURVE SMOOTH",
"618 1442 OFFCURVE",
"650 1378 OFFCURVE",
"670 1285 CURVE SMOOTH",
"689 1192 OFFCURVE",
"702 1117 OFFCURVE",
"707 1009 CURVE SMOOTH",
"712 901 OFFCURVE",
"714 836 OFFCURVE",
"714 736 CURVE SMOOTH",
"714 618 LINE SMOOTH",
"714 588 OFFCURVE",
"711 544 OFFCURVE",
"705 487 CURVE SMOOTH",
"699 430 OFFCURVE",
"696 387 OFFCURVE",
"696 359 CURVE SMOOTH",
"696 350 LINE",
"687 312 OFFCURVE",
"683 267 OFFCURVE",
"683 215 CURVE SMOOTH",
"683 143 OFFCURVE",
"653 54 OFFCURVE",
"590 -9 CURVE SMOOTH",
"559 -41 OFFCURVE",
"524 -57 OFFCURVE",
"487 -57 CURVE SMOOTH",
"412 -57 OFFCURVE",
"349 -1 OFFCURVE",
"309 79 CURVE SMOOTH",
"269 158 OFFCURVE",
"237 277 OFFCURVE",
"221 382 CURVE SMOOTH",
"204 486 OFFCURVE",
"194 615 OFFCURVE",
"191 691 CURVE SMOOTH",
"190 729 OFFCURVE",
"189 765 OFFCURVE",
"189 799 CURVE SMOOTH",
"189 818 OFFCURVE",
"189 855 OFFCURVE",
"188 909 CURVE SMOOTH",
"187 963 OFFCURVE",
"186 1006 OFFCURVE",
"186 1038 CURVE SMOOTH",
"186 1118 OFFCURVE",
"188 1179 OFFCURVE",
"196 1256 CURVE SMOOTH",
"203 1333 OFFCURVE",
"216 1391 OFFCURVE",
"238 1449 CURVE SMOOTH",
"260 1507 OFFCURVE",
"288 1544 OFFCURVE",
"332 1568 CURVE",
"354 1579 OFFCURVE",
"378 1585 OFFCURVE",
"405 1585 CURVE SMOOTH"
);
}
);
width = 900;
}
);
note = Odieresis;
unicode = 00D6;
},
{
glyphname = Ograve;
lastChange = "2015-11-01 09:31:29 +0000";
layers = (
{
layerId = "156B637B-193E-48A3-AAC8-7B4A3960F885";
name = "Bold Condensed";
paths = (
{
closed = 1;
nodes = (
"172 1935 OFFCURVE",
"472 1776 OFFCURVE",
"472 1740 CURVE SMOOTH",
"472 1731 OFFCURVE",
"467 1726 OFFCURVE",
"457 1726 CURVE SMOOTH",
"412 1726 OFFCURVE",
"79 1831 OFFCURVE",
"79 1855 CURVE SMOOTH",
"79 1886 OFFCURVE",
"114 1935 OFFCURVE",
"147 1935 CURVE SMOOTH"
);
},
{
closed = 1;
nodes = (
"383 1477 OFFCURVE",
"357 1448 OFFCURVE",
"339 1397 CURVE SMOOTH",
"321 1345 OFFCURVE",
"306 1289 OFFCURVE",
"299 1213 CURVE SMOOTH",
"291 1136 OFFCURVE",
"286 1081 OFFCURVE",
"284 1006 CURVE SMOOTH",
"282 931 OFFCURVE",
"281 905 OFFCURVE",
"281 861 CURVE SMOOTH",
"281 852 LINE SMOOTH",
"281 787 OFFCURVE",
"287 671 OFFCURVE",
"308 515 CURVE SMOOTH",
"328 359 OFFCURVE",
"355 220 OFFCURVE",
"406 126 CURVE SMOOTH",
"431 79 OFFCURVE",
"460 55 OFFCURVE",
"491 55 CURVE SMOOTH",
"518 55 OFFCURVE",
"542 81 OFFCURVE",
"561 132 CURVE SMOOTH",
"599 235 OFFCURVE",
"611 412 OFFCURVE",
"617 517 CURVE SMOOTH",
"620 570 OFFCURVE",
"621 615 OFFCURVE",
"621 653 CURVE SMOOTH",
"621 706 OFFCURVE",
"621 745 OFFCURVE",
"618 842 CURVE SMOOTH",
"614 938 OFFCURVE",
"606 1015 OFFCURVE",
"594 1118 CURVE SMOOTH",
"581 1221 OFFCURVE",
"560 1298 OFFCURVE",
"533 1368 CURVE SMOOTH",
"505 1438 OFFCURVE",
"463 1477 OFFCURVE",
"415 1477 CURVE SMOOTH"
);
},
{
closed = 1;
nodes = (
"476 1585 OFFCURVE",
"536 1555 OFFCURVE",
"577 1499 CURVE SMOOTH",
"618 1442 OFFCURVE",
"650 1378 OFFCURVE",
"670 1285 CURVE SMOOTH",
"689 1192 OFFCURVE",
"702 1117 OFFCURVE",
"707 1009 CURVE SMOOTH",
"712 901 OFFCURVE",
"714 836 OFFCURVE",
"714 736 CURVE SMOOTH",
"714 618 LINE SMOOTH",
"714 588 OFFCURVE",
"711 544 OFFCURVE",
"705 487 CURVE SMOOTH",
"699 430 OFFCURVE",
"696 387 OFFCURVE",
"696 359 CURVE SMOOTH",
"696 350 LINE",
"687 312 OFFCURVE",
"683 267 OFFCURVE",
"683 215 CURVE SMOOTH",
"683 143 OFFCURVE",
"653 54 OFFCURVE",
"590 -9 CURVE SMOOTH",
"559 -41 OFFCURVE",
"524 -57 OFFCURVE",
"487 -57 CURVE SMOOTH",
"412 -57 OFFCURVE",
"349 -1 OFFCURVE",
"309 79 CURVE SMOOTH",
"269 158 OFFCURVE",
"237 277 OFFCURVE",
"221 382 CURVE SMOOTH",
"204 486 OFFCURVE",
"194 615 OFFCURVE",
"191 691 CURVE SMOOTH",
"190 729 OFFCURVE",
"189 765 OFFCURVE",
"189 799 CURVE SMOOTH",
"189 818 OFFCURVE",
"189 855 OFFCURVE",
"188 909 CURVE SMOOTH",
"187 963 OFFCURVE",
"186 1006 OFFCURVE",
"186 1038 CURVE SMOOTH",
"186 1118 OFFCURVE",
"188 1179 OFFCURVE",
"196 1256 CURVE SMOOTH",
"203 1333 OFFCURVE",
"216 1391 OFFCURVE",
"238 1449 CURVE SMOOTH",
"260 1507 OFFCURVE",
"288 1544 OFFCURVE",
"332 1568 CURVE",
"354 1579 OFFCURVE",
"378 1585 OFFCURVE",
"405 1585 CURVE SMOOTH"
);
}
);
width = 900;
}
);
note = Ograve;
unicode = 00D2;
},
{
glyphname = Ohungarumlaut;
lastChange = "2015-11-01 09:31:29 +0000";
layers = (
{
layerId = "156B637B-193E-48A3-AAC8-7B4A3960F885";
name = "Bold Condensed";
paths = (
{
closed = 1;
nodes = (
"497 1669 OFFCURVE",
"490 1678 OFFCURVE",
"490 1696 CURVE SMOOTH",
"490 1712 OFFCURVE",
"519 1753 OFFCURVE",
"576 1819 CURVE SMOOTH",
"633 1884 OFFCURVE",
"694 1947 OFFCURVE",
"757 2007 CURVE SMOOTH",
"820 2066 OFFCURVE",
"859 2096 OFFCURVE",
"874 2096 CURVE SMOOTH",
"903 2096 OFFCURVE",
"928 2073 OFFCURVE",
"936 2048 CURVE",
"911 1981 OFFCURVE",
"591 1714 OFFCURVE",
"510 1669 CURVE"
);
},
{
closed = 1;
nodes = (
"232 1669 LINE",
"235 1710 OFFCURVE",
"345 1880 OFFCURVE",
"443 2004 CURVE SMOOTH",
"492 2065 OFFCURVE",
"522 2096 OFFCURVE",
"534 2096 CURVE SMOOTH",
"559 2096 OFFCURVE",
"582 2079 OFFCURVE",
"582 2058 CURVE SMOOTH",
"582 1997 OFFCURVE",
"460 1847 OFFCURVE",
"348 1743 CURVE SMOOTH",
"291 1691 OFFCURVE",
"253 1662 OFFCURVE",
"232 1656 CURVE"
);
},
{
closed = 1;
nodes = (
"383 1477 OFFCURVE",
"357 1448 OFFCURVE",
"339 1397 CURVE SMOOTH",
"321 1345 OFFCURVE",
"306 1289 OFFCURVE",
"299 1213 CURVE SMOOTH",
"291 1136 OFFCURVE",
"286 1081 OFFCURVE",
"284 1006 CURVE SMOOTH",
"282 931 OFFCURVE",
"281 905 OFFCURVE",
"281 861 CURVE SMOOTH",
"281 852 LINE SMOOTH",
"281 787 OFFCURVE",
"287 671 OFFCURVE",
"308 515 CURVE SMOOTH",
"328 359 OFFCURVE",
"355 220 OFFCURVE",
"406 126 CURVE SMOOTH",
"431 79 OFFCURVE",
"460 55 OFFCURVE",
"491 55 CURVE SMOOTH",
"518 55 OFFCURVE",
"542 81 OFFCURVE",
"561 132 CURVE SMOOTH",
"599 235 OFFCURVE",
"611 412 OFFCURVE",
"617 517 CURVE SMOOTH",
"620 570 OFFCURVE",
"621 615 OFFCURVE",
"621 653 CURVE SMOOTH",
"621 706 OFFCURVE",
"621 745 OFFCURVE",
"618 842 CURVE SMOOTH",
"614 938 OFFCURVE",
"606 1015 OFFCURVE",
"594 1118 CURVE SMOOTH",
"581 1221 OFFCURVE",
"560 1298 OFFCURVE",
"533 1368 CURVE SMOOTH",
"505 1438 OFFCURVE",
"463 1477 OFFCURVE",
"415 1477 CURVE SMOOTH"
);
},
{
closed = 1;
nodes = (
"476 1585 OFFCURVE",
"536 1555 OFFCURVE",
"577 1499 CURVE SMOOTH",
"618 1442 OFFCURVE",
"650 1378 OFFCURVE",
"670 1285 CURVE SMOOTH",
"689 1192 OFFCURVE",
"702 1117 OFFCURVE",
"707 1009 CURVE SMOOTH",
"712 901 OFFCURVE",
"714 836 OFFCURVE",
"714 736 CURVE SMOOTH",
"714 618 LINE SMOOTH",
"714 588 OFFCURVE",
"711 544 OFFCURVE",
"705 487 CURVE SMOOTH",
"699 430 OFFCURVE",
"696 387 OFFCURVE",
"696 359 CURVE SMOOTH",
"696 350 LINE",
"687 312 OFFCURVE",
"683 267 OFFCURVE",
"683 215 CURVE SMOOTH",
"683 143 OFFCURVE",
"653 54 OFFCURVE",
"590 -9 CURVE SMOOTH",
"559 -41 OFFCURVE",
"524 -57 OFFCURVE",
"487 -57 CURVE SMOOTH",
"412 -57 OFFCURVE",
"349 -1 OFFCURVE",
"309 79 CURVE SMOOTH",
"269 158 OFFCURVE",
"237 277 OFFCURVE",
"221 382 CURVE SMOOTH",
"204 486 OFFCURVE",
"194 615 OFFCURVE",
"191 691 CURVE SMOOTH",
"190 729 OFFCURVE",
"189 765 OFFCURVE",
"189 799 CURVE SMOOTH",
"189 818 OFFCURVE",
"189 855 OFFCURVE",
"188 909 CURVE SMOOTH",
"187 963 OFFCURVE",
"186 1006 OFFCURVE",
"186 1038 CURVE SMOOTH",
"186 1118 OFFCURVE",
"188 1179 OFFCURVE",
"196 1256 CURVE SMOOTH",
"203 1333 OFFCURVE",
"216 1391 OFFCURVE",
"238 1449 CURVE SMOOTH",
"260 1507 OFFCURVE",
"288 1544 OFFCURVE",
"332 1568 CURVE",
"354 1579 OFFCURVE",
"378 1585 OFFCURVE",
"405 1585 CURVE SMOOTH"
);
}
);
width = 900;
}
);
note = Ohungarumlaut;
unicode = 0150;
},
{
glyphname = Omacron;
lastChange = "2015-11-01 09:31:29 +0000";
layers = (
{
layerId = "156B637B-193E-48A3-AAC8-7B4A3960F885";
name = "Bold Condensed";
paths = (
{
closed = 1;
nodes = (
"617 1735 OFFCURVE",
"611 1725 OFFCURVE",
"599 1711 CURVE SMOOTH",
"587 1697 OFFCURVE",
"560 1687 OFFCURVE",
"527 1687 CURVE SMOOTH",
"289 1687 LINE SMOOTH",
"249 1687 OFFCURVE",
"218 1712 OFFCURVE",
"218 1739 CURVE SMOOTH",
"218 1760 OFFCURVE",
"240 1777 OFFCURVE",
"284 1777 CURVE SMOOTH",
"510 1777 LINE SMOOTH",
"561 1777 OFFCURVE",
"574 1777 OFFCURVE",
"595 1773 CURVE SMOOTH",
"615 1769 OFFCURVE",
"618 1760 OFFCURVE",
"618 1744 CURVE"
);
},
{
closed = 1;
nodes = (
"383 1477 OFFCURVE",
"357 1448 OFFCURVE",
"339 1397 CURVE SMOOTH",
"321 1345 OFFCURVE",
"306 1289 OFFCURVE",
"299 1213 CURVE SMOOTH",
"291 1136 OFFCURVE",
"286 1081 OFFCURVE",
"284 1006 CURVE SMOOTH",
"282 931 OFFCURVE",
"281 905 OFFCURVE",
"281 861 CURVE SMOOTH",
"281 852 LINE SMOOTH",
"281 787 OFFCURVE",
"287 671 OFFCURVE",
"308 515 CURVE SMOOTH",
"328 359 OFFCURVE",
"355 220 OFFCURVE",
"406 126 CURVE SMOOTH",
"431 79 OFFCURVE",
"460 55 OFFCURVE",
"491 55 CURVE SMOOTH",
"518 55 OFFCURVE",
"542 81 OFFCURVE",
"561 132 CURVE SMOOTH",
"599 235 OFFCURVE",
"611 412 OFFCURVE",
"617 517 CURVE SMOOTH",
"620 570 OFFCURVE",
"621 615 OFFCURVE",
"621 653 CURVE SMOOTH",
"621 706 OFFCURVE",
"621 745 OFFCURVE",
"618 842 CURVE SMOOTH",
"614 938 OFFCURVE",
"606 1015 OFFCURVE",
"594 1118 CURVE SMOOTH",
"581 1221 OFFCURVE",
"560 1298 OFFCURVE",
"533 1368 CURVE SMOOTH",
"505 1438 OFFCURVE",
"463 1477 OFFCURVE",
"415 1477 CURVE SMOOTH"
);
},
{
closed = 1;
nodes = (
"476 1585 OFFCURVE",
"536 1555 OFFCURVE",
"577 1499 CURVE SMOOTH",
"618 1442 OFFCURVE",
"650 1378 OFFCURVE",
"670 1285 CURVE SMOOTH",
"689 1192 OFFCURVE",
"702 1117 OFFCURVE",
"707 1009 CURVE SMOOTH",
"712 901 OFFCURVE",
"714 836 OFFCURVE",
"714 736 CURVE SMOOTH",
"714 618 LINE SMOOTH",
"714 588 OFFCURVE",
"711 544 OFFCURVE",
"705 487 CURVE SMOOTH",
"699 430 OFFCURVE",
"696 387 OFFCURVE",
"696 359 CURVE SMOOTH",
"696 350 LINE",
"687 312 OFFCURVE",
"683 267 OFFCURVE",
"683 215 CURVE SMOOTH",
"683 143 OFFCURVE",
"653 54 OFFCURVE",
"590 -9 CURVE SMOOTH",
"559 -41 OFFCURVE",
"524 -57 OFFCURVE",
"487 -57 CURVE SMOOTH",
"412 -57 OFFCURVE",
"349 -1 OFFCURVE",
"309 79 CURVE SMOOTH",
"269 158 OFFCURVE",
"237 277 OFFCURVE",
"221 382 CURVE SMOOTH",
"204 486 OFFCURVE",
"194 615 OFFCURVE",
"191 691 CURVE SMOOTH",
"190 729 OFFCURVE",
"189 765 OFFCURVE",
"189 799 CURVE SMOOTH",
"189 818 OFFCURVE",
"189 855 OFFCURVE",
"188 909 CURVE SMOOTH",
"187 963 OFFCURVE",
"186 1006 OFFCURVE",
"186 1038 CURVE SMOOTH",
"186 1118 OFFCURVE",
"188 1179 OFFCURVE",
"196 1256 CURVE SMOOTH",
"203 1333 OFFCURVE",
"216 1391 OFFCURVE",
"238 1449 CURVE SMOOTH",
"260 1507 OFFCURVE",
"288 1544 OFFCURVE",
"332 1568 CURVE",
"354 1579 OFFCURVE",
"378 1585 OFFCURVE",
"405 1585 CURVE SMOOTH"
);
}
);
width = 900;
}
);
note = Omacron;
unicode = 014C;
},
{
glyphname = Oslash;
lastChange = "2015-11-01 09:31:29 +0000";
layers = (
{
layerId = "156B637B-193E-48A3-AAC8-7B4A3960F885";
name = "Bold Condensed";
paths = (
{
closed = 1;
nodes = (
"252 -280 LINE",
"207 -224 LINE",
"269 143 LINE",
"198 327 OFFCURVE",
"177 604 OFFCURVE",
"177 799 CURVE SMOOTH",
"177 818 OFFCURVE",
"177 855 OFFCURVE",
"176 909 CURVE SMOOTH",
"175 963 OFFCURVE",
"174 1006 OFFCURVE",
"174 1039 CURVE SMOOTH",
"174 1119 OFFCURVE",
"176 1180 OFFCURVE",
"184 1257 CURVE SMOOTH",
"191 1334 OFFCURVE",
"204 1392 OFFCURVE",
"226 1449 CURVE SMOOTH",
"248 1506 OFFCURVE",
"276 1544 OFFCURVE",
"320 1568 CURVE",
"342 1579 OFFCURVE",
"366 1585 OFFCURVE",
"393 1585 CURVE SMOOTH",
"441 1585 OFFCURVE",
"483 1572 OFFCURVE",
"519 1545 CURVE",
"564 1799 LINE",
"643 1799 LINE",
"579 1481 LINE",
"634 1401 OFFCURVE",
"669 1279 OFFCURVE",
"685 1131 CURVE SMOOTH",
"700 983 OFFCURVE",
"703 883 OFFCURVE",
"703 734 CURVE SMOOTH",
"703 719 OFFCURVE",
"703 699 OFFCURVE",
"703 674 CURVE",
"702 648 OFFCURVE",
"702 629 OFFCURVE",
"702 618 CURVE SMOOTH",
"702 588 OFFCURVE",
"699 544 OFFCURVE",
"693 487 CURVE SMOOTH",
"687 430 OFFCURVE",
"684 387 OFFCURVE",
"684 359 CURVE SMOOTH",
"684 350 LINE",
"675 312 OFFCURVE",
"671 267 OFFCURVE",
"671 215 CURVE SMOOTH",
"671 143 OFFCURVE",
"641 54 OFFCURVE",
"578 -9 CURVE SMOOTH",
"547 -41 OFFCURVE",
"512 -57 OFFCURVE",
"475 -57 CURVE SMOOTH",
"411 -57 OFFCURVE",
"368 -22 OFFCURVE",
"324 47 CURVE"
);
},
{
closed = 1;
nodes = (
"350 239 LINE",
"385 116 OFFCURVE",
"428 55 OFFCURVE",
"479 55 CURVE SMOOTH",
"506 55 OFFCURVE",
"530 81 OFFCURVE",
"549 132 CURVE SMOOTH",
"587 235 OFFCURVE",
"599 412 OFFCURVE",
"605 517 CURVE SMOOTH",
"608 570 OFFCURVE",
"609 615 OFFCURVE",
"609 653 CURVE SMOOTH",
"609 938 OFFCURVE",
"588 1153 OFFCURVE",
"545 1299 CURVE"
);
},
{
closed = 1;
nodes = (
"371 1477 OFFCURVE",
"345 1448 OFFCURVE",
"327 1397 CURVE SMOOTH",
"309 1345 OFFCURVE",
"294 1289 OFFCURVE",
"287 1213 CURVE SMOOTH",
"279 1136 OFFCURVE",
"274 1081 OFFCURVE",
"272 1006 CURVE SMOOTH",
"270 931 OFFCURVE",
"269 905 OFFCURVE",
"269 861 CURVE SMOOTH",
"269 852 LINE SMOOTH",
"269 763 OFFCURVE",
"285 560 OFFCURVE",
"314 396 CURVE",
"496 1415 LINE",
"469 1456 OFFCURVE",
"438 1477 OFFCURVE",
"403 1477 CURVE SMOOTH"
);
}
);
width = 900;
}
);
note = Oslash;
unicode = 00D8;
},
